<svg width="81" height="25" viewBox="0 0 81 25" fill="none" xmlns="http://www.w3.org/2000/svg">
<g clip-path="url(#clip0_2_2783)">
<g clip-path="url(#clip1_2_2783)">
<g clip-path="url(#clip2_2_2783)">
<path d="M-32.5223 -1.5752C-32.5223 -3.56432 -31.7321 -5.47197 -30.3256 -6.8785C-28.9191 -8.28502 -27.0114 -9.0752 -25.0223 -9.0752H105.978C107.967 -9.0752 109.874 -8.28502 111.281 -6.8785C112.688 -5.47197 113.478 -3.56432 113.478 -1.5752V26.4248C113.478 28.4139 112.688 30.3216 111.281 31.7281C109.874 33.1346 107.967 33.9248 105.978 33.9248H-25.0223C-27.0114 33.9248 -28.9191 33.1346 -30.3256 31.7281C-31.7321 30.3216 -32.5223 28.4139 -32.5223 26.4248V-1.5752Z" stroke="white"/>
<path d="M7.09072 13.4248C7.04356 13.425 6.99687 13.4155 6.95353 13.3969C6.91019 13.3783 6.87111 13.3511 6.83872 13.3168C6.80445 13.2844 6.77718 13.2453 6.75861 13.202C6.74003 13.1587 6.73054 13.112 6.73072 13.0648C6.73072 12.9688 6.73672 12.9028 6.74872 12.8668L11.2127 1.22081C11.3087 0.95681 11.5007 0.82481 11.7887 0.82481H13.0127C13.3007 0.82481 13.4927 0.95681 13.5887 1.22081L18.0347 12.8668L18.0707 13.0648C18.0707 13.1608 18.0347 13.2448 17.9627 13.3168C17.9303 13.3511 17.8912 13.3783 17.8479 13.3969C17.8046 13.4155 17.7579 13.425 17.7107 13.4248H16.7927C16.6833 13.4318 16.5749 13.3999 16.4867 13.3348C16.4227 13.2749 16.3734 13.201 16.3427 13.1188L15.3527 10.5628H9.44772L8.45772 13.1188C8.4241 13.2041 8.36814 13.2787 8.29572 13.3348C8.21353 13.3982 8.11138 13.4301 8.00772 13.4248H7.09072ZM14.8307 9.01481L12.4007 2.62481L9.97072 9.01481H14.8307ZM20.1927 16.8448C20.1358 16.8458 20.0793 16.8351 20.0267 16.8135C19.9741 16.7918 19.9264 16.7596 19.8867 16.7188C19.8501 16.6806 19.8217 16.6354 19.8031 16.5859C19.7846 16.5364 19.7763 16.4836 19.7787 16.4308V4.47881C19.7763 4.42599 19.7846 4.37322 19.8031 4.32371C19.8217 4.2742 19.8501 4.22899 19.8867 4.19081C19.9264 4.15004 19.9741 4.11783 20.0267 4.09616C20.0793 4.07449 20.1358 4.06382 20.1927 4.06481H21.0207C21.0751 4.06267 21.1293 4.07289 21.1792 4.09471C21.2291 4.11654 21.2734 4.1494 21.3087 4.19081C21.3501 4.22616 21.383 4.27045 21.4048 4.32033C21.4266 4.37022 21.4369 4.4244 21.4347 4.47881V5.27081C22.1067 4.34681 23.0907 3.88481 24.3867 3.88481C25.6467 3.88481 26.5887 4.28081 27.2127 5.07281C27.8487 5.86481 28.1907 6.88481 28.2387 8.13281C28.2507 8.26481 28.2567 8.46881 28.2567 8.74481C28.2567 9.02081 28.2507 9.22481 28.2387 9.35681C28.1907 10.5928 27.8487 11.6128 27.2127 12.4168C26.5767 13.2088 25.6347 13.6048 24.3867 13.6048C23.1387 13.6048 22.1667 13.1548 21.4707 12.2548V16.4308C21.4732 16.4836 21.4649 16.5364 21.4463 16.5859C21.4277 16.6354 21.3993 16.6806 21.3627 16.7188C21.3274 16.7602 21.2831 16.7931 21.2332 16.8149C21.1833 16.8367 21.1291 16.847 21.0747 16.8448H20.1927ZM24.0087 12.1468C24.8607 12.1468 25.4787 11.8828 25.8627 11.3548C26.2587 10.8268 26.4747 10.1308 26.5107 9.26681C26.5227 9.14681 26.5287 8.97281 26.5287 8.74481C26.5287 6.47681 25.6887 5.34281 24.0087 5.34281C23.1807 5.34281 22.5567 5.61881 22.1367 6.17081C21.7287 6.71081 21.5067 7.35881 21.4707 8.11481L21.4527 8.79881L21.4707 9.50081C21.4947 10.2088 21.7227 10.8268 22.1547 11.3548C22.5867 11.8828 23.2047 12.1468 24.0087 12.1468ZM30.9157 16.8448C30.8588 16.8458 30.8023 16.8351 30.7497 16.8135C30.6971 16.7918 30.6494 16.7596 30.6097 16.7188C30.5731 16.6806 30.5447 16.6354 30.5261 16.5859C30.5076 16.5364 30.4993 16.4836 30.5017 16.4308V4.47881C30.4993 4.42599 30.5076 4.37322 30.5261 4.32371C30.5447 4.2742 30.5731 4.22899 30.6097 4.19081C30.6494 4.15004 30.6971 4.11783 30.7497 4.09616C30.8023 4.07449 30.8588 4.06382 30.9157 4.06481H31.7437C31.7981 4.06267 31.8523 4.07289 31.9022 4.09471C31.9521 4.11654 31.9964 4.1494 32.0317 4.19081C32.0731 4.22616 32.106 4.27045 32.1278 4.32033C32.1496 4.37022 32.1599 4.4244 32.1577 4.47881V5.27081C32.8297 4.34681 33.8137 3.88481 35.1097 3.88481C36.3697 3.88481 37.3117 4.28081 37.9357 5.07281C38.5717 5.86481 38.9137 6.88481 38.9617 8.13281C38.9737 8.26481 38.9797 8.46881 38.9797 8.74481C38.9797 9.02081 38.9737 9.22481 38.9617 9.35681C38.9137 10.5928 38.5717 11.6128 37.9357 12.4168C37.2997 13.2088 36.3577 13.6048 35.1097 13.6048C33.8617 13.6048 32.8897 13.1548 32.1937 12.2548V16.4308C32.1962 16.4836 32.1879 16.5364 32.1693 16.5859C32.1507 16.6354 32.1223 16.6806 32.0857 16.7188C32.0504 16.7602 32.0061 16.7931 31.9562 16.8149C31.9063 16.8367 31.8521 16.847 31.7977 16.8448H30.9157ZM34.7317 12.1468C35.5837 12.1468 36.2017 11.8828 36.5857 11.3548C36.9817 10.8268 37.1977 10.1308 37.2337 9.26681C37.2457 9.14681 37.2517 8.97281 37.2517 8.74481C37.2517 6.47681 36.4117 5.34281 34.7317 5.34281C33.9037 5.34281 33.2797 5.61881 32.8597 6.17081C32.4517 6.71081 32.2297 7.35881 32.1937 8.11481L32.1757 8.79881L32.1937 9.50081C32.2177 10.2088 32.4457 10.8268 32.8777 11.3548C33.3097 11.8828 33.9277 12.1468 34.7317 12.1468ZM49.9017 13.6048C48.9067 13.6048 48.0417 13.4488 47.3107 13.1368C46.5907 12.8248 46.0387 12.4168 45.6547 11.9128C45.2707 11.3968 45.0667 10.8448 45.0427 10.2568C45.0427 10.1608 45.0787 10.0768 45.1507 10.0048C45.1876 9.96526 45.2322 9.93368 45.2817 9.91201C45.3312 9.89034 45.3847 9.87904 45.4387 9.87881H46.3567C46.5847 9.87881 46.7407 9.99881 46.8247 10.2388C46.9327 10.7428 47.2387 11.1748 47.7427 11.5348C48.2587 11.8948 48.9787 12.0748 49.9027 12.0748C50.8987 12.0748 51.6487 11.9008 52.1527 11.5528C52.6567 11.1928 52.9087 10.6948 52.9087 10.0588C52.9087 9.65081 52.7827 9.32081 52.5307 9.06881C52.2907 8.81681 51.9307 8.59481 51.4507 8.40281C50.9707 8.21081 50.2507 7.97081 49.2907 7.68281C48.3547 7.41881 47.6107 7.13681 47.0587 6.83681C46.5067 6.53681 46.0927 6.16481 45.8167 5.72081C45.5407 5.27681 45.4027 4.71881 45.4027 4.04681C45.4027 3.39881 45.5767 2.81681 45.9247 2.30081C46.2847 1.78481 46.7947 1.38281 47.4547 1.09481C48.1147 0.794811 48.9007 0.644811 49.8127 0.644811C50.7487 0.644811 51.5527 0.812811 52.2247 1.14881C52.8967 1.47281 53.4067 1.88681 53.7547 2.39081C54.1027 2.89481 54.2887 3.39881 54.3127 3.90281C54.3127 3.99881 54.2767 4.08281 54.2047 4.15481C54.1447 4.22681 54.0547 4.26281 53.9347 4.26281H52.9807C52.7287 4.26281 52.5727 4.14881 52.5127 3.92081C52.4407 3.41681 52.1587 3.00281 51.6667 2.67881C51.1747 2.34281 50.5567 2.17481 49.8127 2.17481C48.9967 2.17481 48.3547 2.33081 47.8867 2.64281C47.4187 2.95481 47.1847 3.41681 47.1847 4.02881C47.1847 4.43681 47.2927 4.77281 47.5087 5.03681C47.7367 5.30081 48.0787 5.53481 48.5347 5.73881C48.9907 5.93081 49.6567 6.15281 50.5327 6.40481C51.5527 6.68081 52.3567 6.96881 52.9447 7.26881C53.5327 7.55681 53.9707 7.92281 54.2587 8.36681C54.5467 8.79881 54.6907 9.35081 54.6907 10.0228C54.6907 11.1388 54.2587 12.0148 53.3947 12.6508C52.5307 13.2868 51.3657 13.6048 49.9017 13.6048ZM60.4707 13.4248C58.5747 13.4248 57.6267 12.3688 57.6267 10.2568V5.50481H56.2227C56.1109 5.50774 56.0019 5.46928 55.9167 5.39681C55.8443 5.3116 55.8058 5.20263 55.8087 5.09081V4.47881C55.8063 4.42599 55.8146 4.37322 55.8331 4.32371C55.8517 4.2742 55.8801 4.22899 55.9167 4.19081C55.9564 4.15004 56.0041 4.11783 56.0567 4.09616C56.1093 4.07449 56.1658 4.06382 56.2227 4.06481H57.6267V1.05881C57.6243 1.00599 57.6326 0.953223 57.6511 0.903713C57.6697 0.854204 57.6981 0.808987 57.7347 0.77081C57.7744 0.730038 57.8221 0.697826 57.8747 0.676156C57.9273 0.654487 57.9838 0.64382 58.0407 0.644811H58.8867C58.9411 0.642665 58.9953 0.652889 59.0452 0.674714C59.0951 0.696539 59.1394 0.729395 59.1747 0.77081C59.2161 0.806161 59.249 0.850445 59.2708 0.900331C59.2926 0.950216 59.3029 1.0044 59.3007 1.05881V4.06481H61.5327C61.5871 4.06267 61.6413 4.07289 61.6912 4.09471C61.7411 4.11654 61.7854 4.1494 61.8207 4.19081C61.8621 4.22616 61.895 4.27045 61.9168 4.32033C61.9386 4.37022 61.9489 4.4244 61.9467 4.47881V5.09081C61.9467 5.21081 61.9047 5.31281 61.8207 5.39681C61.7825 5.4334 61.7373 5.46184 61.6878 5.4804C61.6383 5.49897 61.5855 5.50727 61.5327 5.50481H59.3007V10.1308C59.3007 10.7308 59.4027 11.1868 59.6067 11.4988C59.8107 11.7988 60.1467 11.9488 60.6147 11.9488H61.7127C61.7671 11.9467 61.8213 11.9569 61.8712 11.9787C61.9211 12.0005 61.9654 12.0334 62.0007 12.0748C62.0421 12.1102 62.075 12.1544 62.0968 12.2043C62.1186 12.2542 62.1289 12.3084 62.1267 12.3628V13.0108C62.1267 13.1308 62.0847 13.2328 62.0007 13.3168C61.9625 13.3534 61.9173 13.3818 61.8678 13.4004C61.8183 13.419 61.7655 13.4273 61.7127 13.4248H60.4707ZM67.6817 13.6048C66.3617 13.6048 65.3357 13.2328 64.6037 12.4888C63.8837 11.7448 63.4997 10.7548 63.4517 9.51881L63.4337 8.74481L63.4517 7.97081C63.4997 6.74681 63.8897 5.76281 64.6217 5.01881C65.3537 4.26281 66.3737 3.88481 67.6817 3.88481C68.9897 3.88481 70.0097 4.26281 70.7417 5.01881C71.4737 5.76281 71.8637 6.74681 71.9117 7.97081C71.9237 8.10281 71.9297 8.36081 71.9297 8.74481C71.9297 9.12881 71.9237 9.38681 71.9117 9.51881C71.8637 10.7548 71.4737 11.7448 70.7417 12.4888C70.0217 13.2328 69.0017 13.6048 67.6817 13.6048ZM67.6817 12.2188C68.4377 12.2188 69.0317 11.9788 69.4637 11.4988C69.9077 11.0188 70.1477 10.3288 70.1837 9.42881C70.1957 9.30881 70.2017 9.08081 70.2017 8.74481C70.2017 8.40881 70.1957 8.18081 70.1837 8.06081C70.1477 7.16081 69.9077 6.47081 69.4637 5.99081C69.0317 5.51081 68.4377 5.27081 67.6817 5.27081C66.9257 5.27081 66.3257 5.51081 65.8817 5.99081C65.4377 6.47081 65.2037 7.16081 65.1797 8.06081L65.1617 8.74481L65.1797 9.42881C65.2037 10.3288 65.4377 11.0188 65.8817 11.4988C66.3257 11.9788 66.9257 12.2188 67.6817 12.2188ZM74.5967 13.4248C74.4849 13.4277 74.3759 13.3893 74.2907 13.3168C74.2182 13.2316 74.1798 13.1226 74.1827 13.0108V4.49681C74.1827 4.37681 74.2187 4.27481 74.2907 4.19081C74.3304 4.15004 74.3781 4.11783 74.4307 4.09616C74.4833 4.07449 74.5398 4.06382 74.5967 4.06481H75.4247C75.5447 4.06481 75.6467 4.10681 75.7307 4.19081C75.7715 4.23052 75.8037 4.27815 75.8254 4.33078C75.847 4.3834 75.8577 4.43991 75.8567 4.49681V5.28881C76.3487 4.47281 77.1887 4.06481 78.3767 4.06481H79.0787C79.1331 4.06267 79.1873 4.07289 79.2372 4.09471C79.2871 4.11654 79.3314 4.1494 79.3667 4.19081C79.4081 4.22616 79.441 4.27045 79.4628 4.32033C79.4846 4.37022 79.4949 4.4244 79.4927 4.47881V5.21681C79.4949 5.27122 79.4846 5.3254 79.4628 5.37529C79.441 5.42518 79.4081 5.46946 79.3667 5.50481C79.3285 5.5414 79.2833 5.56984 79.2338 5.5884C79.1843 5.60697 79.1315 5.61527 79.0787 5.61281H77.9987C77.3507 5.61281 76.8407 5.80481 76.4687 6.18881C76.0967 6.56081 75.9107 7.07081 75.9107 7.71881V13.0108C75.9107 13.1308 75.8687 13.2328 75.7847 13.3168C75.6995 13.3893 75.5905 13.4277 75.4787 13.4248H74.5967ZM84.5887 13.6048C83.3527 13.6048 82.3627 13.2268 81.6187 12.4708C80.8867 11.7028 80.4847 10.6588 80.4127 9.33881L80.3947 8.72681L80.4127 8.13281C80.4967 6.83681 80.9047 5.80481 81.6367 5.03681C82.3807 4.26881 83.3587 3.88481 84.5707 3.88481C85.9027 3.88481 86.9347 4.31081 87.6667 5.16281C88.3987 6.00281 88.7647 7.14281 88.7647 8.58281V8.88881C88.7647 9.00881 88.7227 9.11081 88.6387 9.19481C88.6005 9.2314 88.5553 9.25984 88.5058 9.2784C88.4563 9.29697 88.4035 9.30527 88.3507 9.30281H82.1227V9.46481C82.1587 10.2448 82.3927 10.9108 82.8247 11.4628C83.2687 12.0028 83.8507 12.2728 84.5707 12.2728C85.1227 12.2728 85.5727 12.1648 85.9207 11.9488C86.2807 11.7208 86.5447 11.4868 86.7127 11.2468C86.8207 11.1028 86.8987 11.0188 86.9467 10.9948C87.0067 10.9588 87.1087 10.9408 87.2527 10.9408H88.1347C88.2427 10.9408 88.3327 10.9708 88.4047 11.0308C88.4408 11.0617 88.4694 11.1005 88.4881 11.1442C88.5068 11.1879 88.5152 11.2353 88.5127 11.2828C88.5127 11.5468 88.3447 11.8648 88.0087 12.2368C87.6847 12.6088 87.2227 12.9328 86.6227 13.2088C86.0347 13.4728 85.3567 13.6048 84.5887 13.6048ZM87.0547 8.06081V8.00681C87.0547 7.17881 86.8267 6.50681 86.3707 5.99081C85.9267 5.46281 85.3267 5.19881 84.5707 5.19881C83.8147 5.19881 83.2147 5.46281 82.7707 5.99081C82.3387 6.50681 82.1227 7.17881 82.1227 8.00681V8.06081H87.0547ZM8.77172 24.5048C8.07272 24.5048 7.53172 24.3238 7.14772 23.9608C6.76872 23.5928 6.56872 23.0408 6.54772 22.3048C6.5417 22.0782 6.53903 21.8515 6.53972 21.6248C6.53972 21.3318 6.54272 21.1078 6.54772 20.9528C6.56872 20.2328 6.77772 19.6858 7.17172 19.3128C7.56672 18.9338 8.09972 18.7448 8.77172 18.7448C9.43872 18.7448 9.96872 18.9348 10.3637 19.3128C10.7587 19.6858 10.9667 20.2328 10.9877 20.9528C10.9977 21.2628 11.0037 21.4858 11.0037 21.6248C11.0037 21.7578 10.9987 21.9848 10.9877 22.3048C10.9667 23.0408 10.7637 23.5928 10.3797 23.9608C10.0007 24.3238 9.46472 24.5048 8.77172 24.5048ZM8.77172 23.8248C9.19272 23.8248 9.52872 23.6968 9.77972 23.4408C10.0297 23.1848 10.1667 22.7928 10.1877 22.2648C10.1977 21.9448 10.2037 21.7318 10.2037 21.6248C10.2037 21.5078 10.1987 21.2948 10.1877 20.9848C10.1667 20.4568 10.0277 20.0648 9.77172 19.8088C9.52172 19.5528 9.18772 19.4248 8.77172 19.4248C8.35072 19.4248 8.01172 19.5528 7.75572 19.8088C7.50572 20.0648 7.36872 20.4568 7.34772 20.9848C7.34272 21.1398 7.33972 21.3528 7.33972 21.6248C7.33972 21.8918 7.34272 22.1048 7.34772 22.2648C7.36872 22.7928 7.50472 23.1848 7.75572 23.4408C8.01172 23.6968 8.35072 23.8248 8.77172 23.8248ZM12.2497 24.4248C12.2 24.4261 12.1516 24.409 12.1137 24.3768C12.0815 24.3389 12.0644 24.2905 12.0657 24.2408V20.4568C12.0657 20.4038 12.0817 20.3578 12.1137 20.3208C12.1314 20.3027 12.1525 20.2883 12.1759 20.2787C12.1993 20.2691 12.2244 20.2644 12.2497 20.2648H12.6177C12.6707 20.2648 12.7167 20.2838 12.7537 20.3208C12.7719 20.3384 12.7862 20.3596 12.7958 20.383C12.8054 20.4064 12.8102 20.4315 12.8097 20.4568V20.8088C13.0287 20.4458 13.4017 20.2648 13.9297 20.2648H14.2417C14.2659 20.2639 14.29 20.2684 14.3122 20.2781C14.3343 20.2878 14.354 20.3024 14.3697 20.3208C14.3881 20.3365 14.4027 20.3562 14.4124 20.3784C14.4221 20.4005 14.4267 20.4246 14.4257 20.4488V20.7768C14.4267 20.801 14.4221 20.8251 14.4124 20.8472C14.4027 20.8694 14.3881 20.8891 14.3697 20.9048C14.3528 20.9211 14.3327 20.9337 14.3107 20.942C14.2887 20.9502 14.2652 20.9539 14.2417 20.9528H13.7617C13.4737 20.9528 13.2467 21.0378 13.0817 21.2088C12.9167 21.3738 12.8337 21.6008 12.8337 21.8888V24.2408C12.8342 24.2661 12.8294 24.2912 12.8198 24.3146C12.8102 24.338 12.7959 24.3592 12.7777 24.3768C12.7398 24.409 12.6914 24.4261 12.6417 24.4248H12.2497ZM18.0267 25.9448C18.0014 25.9453 17.9763 25.9405 17.9529 25.9309C17.9295 25.9213 17.9084 25.9069 17.8907 25.8888C17.8744 25.8719 17.8618 25.8518 17.8535 25.8298C17.8453 25.8077 17.8416 25.7843 17.8427 25.7608V23.9048C17.5327 24.3048 17.1017 24.5048 16.5467 24.5048C15.9927 24.5048 15.5737 24.3288 15.2907 23.9768C15.0087 23.6198 14.8587 23.1668 14.8427 22.6168L14.8347 22.3448L14.8427 22.0728C14.8587 21.5178 15.0057 21.0648 15.2827 20.7128C15.5657 20.3608 15.9867 20.1848 16.5467 20.1848C17.1227 20.1848 17.5607 20.3898 17.8587 20.8008V20.4488C17.8587 20.3958 17.8747 20.3528 17.9067 20.3208C17.9244 20.3027 17.9455 20.2883 17.9689 20.2787C17.9923 20.2691 18.0174 20.2644 18.0427 20.2648H18.4107C18.4349 20.2639 18.459 20.2684 18.4812 20.2781C18.5033 20.2878 18.523 20.3024 18.5387 20.3208C18.5571 20.3365 18.5717 20.3562 18.5814 20.3784C18.5911 20.4005 18.5957 20.4246 18.5947 20.4488V25.7608C18.5957 25.785 18.5911 25.8091 18.5814 25.8312C18.5717 25.8534 18.5571 25.8731 18.5387 25.8888C18.523 25.9072 18.5033 25.9218 18.4812 25.9315C18.459 25.9412 18.4349 25.9458 18.4107 25.9448H18.0267ZM16.7147 23.8568C17.0727 23.8568 17.3467 23.7398 17.5387 23.5048C17.7307 23.2698 17.8327 22.9948 17.8427 22.6808C17.8497 22.577 17.8524 22.4729 17.8507 22.3688C17.8507 22.2188 17.8487 22.1188 17.8427 22.0648C17.835 21.752 17.7286 21.4496 17.5387 21.2008C17.3577 20.9558 17.0827 20.8328 16.7147 20.8328C16.3367 20.8328 16.0587 20.9498 15.8827 21.1848C15.7127 21.4198 15.6187 21.7288 15.6027 22.1128L15.5947 22.3448C15.5947 23.3528 15.9687 23.8568 16.7147 23.8568ZM20.9447 24.5048C20.6837 24.5048 20.4407 24.4518 20.2167 24.3448C20.0048 24.2478 19.8205 24.0993 19.6807 23.9128C19.5546 23.7322 19.4875 23.517 19.4887 23.2968C19.4887 22.9448 19.6327 22.6568 19.9207 22.4328C20.2137 22.2028 20.6087 22.0538 21.1047 21.9848L22.2967 21.8168V21.5848C22.2967 21.0408 21.9847 20.7688 21.3607 20.7688C21.1257 20.7688 20.9337 20.8188 20.7847 20.9208C20.646 21.0059 20.5305 21.1241 20.4487 21.2648C20.4378 21.3049 20.4156 21.341 20.3847 21.3688C20.3637 21.3898 20.3317 21.4008 20.2887 21.4008H19.9447C19.8976 21.4011 19.852 21.3841 19.8167 21.3528C19.7855 21.3175 19.7684 21.2719 19.7687 21.2248C19.7737 21.0968 19.8327 20.9528 19.9447 20.7928C20.085 20.6088 20.2693 20.463 20.4807 20.3688C20.7207 20.2458 21.0167 20.1848 21.3687 20.1848C21.9657 20.1848 22.3947 20.3258 22.6567 20.6088C22.9177 20.8858 23.0487 21.2328 23.0487 21.6488V24.2408C23.0492 24.2661 23.0444 24.2912 23.0348 24.3146C23.0252 24.338 23.0109 24.3592 22.9927 24.3768C22.9758 24.3931 22.9557 24.4057 22.9337 24.414C22.9117 24.4222 22.8882 24.4259 22.8647 24.4248H22.4967C22.447 24.4261 22.3986 24.409 22.3607 24.3768C22.3285 24.3389 22.3114 24.2905 22.3127 24.2408V23.8968C22.1957 24.0668 22.0247 24.2118 21.8007 24.3288C21.5767 24.4458 21.2907 24.5048 20.9447 24.5048ZM21.1127 23.9048C21.4587 23.9048 21.7427 23.7928 21.9607 23.5688C22.1847 23.3388 22.2967 23.0118 22.2967 22.5848V22.3608L21.3687 22.4968C20.9897 22.5498 20.7047 22.6408 20.5127 22.7688C20.3207 22.8918 20.2247 23.0488 20.2247 23.2408C20.2247 23.4538 20.3127 23.6198 20.4887 23.7368C20.6647 23.8488 20.8727 23.9048 21.1127 23.9048ZM24.3907 24.4248C24.341 24.4261 24.2926 24.409 24.2547 24.3768C24.2225 24.3389 24.2054 24.2905 24.2067 24.2408V18.9288C24.2067 18.8758 24.2227 18.8328 24.2547 18.8008C24.2724 18.7827 24.2935 18.7683 24.3169 18.7587C24.3403 18.7491 24.3654 18.7444 24.3907 18.7448H24.7667C24.7909 18.7439 24.815 18.7484 24.8372 18.7581C24.8593 18.7678 24.879 18.7824 24.8947 18.8008C24.9131 18.8165 24.9277 18.8362 24.9374 18.8584C24.9471 18.8805 24.9517 18.9046 24.9507 18.9288V24.2408C24.9512 24.2661 24.9464 24.2912 24.9368 24.3146C24.9272 24.338 24.9129 24.3592 24.8947 24.3768C24.8778 24.3931 24.8577 24.4057 24.8357 24.414C24.8137 24.4222 24.7902 24.4259 24.7667 24.4248H24.3907ZM26.2637 19.4888C26.214 19.4901 26.1656 19.473 26.1277 19.4408C26.0955 19.4029 26.0784 19.3545 26.0797 19.3048V18.8728C26.0797 18.8198 26.0957 18.7738 26.1277 18.7368C26.1454 18.7187 26.1665 18.7043 26.1899 18.6947C26.2133 18.6851 26.2384 18.6804 26.2637 18.6808H26.7677C26.8217 18.6808 26.8667 18.6998 26.9037 18.7368C26.9219 18.7544 26.9362 18.7756 26.9458 18.799C26.9554 18.8224 26.9602 18.8475 26.9597 18.8728V19.3048C26.9602 19.3301 26.9554 19.3552 26.9458 19.3786C26.9362 19.402 26.9219 19.4232 26.9037 19.4408C26.8658 19.473 26.8174 19.4901 26.7677 19.4888H26.2637ZM26.3277 24.4248C26.278 24.4261 26.2296 24.409 26.1917 24.3768C26.1595 24.3389 26.1424 24.2905 26.1437 24.2408V20.4488C26.1437 20.3958 26.1597 20.3528 26.1917 20.3208C26.2094 20.3027 26.2305 20.2883 26.2539 20.2787C26.2773 20.2691 26.3024 20.2644 26.3277 20.2648H26.7117C26.7359 20.2639 26.76 20.2684 26.7822 20.2781C26.8043 20.2878 26.824 20.3024 26.8397 20.3208C26.8581 20.3365 26.8727 20.3562 26.8824 20.3784C26.8921 20.4005 26.8967 20.4246 26.8957 20.4488V24.2408C26.8962 24.2661 26.8914 24.2912 26.8818 24.3146C26.8722 24.338 26.8579 24.3592 26.8397 24.3768C26.8228 24.3931 26.8027 24.4057 26.7807 24.414C26.7586 24.4222 26.7352 24.4259 26.7117 24.4248H26.3277ZM30.5517 25.9448C30.5308 25.9449 30.51 25.9407 30.4907 25.9324C30.4715 25.9242 30.4541 25.9121 30.4397 25.8968C30.4245 25.8824 30.4123 25.8651 30.4041 25.8458C30.3958 25.8265 30.3916 25.8058 30.3917 25.7848C30.3917 25.7478 30.4047 25.6998 30.4317 25.6408L31.0477 24.1768L29.5197 20.5688C29.5002 20.5255 29.4867 20.4798 29.4797 20.4328C29.479 20.4106 29.4829 20.3884 29.4911 20.3677C29.4993 20.347 29.5116 20.3282 29.5274 20.3125C29.5431 20.2967 29.5619 20.2844 29.5826 20.2762C29.6033 20.268 29.6255 20.2641 29.6477 20.2648H30.0397C30.1247 20.2648 30.1897 20.3098 30.2317 20.4008L31.4477 23.3128L32.6957 20.4008C32.7387 20.3108 32.8057 20.2648 32.8957 20.2648H33.2717C33.3197 20.2648 33.3597 20.2808 33.3917 20.3128C33.4237 20.3448 33.4397 20.3828 33.4397 20.4248C33.4311 20.474 33.4177 20.5222 33.3997 20.5688L31.1277 25.8088C31.0847 25.8988 31.0177 25.9448 30.9277 25.9448H30.5517ZM35.7897 24.5048C35.2827 24.5048 34.8907 24.3418 34.6137 24.0168C34.3367 23.6868 34.1977 23.2488 34.1977 22.7048V20.4488C34.1977 20.3958 34.2137 20.3528 34.2457 20.3208C34.2633 20.3027 34.2845 20.2883 34.3079 20.2787C34.3313 20.2691 34.3564 20.2644 34.3817 20.2648H34.7817C34.8059 20.2639 34.83 20.2684 34.8522 20.2781C34.8743 20.2878 34.894 20.3024 34.9097 20.3208C34.9281 20.3365 34.9427 20.3562 34.9524 20.3784C34.9621 20.4005 34.9667 20.4246 34.9657 20.4488V22.6648C34.9657 23.4598 35.3127 23.8568 36.0057 23.8568C36.3417 23.8568 36.6087 23.7528 36.8057 23.5448C37.0027 23.3318 37.1017 23.0378 37.1017 22.6648V20.4488C37.1017 20.3958 37.1177 20.3528 37.1497 20.3208C37.1673 20.3027 37.1885 20.2883 37.2119 20.2787C37.2353 20.2691 37.2604 20.2644 37.2857 20.2648H37.6857C37.7099 20.2639 37.734 20.2684 37.7562 20.2781C37.7783 20.2878 37.798 20.3024 37.8137 20.3208C37.83 20.3378 37.8426 20.3579 37.8509 20.3799C37.8591 20.4019 37.8628 20.4253 37.8617 20.4488V24.2408C37.863 24.2905 37.8459 24.3389 37.8137 24.3768C37.7968 24.3931 37.7767 24.4057 37.7547 24.414C37.7326 24.4222 37.7092 24.4259 37.6857 24.4248H37.3097C37.26 24.4261 37.2116 24.409 37.1737 24.3768C37.1415 24.3389 37.1244 24.2905 37.1257 24.2408V23.8888C36.9841 24.0848 36.7976 24.2439 36.5817 24.3528C36.3687 24.4538 36.1047 24.5048 35.7897 24.5048ZM39.2427 24.4248C39.193 24.4261 39.1446 24.409 39.1067 24.3768C39.0742 24.3391 39.0567 24.2906 39.0577 24.2408V18.9288C39.0577 18.8758 39.0747 18.8328 39.1067 18.8008C39.1242 18.7828 39.1452 18.7685 39.1685 18.7589C39.1917 18.7493 39.2166 18.7445 39.2417 18.7448H39.6187C39.6427 18.744 39.6666 18.7486 39.6886 18.7583C39.7106 18.768 39.7301 18.7825 39.7457 18.8008C39.7641 18.8165 39.7787 18.8362 39.7884 18.8584C39.7981 18.8805 39.8027 18.9046 39.8017 18.9288V21.7128L41.3777 20.4008C41.4054 20.3808 41.4321 20.3595 41.4577 20.3368C41.4897 20.313 41.5251 20.2942 41.5627 20.2808C41.6071 20.2693 41.6529 20.2639 41.6987 20.2648H42.1217C42.144 20.2641 42.1661 20.268 42.1868 20.2762C42.2075 20.2844 42.2263 20.2967 42.2421 20.3125C42.2578 20.3282 42.2701 20.347 42.2783 20.3677C42.2865 20.3884 42.2904 20.4106 42.2897 20.4328C42.2897 20.4918 42.2587 20.5428 42.1937 20.5848L40.3467 22.1208L42.3937 24.1128C42.4587 24.1658 42.4907 24.2138 42.4907 24.2568C42.4914 24.2791 42.4875 24.3014 42.4793 24.3222C42.471 24.3429 42.4586 24.3618 42.4427 24.3775C42.4269 24.3933 42.4079 24.4056 42.3871 24.4137C42.3663 24.4219 42.3441 24.4256 42.3217 24.4248H41.9067C41.8467 24.428 41.7867 24.4199 41.7297 24.4008C41.6777 24.3694 41.6297 24.3317 41.5867 24.2888L39.8027 22.5848V24.2408C39.8032 24.2661 39.7984 24.2912 39.7888 24.3146C39.7792 24.338 39.7649 24.3592 39.7467 24.3768C39.7296 24.3932 39.7094 24.4059 39.6872 24.4142C39.665 24.4224 39.6414 24.4261 39.6177 24.4248H39.2427ZM43.3667 24.4248C43.3174 24.4258 43.2693 24.4088 43.2317 24.3768C43.1992 24.3391 43.1817 24.2906 43.1827 24.2408V18.9288C43.1827 18.8758 43.1997 18.8328 43.2317 18.8008C43.2492 18.7828 43.2702 18.7685 43.2935 18.7589C43.3167 18.7493 43.3416 18.7445 43.3667 18.7448H43.7437C43.7677 18.744 43.7916 18.7486 43.8136 18.7583C43.8356 18.768 43.8551 18.7825 43.8707 18.8008C43.8891 18.8165 43.9037 18.8362 43.9134 18.8584C43.9231 18.8805 43.9277 18.9046 43.9267 18.9288V24.2408C43.9273 24.266 43.9227 24.2911 43.9133 24.3145C43.9038 24.3379 43.8897 24.3591 43.8717 24.3768C43.8546 24.3932 43.8344 24.4059 43.8122 24.4142C43.79 24.4224 43.7664 24.4261 43.7427 24.4248H43.3667ZM46.2807 24.5048C46.0291 24.507 45.7802 24.4523 45.5527 24.3448C45.3407 24.2479 45.1565 24.0994 45.0167 23.9128C44.8906 23.7322 44.8235 23.517 44.8247 23.2968C44.8247 22.9448 44.9687 22.6568 45.2567 22.4328C45.5497 22.2028 45.9447 22.0538 46.4407 21.9848L47.6327 21.8168V21.5848C47.6327 21.0408 47.3207 20.7688 46.6967 20.7688C46.4617 20.7688 46.2697 20.8188 46.1207 20.9208C45.9819 21.0059 45.8665 21.1241 45.7847 21.2648C45.7737 21.3049 45.7515 21.3409 45.7207 21.3688C45.6987 21.3898 45.6667 21.4008 45.6247 21.4008H45.2807C45.2336 21.4011 45.188 21.3841 45.1527 21.3528C45.1215 21.3175 45.1044 21.2719 45.1047 21.2248C45.1097 21.0968 45.1687 20.9528 45.2807 20.7928C45.421 20.6088 45.6053 20.463 45.8167 20.3688C46.0567 20.2458 46.3527 20.1848 46.7047 20.1848C47.3017 20.1848 47.7307 20.3258 47.9927 20.6088C48.2537 20.8858 48.3847 21.2328 48.3847 21.6488V24.2408C48.3852 24.2661 48.3804 24.2912 48.3708 24.3146C48.3612 24.338 48.3469 24.3592 48.3287 24.3768C48.3118 24.3931 48.2917 24.4057 48.2697 24.414C48.2477 24.4222 48.2242 24.4259 48.2007 24.4248H47.8327C47.783 24.4261 47.7346 24.409 47.6967 24.3768C47.6645 24.3389 47.6474 24.2905 47.6487 24.2408V23.8968C47.5158 24.0804 47.34 24.2287 47.1367 24.3288C46.9127 24.4458 46.6267 24.5048 46.2807 24.5048ZM46.4487 23.9048C46.7947 23.9048 47.0787 23.7928 47.2967 23.5688C47.5207 23.3388 47.6327 23.0118 47.6327 22.5848V22.3608L46.7047 22.4968C46.3257 22.5498 46.0407 22.6408 45.8487 22.7688C45.6567 22.8918 45.5607 23.0488 45.5607 23.2408C45.5607 23.4538 45.6487 23.6198 45.8247 23.7368C46.0007 23.8488 46.2087 23.9048 46.4487 23.9048ZM50.9747 24.5048C50.6017 24.5048 50.2867 24.4458 50.0307 24.3288C49.8143 24.2316 49.6207 24.0899 49.4627 23.9128C49.3397 23.7578 49.2787 23.6298 49.2787 23.5288C49.2774 23.5057 49.2819 23.4827 49.2916 23.4618C49.3014 23.4408 49.3162 23.4226 49.3347 23.4088C49.371 23.3792 49.4159 23.3623 49.4627 23.3608H49.8227C49.8757 23.3608 49.9237 23.3878 49.9667 23.4408C50.0947 23.5908 50.2327 23.7078 50.3827 23.7928C50.5327 23.8778 50.7327 23.9208 50.9827 23.9208C51.2597 23.9208 51.4837 23.8678 51.6547 23.7608C51.7356 23.7155 51.8027 23.6492 51.8492 23.569C51.8956 23.4887 51.9196 23.3975 51.9187 23.3048C51.9236 23.1902 51.8834 23.0782 51.8067 22.9928C51.7367 22.9078 51.6147 22.8358 51.4387 22.7768C51.1876 22.6906 50.931 22.6211 50.6707 22.5688C50.2067 22.4678 49.8757 22.3208 49.6787 22.1288C49.4867 21.9368 49.3907 21.6888 49.3907 21.3848C49.3907 21.1818 49.4497 20.9898 49.5667 20.8088C49.6897 20.6218 49.8657 20.4728 50.0947 20.3608C50.3572 20.2375 50.6448 20.1772 50.9347 20.1848C51.2757 20.1848 51.5667 20.2408 51.8067 20.3528C52.0467 20.4648 52.2257 20.5978 52.3427 20.7528C52.4657 20.9028 52.5267 21.0278 52.5267 21.1288C52.5271 21.1518 52.5223 21.1745 52.5126 21.1953C52.5029 21.2161 52.4886 21.2344 52.4707 21.2488C52.455 21.2646 52.4363 21.277 52.4157 21.2852C52.395 21.2935 52.3729 21.2974 52.3507 21.2968H52.0147C51.9836 21.297 51.9529 21.2899 51.9251 21.276C51.8973 21.2621 51.8732 21.2418 51.8547 21.2168C51.7868 21.1333 51.7118 21.0557 51.6307 20.9848C51.5546 20.9158 51.4646 20.864 51.3667 20.8328C51.2277 20.7859 51.0814 20.7642 50.9347 20.7688C50.6787 20.7688 50.4817 20.8248 50.3427 20.9368C50.2764 20.9854 50.2228 21.0494 50.1866 21.1232C50.1503 21.1971 50.1325 21.2786 50.1347 21.3608C50.1347 21.4728 50.1647 21.5688 50.2227 21.6488C50.2807 21.7238 50.3927 21.7928 50.5587 21.8568C50.7287 21.9208 50.9747 21.9868 51.2947 22.0568C51.8017 22.1638 52.1587 22.3178 52.3667 22.5208C52.5797 22.7178 52.6867 22.9708 52.6867 23.2808C52.6867 23.5108 52.6197 23.7178 52.4867 23.9048C52.3537 24.0918 52.1567 24.2378 51.8947 24.3448C51.6387 24.4518 51.3317 24.5048 50.9747 24.5048ZM53.8047 24.4248C53.755 24.4261 53.7066 24.409 53.6687 24.3768C53.6365 24.3389 53.6194 24.2905 53.6207 24.2408V18.9288C53.6207 18.8758 53.6367 18.8328 53.6687 18.8008C53.6864 18.7827 53.7075 18.7683 53.7309 18.7587C53.7543 18.7491 53.7794 18.7444 53.8047 18.7448H54.2047C54.2289 18.7439 54.253 18.7484 54.2752 18.7581C54.2973 18.7678 54.317 18.7824 54.3327 18.8008C54.3511 18.8165 54.3657 18.8362 54.3754 18.8584C54.3851 18.8805 54.3897 18.9046 54.3887 18.9288V20.7928C54.5437 20.5958 54.7247 20.4458 54.9327 20.3448C55.1407 20.2378 55.3997 20.1848 55.7087 20.1848C56.2207 20.1848 56.6187 20.3498 56.9007 20.6808C57.1887 21.0058 57.3327 21.4408 57.3327 21.9848V24.2408C57.3332 24.2661 57.3284 24.2912 57.3188 24.3146C57.3092 24.338 57.2949 24.3592 57.2767 24.3768C57.2598 24.3931 57.2397 24.4057 57.2177 24.414C57.1957 24.4222 57.1722 24.4259 57.1487 24.4248H56.7487C56.699 24.4261 56.6506 24.409 56.6127 24.3768C56.5805 24.3389 56.5634 24.2905 56.5647 24.2408V22.0248C56.5647 21.6458 56.4717 21.3528 56.2847 21.1448C56.1037 20.9368 55.8397 20.8328 55.4927 20.8328C55.1567 20.8328 54.8877 20.9398 54.6847 21.1528C54.4877 21.3608 54.3887 21.6518 54.3887 22.0248V24.2408C54.3892 24.2661 54.3844 24.2912 54.3748 24.3146C54.3652 24.338 54.3509 24.3592 54.3327 24.3768C54.3158 24.3931 54.2957 24.4057 54.2737 24.414C54.2517 24.4222 54.2282 24.4259 54.2047 24.4248H53.8047Z" fill="white"/>
</g>
</g>
</g>
<defs>
<clipPath id="clip0_2_2783">
<rect width="80.17" height="23.98" fill="white" transform="translate(0.3927 0.43457)"/>
</clipPath>
<clipPath id="clip1_2_2783">
<rect width="80.17" height="23.98" fill="white" transform="translate(0.3927 0.43457)"/>
</clipPath>
<clipPath id="clip2_2_2783">
<rect width="147" height="44" fill="white" transform="translate(-33.0223 -9.5752)"/>
</clipPath>
</defs>
</svg>
