    <svg width="156" height="55" viewBox="0 0 156 55" fill="none" xmlns="http://www.w3.org/2000/svg">
<rect x="0.0200195" y="0.5" width="155.67" height="54" rx="8" fill="#F2F2F7"/>
<g clip-path="url(#clip0_2_4914)">
<g clip-path="url(#clip1_2_4914)">
<g clip-path="url(#clip2_2_4914)">
<mask id="mask0_2_4914" style="mask-type:luminance" maskUnits="userSpaceOnUse" x="67" y="12" width="21" height="31">
<path d="M87.8565 12.8914H67.3401V42.1087H87.8565V12.8914Z" fill="white"/>
</mask>
<g mask="url(#mask0_2_4914)">
<path fill-rule="evenodd" clip-rule="evenodd" d="M87.2011 25.1076C87.2011 28.7116 86.3777 31.3972 84.7317 33.1473C83.0858 34.8974 80.5434 35.772 77.1152 35.772C73.9125 35.772 71.4821 34.8969 69.8255 33.1473C68.1684 31.3977 67.3396 28.7589 67.3401 25.2309V13.3944C67.3411 13.1168 67.5655 12.8923 67.8426 12.8914H73.6501C73.9276 12.8923 74.1521 13.1168 74.1531 13.3944V25.4894C74.1531 26.9299 74.4195 28.0387 74.9619 28.8207C75.9383 30.115 77.779 30.3726 79.0733 29.3963C79.2676 29.2497 79.4429 29.0797 79.5949 28.8898C80.1252 28.156 80.389 27.0745 80.3876 25.6452V23.3804H87.2011V25.1076Z" fill="#203E7A"/>
<path fill-rule="evenodd" clip-rule="evenodd" d="M86.6755 22.0579H80.3894V13.4178C80.3904 13.127 80.6256 12.8918 80.9158 12.8914H81.8566C81.8586 15.8413 84.2505 18.2318 87.2004 18.2318H87.2019V22.0579H86.6755Z" fill="#203E7A"/>
<path fill-rule="evenodd" clip-rule="evenodd" d="M83.1948 12.8914H86.6746C86.9653 12.8923 87.2005 13.1275 87.201 13.4178V16.9024C84.9883 16.9024 83.1943 15.1085 83.1943 12.8957L83.1948 12.8914Z" fill="#F4821F"/>
<path fill-rule="evenodd" clip-rule="evenodd" d="M68.4815 41.5211C69.2504 41.5211 69.6215 41.0931 69.6215 40.4644V38.9495H69.0712V40.4493C69.0712 40.7765 68.8058 41.0419 68.4786 41.0419C68.1514 41.0419 67.886 40.7765 67.886 40.4493V38.9495H67.3401V40.4693C67.3401 41.0901 67.7111 41.5221 68.4801 41.5221L68.4815 41.5211ZM72.9425 41.4758V41.0025H71.7232L72.9162 39.3805V38.9485H71.0186V39.4223H72.2116L71.0186 41.0395V41.4739L72.9425 41.4758ZM75.5132 41.5211C75.9548 41.5313 76.3644 41.2907 76.5699 40.8998L76.1063 40.6763C75.9914 40.8992 75.7625 41.0405 75.5117 41.0434C75.0535 41.0205 74.7004 40.631 74.7233 40.1727C74.7443 39.7461 75.0851 39.4053 75.5117 39.3843C75.762 39.3887 75.9904 39.5295 76.1063 39.7515L76.5699 39.5241C76.3644 39.1336 75.9544 38.894 75.5132 38.9066C74.7915 38.8852 74.1891 39.4525 74.1672 40.1742C74.1458 40.8958 74.7131 41.4982 75.4348 41.5201C75.4606 41.5211 75.4869 41.5211 75.5127 41.5201L75.5132 41.5211ZM80.2123 41.4758L79.2389 38.9495H78.565L77.5876 41.4758H78.2012L78.3604 41.0478H79.4438L79.5992 41.4758H80.2123ZM79.2958 40.5744H78.508L78.9019 39.4871L79.2958 40.5744ZM83.844 42.1098L82.9169 40.5146C83.2587 40.4323 83.4919 40.1157 83.47 39.7647C83.4866 39.3302 83.1482 38.965 82.7138 38.9485C82.6831 38.9475 82.6525 38.948 82.6218 38.9504H81.4394V41.4768H81.9775V40.5788H82.3714L83.2266 42.1094L83.844 42.1098ZM82.5419 40.106H81.9775V39.4243H82.54C82.7284 39.4043 82.8969 39.5412 82.9169 39.7291C82.9368 39.9171 82.8 40.0861 82.612 40.106C82.5882 40.1084 82.5643 40.1084 82.5404 40.106H82.5419ZM85.8625 41.4773C86.6542 41.4773 87.2035 40.9772 87.2035 40.2161C87.2035 39.455 86.6532 38.951 85.8625 38.951H84.8661V41.4773H85.8625ZM85.8625 41.0039H85.4042V39.4247H85.8625C86.2696 39.3945 86.624 39.7004 86.6542 40.1074C86.6567 40.1435 86.6567 40.18 86.6542 40.2161C86.6718 40.6333 86.3479 40.986 85.9307 41.0035C85.9077 41.0044 85.8844 41.0044 85.861 41.0035L85.8625 41.0039Z" fill="#233C7E"/>
<path fill-rule="evenodd" clip-rule="evenodd" d="M87.8578 38.8993V38.9052C87.8578 39.1652 87.6474 39.3756 87.3878 39.3761C87.1278 39.3761 86.9174 39.1657 86.917 38.9062C86.917 38.6461 87.1274 38.4358 87.3869 38.4353H87.8573L87.8578 38.8993Z" fill="#233C7E"/>
</g>
</g>
</g>
</g>
<defs>
<clipPath id="clip0_2_4914">
<rect width="21" height="32" fill="white" transform="translate(67.3401 11.5)"/>
</clipPath>
<clipPath id="clip1_2_4914">
<rect width="21" height="32" fill="white" transform="translate(67.3401 11.5)"/>
</clipPath>
<clipPath id="clip2_2_4914">
<rect width="21" height="29.2174" fill="white" transform="translate(67.3401 12.8914)"/>
</clipPath>
</defs>
</svg>
