<svg width="156" height="55" viewBox="0 0 156 55" fill="none" xmlns="http://www.w3.org/2000/svg">
<rect x="0.340088" y="0.5" width="155.67" height="54" rx="8" fill="#F2F2F7"/>
<g clip-path="url(#clip0_2_4901)">
<g clip-path="url(#clip1_2_4901)">
<path d="M72.3728 14.3663C77.1118 14.3663 81.8508 14.3829 86.5891 14.3552C87.8904 14.3474 89.1918 14.3402 90.4931 14.3241C90.6041 14.3224 90.7141 14.3385 90.8246 14.3485C91.3537 14.3946 91.4913 14.8176 91.5974 15.2634C92.7166 19.9508 92.3613 24.9429 90.3727 29.3515C89.8424 30.5268 89.1952 31.6339 88.4795 32.7008C87.9171 33.5397 87.3042 34.3409 86.6335 35.0992C86.1334 35.6649 85.6076 36.2051 85.0497 36.7098C83.9998 37.6596 82.8856 38.5263 81.5865 39.1214C80.8975 39.4374 80.1753 39.635 79.4235 39.7404C78.6741 39.846 77.9213 39.8448 77.1695 39.8282C73.0146 39.7382 68.8597 39.8082 64.7048 39.7893C62.5541 39.7798 60.4028 39.7871 58.2521 39.7893C58.0272 39.7893 57.8057 39.7715 57.5936 39.7021C57.1528 39.5589 56.8858 39.1725 56.8608 38.6601C56.8536 38.5146 56.8558 38.3686 56.8558 38.2231C56.8558 30.7678 56.8558 23.3123 56.8558 15.8575C56.8558 15.6443 56.8602 15.4328 56.9019 15.219C57.0024 14.7077 57.4087 14.4029 57.9245 14.3718C58.1038 14.3607 58.2843 14.3657 58.4641 14.3657C63.1004 14.3657 67.736 14.3657 72.3723 14.3646L72.3728 14.3663Z" fill="#2F4653"/>
<path d="M91.4566 34.5896C91.7148 34.5197 91.9246 34.372 92.1217 34.2143C92.9628 33.5426 93.5879 32.6925 94.1214 31.7665C96.0446 28.4266 97.1771 24.6792 97.3992 20.813C97.422 20.4194 97.4242 20.0269 97.4363 19.6338C97.438 19.5755 97.423 19.5133 97.4741 19.4501C97.6267 19.4945 97.7644 19.5694 97.8888 19.6794C99.3772 20.9984 99.6293 23.5033 99.4683 25.3549C99.0863 29.738 96.6663 34.4158 92.7807 36.6787C92.6913 36.7309 92.6008 36.7814 92.5092 36.8303C91.9091 37.1506 91.2856 37.4021 90.6438 37.6175C90.5228 37.658 90.4018 37.6991 90.2819 37.7397C90.811 37.7102 91.5426 37.618 92.3715 37.3455C94.5878 36.6171 96.3532 34.9732 97.579 33.0274C97.8805 32.5488 98.1508 32.0536 98.4151 31.5539C98.4312 31.524 98.4473 31.4923 98.4884 31.4834C98.5372 31.4845 98.5572 31.5234 98.5739 31.5617C99.1896 32.984 99.0308 34.4424 98.1631 35.7277C96.4548 38.2565 92.8451 39.766 89.8599 39.7783C87.1085 39.7894 84.3576 39.786 81.6062 39.7854C81.5196 39.7854 81.388 39.831 81.3642 39.7089C81.3386 39.5789 81.479 39.5944 81.5596 39.5579C85.7339 37.6386 88.8923 34.2904 90.9509 30.2015C92.7396 26.6484 93.6384 22.6268 93.2881 18.6495C93.176 17.3754 92.9394 16.1118 92.5758 14.8854C92.5542 14.8116 92.5236 14.7394 92.5092 14.6639C92.4592 14.3997 92.5375 14.333 92.8079 14.3597C93.4835 14.4258 94.0798 14.6761 94.6111 15.0942C95.6165 15.8853 96.0024 17.3199 96.2344 18.5257C96.6686 20.7841 96.225 23.2857 95.697 25.4953C95.0103 28.3711 93.8511 31.1814 92.1794 33.627C92.0013 33.8879 91.7952 34.1293 91.6038 34.3803C91.5521 34.448 91.5055 34.5191 91.4566 34.5885V34.5896Z" fill="url(#paint0_linear_2_4901)"/>
<path d="M67.667 25.1063C67.6626 24.7516 67.5526 24.3946 67.2395 24.1952C66.9348 24.0016 66.5295 24.0054 66.2896 24.3002C66.2702 24.324 66.2286 24.3646 66.2408 24.3995C66.253 24.4346 66.3285 24.4262 66.3601 24.4423C66.4146 24.4695 66.4362 24.5239 66.4346 24.5822C66.4323 24.65 66.4318 25.2967 66.429 26.1884C65.6446 26.1839 64.8595 26.1789 64.075 26.1745C64.0601 25.9796 64.0545 25.7608 64.0684 25.5232C64.0812 25.3039 64.1095 25.0857 64.1522 24.8703C64.1711 24.776 64.1927 24.6822 64.2172 24.5895C64.2438 24.4873 64.3177 24.3618 64.3099 24.2547C64.3088 24.2402 64.3055 24.2258 64.2966 24.2147C64.2755 24.1886 64.2349 24.193 64.2027 24.2014C64.0029 24.2525 63.8086 24.3591 63.6553 24.4973C63.6082 24.5394 63.4821 24.6594 63.3683 24.8637C63.0663 25.4045 63.0424 26.1706 63.0424 26.1706C63.0269 26.6658 63.0075 27.6696 63.5354 28.7116C63.5354 28.7116 63.9052 29.4422 64.4343 29.6221C64.5386 29.6577 64.5669 29.6343 64.5758 29.6221C64.6169 29.5693 64.5286 29.4783 64.5025 29.4378C64.4542 29.3634 64.4132 29.2846 64.3776 29.2029C64.3043 29.0347 64.2555 28.8565 64.2194 28.6772C64.1089 28.1309 64.0373 27.5779 64.0528 27.02H66.429V29.1169C66.429 29.2557 66.4856 29.3894 66.6138 29.455C66.691 29.4944 66.7788 29.5083 66.8648 29.5188C67.0152 29.5377 67.169 29.5477 67.3178 29.5188C67.405 29.5022 67.4922 29.4705 67.5571 29.41C67.662 29.3129 67.6637 29.1807 67.6637 29.048C67.6637 27.9948 67.6737 26.9418 67.6721 25.8886C67.6721 25.6271 67.6698 25.3661 67.667 25.1047V25.1063Z" fill="url(#paint1_linear_2_4901)"/>
<path d="M64.4117 29.8846C63.4529 29.6043 63.0787 28.5883 62.8739 27.7073C62.8295 27.5152 62.7867 27.3259 62.7612 27.1299C62.6846 26.5376 62.6879 25.8863 62.88 25.3145C62.7334 25.3473 62.6674 25.4733 62.5819 25.5754C62.2693 25.9485 62.2449 26.3843 62.2299 26.8174C62.1944 27.8345 62.5658 28.5578 62.6485 28.7133C62.835 29.0625 63.0382 29.2923 63.0982 29.3583C63.3114 29.5943 63.5257 29.7581 63.69 29.8669C63.5595 29.8347 63.3752 29.7742 63.1781 29.6526C62.9955 29.5399 62.865 29.4144 62.7795 29.3184C62.6557 29.1602 62.5685 29.0208 62.5119 28.922C62.3592 28.6577 62.1694 28.3285 62.0728 27.8872C62.0456 27.7634 62.0272 27.6373 61.9784 27.6324C61.9079 27.6251 61.8285 27.8761 61.8113 27.9299C61.7558 28.1048 61.7419 28.2663 61.7424 28.3519C61.7463 28.685 61.9962 29.3328 62.593 29.7725C62.593 29.7725 63.1148 30.1567 64.0076 30.1862C64.0442 30.1872 64.2601 30.1822 64.4206 30.0673C64.4994 30.0107 64.5516 29.9241 64.4117 29.8836V29.8846Z" fill="url(#paint2_linear_2_4901)"/>
<path d="M62.8797 25.3105L62.8784 25.3145L62.8824 25.3132L62.8797 25.3105Z" fill="url(#paint3_linear_2_4901)"/>
<path d="M62.8804 25.3124L62.8832 25.3153L62.8946 25.2993L62.8804 25.3124Z" fill="url(#paint4_linear_2_4901)"/>
<path d="M79.9368 24.9812C79.9407 24.859 79.9368 24.6781 79.893 24.4605C79.8885 24.4371 79.8829 24.3816 79.8546 24.3172C79.8397 24.2822 79.7975 24.1896 79.6992 24.1262C79.6465 24.0929 79.5876 24.0729 79.5254 24.0735C79.4821 24.0735 79.4388 24.0768 79.3961 24.0768C79.3361 24.0768 79.2762 24.0785 79.2162 24.079C79.0996 24.0802 78.9831 24.0774 78.867 24.0818C78.7626 24.0857 78.6649 24.1212 78.5905 24.1995C78.5022 24.2922 78.4317 24.4244 78.3151 24.7075C78.2957 24.7541 78.2802 24.7941 78.2696 24.8213C78.2252 24.9174 77.5984 26.2764 77.3614 26.6695C77.3442 26.6989 77.3053 26.7616 77.2576 26.7594C77.2092 26.7616 77.171 26.6989 77.1537 26.6695C76.9172 26.2758 76.2898 24.9174 76.2454 24.8213C76.2349 24.7941 76.2194 24.7547 76.1999 24.7075C76.0833 24.4244 76.0128 24.2922 75.9246 24.1995C75.8507 24.1212 75.753 24.0857 75.6481 24.0818C75.5315 24.0779 75.4149 24.0802 75.2989 24.079C75.239 24.079 75.179 24.0774 75.1191 24.0768C75.0757 24.0768 75.0324 24.0741 74.9897 24.0735C74.9275 24.0735 74.8692 24.0929 74.8159 24.1262C74.7176 24.1896 74.6754 24.2822 74.6604 24.3172C74.6321 24.3816 74.6265 24.4371 74.6221 24.4605C74.5788 24.6786 74.5744 24.8596 74.5783 24.9812C74.5328 26.3796 74.4872 27.777 74.4412 29.1755C74.4428 29.1989 74.4472 29.231 74.46 29.2671C74.5316 29.472 74.7915 29.5725 74.9913 29.5752C75.1934 29.578 75.4349 29.4819 75.5204 29.2966C75.5215 29.2943 75.537 29.2582 75.5454 29.2183C75.6048 28.9334 75.6392 26.64 75.652 25.6413C76.1994 26.7628 76.6274 27.601 76.8256 27.9708C76.8656 28.0469 76.9516 28.1995 77.1099 28.2517C77.1554 28.2672 77.2059 28.2756 77.2576 28.2761C77.3091 28.2761 77.3597 28.2672 77.4052 28.2517C77.5635 28.1995 77.6489 28.0469 77.6895 27.9708C77.8871 27.601 78.3157 26.7628 78.8631 25.6413C78.8759 26.6406 78.9103 28.9334 78.9697 29.2183C78.978 29.2582 78.9936 29.2943 78.9946 29.2966C79.0802 29.4819 79.3217 29.578 79.5237 29.5752C79.7242 29.5725 79.9834 29.472 80.0551 29.2671C80.0678 29.231 80.0723 29.1989 80.0739 29.1755C80.0284 27.777 79.9828 26.3796 79.9368 24.9812Z" fill="url(#paint5_linear_2_4901)"/>
<path d="M73.3503 24.2412C73.2366 24.0973 73.0422 24.0918 72.8551 24.0868C72.678 24.0818 72.4527 24.0757 72.3116 24.2323C72.2333 24.3194 72.2117 24.4221 72.205 24.4843C72.2017 25.5164 72.1983 26.5479 72.1951 27.58C72.1967 27.6811 72.1867 27.8715 72.0845 28.0808C71.9769 28.3017 71.8242 28.4272 71.7853 28.4577C71.7853 28.4577 71.5255 28.6631 71.1857 28.6903C71.1518 28.6931 71.1158 28.6942 71.1158 28.6942C71.1069 28.6942 71.098 28.6942 71.0892 28.6948C71.0803 28.6948 71.0714 28.6948 71.0625 28.6942C71.0625 28.6942 71.027 28.6931 70.9925 28.6903C70.6527 28.6626 70.3929 28.4577 70.3929 28.4577C70.3535 28.4266 70.2014 28.3017 70.0937 28.0808C69.9916 27.8715 69.9815 27.6811 69.9833 27.58C69.9799 26.5479 69.9766 25.5164 69.9732 24.4843C69.9665 24.4221 69.9455 24.3194 69.8666 24.2323C69.7257 24.0757 69.5002 24.0818 69.3231 24.0868C69.1366 24.0918 68.9417 24.0973 68.8279 24.2412C68.7385 24.3539 68.7457 24.4932 68.753 24.5537V27.7937C68.753 28.0952 68.8396 28.4943 69.1288 28.8736C69.4536 29.2994 69.9149 29.4892 70.057 29.542C70.3452 29.6491 70.6289 29.6791 70.7155 29.6874C70.8659 29.7024 70.9941 29.7029 71.0892 29.7001C71.1841 29.7029 71.3123 29.7024 71.4627 29.6874C71.5493 29.6785 71.8331 29.6486 72.1212 29.542C72.2633 29.4892 72.7246 29.2994 73.0494 28.8736C73.3381 28.4943 73.4253 28.0952 73.4253 27.7937V24.5537C73.4325 24.4932 73.4397 24.3539 73.3503 24.2412Z" fill="url(#paint6_linear_2_4901)"/>
<path d="M86.2064 25.7982C86.0498 25.278 85.73 24.8194 85.2959 24.493C84.8034 24.1232 84.1928 23.9295 83.5793 23.915C82.9658 23.9295 82.3551 24.1232 81.8627 24.493C81.428 24.8194 81.1083 25.278 80.9522 25.7982C80.5053 27.2916 81.1776 29.197 82.7865 29.6183C83.0464 29.686 83.3134 29.7149 83.5793 29.7078C83.8458 29.7149 84.1129 29.686 84.3721 29.6183C85.9809 29.197 86.6533 27.2916 86.2064 25.7982ZM85.0117 27.4653C84.8435 28.1727 84.3737 28.9327 83.5787 28.941C82.7837 28.9327 82.3141 28.1727 82.1458 27.4653C81.9837 26.7842 82.0137 25.9819 82.3951 25.374C82.6594 24.9527 83.1091 24.7034 83.5782 24.7001C84.0479 24.7034 84.4969 24.9533 84.7612 25.374C85.1427 25.9819 85.1726 26.7842 85.0105 27.4653H85.0117Z" fill="url(#paint7_linear_2_4901)"/>
</g>
</g>
<defs>
<linearGradient id="paint0_linear_2_4901" x1="79.3478" y1="30.9505" x2="100.012" y2="24.607" gradientUnits="userSpaceOnUse">
<stop offset="0.33" stop-color="#9C8837"/>
<stop offset="0.56" stop-color="#F7E59E"/>
<stop offset="0.6" stop-color="#F0DE96"/>
<stop offset="0.67" stop-color="#DECB80"/>
<stop offset="0.75" stop-color="#C0AC5D"/>
<stop offset="0.79" stop-color="#B39F4D"/>
</linearGradient>
<linearGradient id="paint1_linear_2_4901" x1="66.53" y1="27.4614" x2="62.7243" y2="24.5816" gradientUnits="userSpaceOnUse">
<stop offset="0.33" stop-color="#9C8837"/>
<stop offset="0.56" stop-color="#F7E59E"/>
<stop offset="0.6" stop-color="#F0DE96"/>
<stop offset="0.67" stop-color="#DECB80"/>
<stop offset="0.75" stop-color="#C0AC5D"/>
<stop offset="0.79" stop-color="#B39F4D"/>
</linearGradient>
<linearGradient id="paint2_linear_2_4901" x1="65.1085" y1="29.3389" x2="61.3028" y2="26.4593" gradientUnits="userSpaceOnUse">
<stop offset="0.33" stop-color="#9C8837"/>
<stop offset="0.56" stop-color="#F7E59E"/>
<stop offset="0.6" stop-color="#F0DE96"/>
<stop offset="0.67" stop-color="#DECB80"/>
<stop offset="0.75" stop-color="#C0AC5D"/>
<stop offset="0.79" stop-color="#B39F4D"/>
</linearGradient>
<linearGradient id="paint3_linear_2_4901" x1="66.8813" y1="28.3411" x2="62.3408" y2="24.9047" gradientUnits="userSpaceOnUse">
<stop offset="0.33" stop-color="#9C8837"/>
<stop offset="0.56" stop-color="#F7E59E"/>
<stop offset="0.6" stop-color="#F0DE96"/>
<stop offset="0.67" stop-color="#DECB80"/>
<stop offset="0.75" stop-color="#C0AC5D"/>
<stop offset="0.79" stop-color="#B39F4D"/>
</linearGradient>
<linearGradient id="paint4_linear_2_4901" x1="66.3312" y1="27.9125" x2="62.4231" y2="24.9543" gradientUnits="userSpaceOnUse">
<stop offset="0.33" stop-color="#9C8837"/>
<stop offset="0.56" stop-color="#F7E59E"/>
<stop offset="0.6" stop-color="#F0DE96"/>
<stop offset="0.67" stop-color="#DECB80"/>
<stop offset="0.75" stop-color="#C0AC5D"/>
<stop offset="0.79" stop-color="#B39F4D"/>
</linearGradient>
<linearGradient id="paint5_linear_2_4901" x1="80.6274" y1="28.6348" x2="74.7131" y2="25.498" gradientUnits="userSpaceOnUse">
<stop offset="0.33" stop-color="#9C8837"/>
<stop offset="0.56" stop-color="#F7E59E"/>
<stop offset="0.6" stop-color="#F0DE96"/>
<stop offset="0.67" stop-color="#DECB80"/>
<stop offset="0.75" stop-color="#C0AC5D"/>
<stop offset="0.79" stop-color="#B39F4D"/>
</linearGradient>
<linearGradient id="paint6_linear_2_4901" x1="74.001" y1="28.3455" x2="68.0868" y2="24.6426" gradientUnits="userSpaceOnUse">
<stop offset="0.33" stop-color="#9C8837"/>
<stop offset="0.56" stop-color="#F7E59E"/>
<stop offset="0.6" stop-color="#F0DE96"/>
<stop offset="0.67" stop-color="#DECB80"/>
<stop offset="0.75" stop-color="#C0AC5D"/>
<stop offset="0.79" stop-color="#B39F4D"/>
</linearGradient>
<linearGradient id="paint7_linear_2_4901" x1="87.7508" y1="29.2486" x2="80.3971" y2="24.9804" gradientUnits="userSpaceOnUse">
<stop offset="0.33" stop-color="#9C8837"/>
<stop offset="0.56" stop-color="#F7E59E"/>
<stop offset="0.6" stop-color="#F0DE96"/>
<stop offset="0.67" stop-color="#DECB80"/>
<stop offset="0.75" stop-color="#C0AC5D"/>
<stop offset="0.79" stop-color="#B39F4D"/>
</linearGradient>
<clipPath id="clip0_2_4901">
<rect width="46" height="28" fill="white" transform="translate(55.1702 13.5)"/>
</clipPath>
<clipPath id="clip1_2_4901">
<rect width="46" height="28" fill="white" transform="translate(55.1702 13.5)"/>
</clipPath>
</defs>
</svg>
