<svg width="23" height="36" viewBox="0 0 23 36" fill="none" xmlns="http://www.w3.org/2000/svg">
<path d="M11.565 11.4102C14.7642 11.4102 17.4048 14.0508 17.4048 17.25C17.4048 20.5 14.7642 23.0898 11.565 23.0898C8.315 23.0898 5.72516 20.5 5.72516 17.25C5.72516 14.0508 8.315 11.4102 11.565 11.4102ZM11.565 21.0586C13.647 21.0586 15.3228 19.3828 15.3228 17.25C15.3228 15.168 13.647 13.4922 11.565 13.4922C9.43219 13.4922 7.75641 15.168 7.75641 17.25C7.75641 19.3828 9.48297 21.0586 11.565 21.0586ZM18.9791 11.207C18.9791 11.9688 18.3697 12.5781 17.608 12.5781C16.8463 12.5781 16.2369 11.9688 16.2369 11.207C16.2369 10.4453 16.8463 9.83594 17.608 9.83594C18.3697 9.83594 18.9791 10.4453 18.9791 11.207ZM22.8384 12.5781C22.94 14.457 22.94 20.0938 22.8384 21.9727C22.7369 23.8008 22.3306 25.375 21.0103 26.7461C19.69 28.0664 18.065 28.4727 16.2369 28.5742C14.358 28.6758 8.72125 28.6758 6.84235 28.5742C5.01422 28.4727 3.44 28.0664 2.06891 26.7461C0.748596 25.375 0.342346 23.8008 0.240784 21.9727C0.139221 20.0938 0.139221 14.457 0.240784 12.5781C0.342346 10.75 0.748596 9.125 2.06891 7.80469C3.44 6.48438 5.01422 6.07812 6.84235 5.97656C8.72125 5.875 14.358 5.875 16.2369 5.97656C18.065 6.07812 19.69 6.48438 21.0103 7.80469C22.3306 9.125 22.7369 10.75 22.8384 12.5781ZM20.4009 23.9531C21.0103 22.4805 20.858 18.9258 20.858 17.25C20.858 15.625 21.0103 12.0703 20.4009 10.5469C19.9947 9.58203 19.233 8.76953 18.2681 8.41406C16.7447 7.80469 13.19 7.95703 11.565 7.95703C9.88922 7.95703 6.33453 7.80469 4.86188 8.41406C3.84625 8.82031 3.08453 9.58203 2.67828 10.5469C2.06891 12.0703 2.22125 15.625 2.22125 17.25C2.22125 18.9258 2.06891 22.4805 2.67828 23.9531C3.08453 24.9688 3.84625 25.7305 4.86188 26.1367C6.33453 26.7461 9.88922 26.5938 11.565 26.5938C13.19 26.5938 16.7447 26.7461 18.2681 26.1367C19.233 25.7305 20.0455 24.9688 20.4009 23.9531Z" fill="#64748B"/>
</svg>
