<svg width="157" height="55" viewBox="0 0 157 55" fill="none" xmlns="http://www.w3.org/2000/svg">
<rect x="0.669922" y="0.5" width="155.67" height="54" rx="8" fill="#F2F2F7"/>
<g clip-path="url(#clip0_2_4888)">
<g clip-path="url(#clip1_2_4888)">
<g clip-path="url(#clip2_2_4888)">
<mask id="mask0_2_4888" style="mask-type:luminance" maskUnits="userSpaceOnUse" x="44" y="17" width="69" height="21">
<path d="M112.5 17.5H44.5V37.5H112.5V17.5Z" fill="white"/>
</mask>
<g mask="url(#mask0_2_4888)">
<path d="M64.0844 29.9996C64.0844 29.9996 63.539 31.152 61.6129 31.152C61.1515 31.1714 60.697 31.0424 60.309 30.7861C59.9629 30.5157 59.7794 30.0845 59.8144 29.6444C59.7689 29.0488 60.0975 28.492 60.6324 28.2357C61.4102 27.9353 62.2421 27.7904 63.0793 27.8204C63.5652 27.7444 64.0214 28.0855 64.0948 28.5822C64.1053 28.6281 64.1053 28.6723 64.1053 28.7218L64.0844 29.9996ZM66.9578 23.5715C66.8529 23.3206 66.7096 23.0855 66.5313 22.8752C66.3531 22.6843 66.1503 22.5146 65.9266 22.3786C65.6889 22.2124 65.4319 22.0728 65.168 21.9579C64.8954 21.8519 64.614 21.767 64.3308 21.7016C64.004 21.6256 63.6771 21.5814 63.3398 21.5567C62.9885 21.5214 62.5865 21.5019 62.146 21.5019C59.1974 21.5019 57.5229 22.4439 57.1122 24.3227C57.0475 24.5878 57.2066 24.8582 57.474 24.9289C57.4985 24.9342 57.5229 24.9395 57.5492 24.9395H59.3617C59.8563 24.9395 59.8563 24.7893 60.0451 24.358C60.129 24.123 60.2723 23.918 60.4716 23.7677C60.933 23.4673 61.4818 23.3224 62.0324 23.3612C62.548 23.3117 63.0636 23.4372 63.4883 23.7271C63.8204 24.0381 64.0127 24.4641 64.0284 24.9201C64.0284 25.5369 63.8397 25.9469 63.0828 25.9469C61.2738 25.8816 59.3372 26.0866 58.2465 26.7228C57.1524 27.3998 56.497 28.6122 56.5372 29.9095C56.5214 30.4061 56.621 30.901 56.829 31.3517C57.0178 31.7423 57.2992 32.0834 57.6418 32.3485C58.0036 32.649 58.4196 32.8699 58.8705 33.0007C59.3757 33.1368 59.8965 33.2057 60.4209 33.2004C61.1253 33.211 61.8279 33.1103 62.5026 32.8999C63.0968 32.6543 63.6614 32.3344 64.177 31.9438V32.2937C64.177 32.6401 64.2819 32.9494 64.6716 32.9494H66.7725C67.199 32.9494 67.2969 32.6437 67.2969 32.2637V25.7207C67.2969 25.3142 67.2672 24.9042 67.213 24.503C67.1658 24.1831 67.0819 23.872 66.9578 23.5715ZM69.8715 34.8847C69.7072 34.8794 69.5446 34.8653 69.3803 34.8441C69.1776 34.814 68.7913 34.8441 68.7913 35.194V36.6928C68.7913 37.269 69.0692 37.3096 69.2125 37.3485C69.6687 37.4492 70.1389 37.4987 70.6056 37.4987C71.1596 37.5146 71.7102 37.398 72.2101 37.1629C72.6715 36.9279 73.0823 36.6027 73.4144 36.2015C73.7902 35.7649 74.1083 35.2842 74.36 34.7628C74.6379 34.2114 74.8948 33.5998 75.143 32.93L75.4296 32.1329C74.8563 32.7091 72.3237 35.1251 69.8715 34.8847ZM78.4622 21.7776H76.5343C76.1585 21.7529 75.8159 22.0074 75.7268 22.3839L73.4878 28.621C73.4878 28.621 71.511 22.9353 71.3624 22.4987C71.2733 22.0781 70.9115 21.7776 70.4902 21.7723H68.7162C68.0817 21.7723 68.0817 22.2725 68.1656 22.4687C68.2495 22.6649 70.6772 29.3881 71.6281 31.9632C71.7766 32.2831 71.8815 32.6189 71.9409 32.9653C71.8763 33.3064 71.7469 33.6316 71.5651 33.9215C71.49 34.047 71.4061 34.1619 71.317 34.2714C73.1452 33.72 75.2706 31.7158 76.335 29.5525C77.4152 26.5567 78.8327 22.5588 78.8974 22.3538C78.969 22.0392 78.969 21.7776 78.4622 21.7776ZM47.7595 30.4644C46.5412 30.0191 45.4313 29.3121 44.505 28.3948V32.3185C44.4648 32.6242 44.6728 32.9088 44.9751 32.9494C44.9856 32.9494 44.9909 32.9547 44.9996 32.9547H47.2334C47.8276 32.9547 47.7577 32.3132 47.7577 32.3132V30.4644H47.7595ZM52.7443 23.6511C52.5765 23.9515 52.3179 24.1919 52.0102 24.3474C51.6729 24.5083 51.3163 24.6037 50.9458 24.6338C50.5403 24.6832 50.133 24.7098 49.7275 24.7098H48.3013C47.964 24.7098 47.7507 24.4288 47.7507 24.0187V20.6659C47.7315 20.3902 47.9395 20.1551 48.2122 20.1357C48.2419 20.1357 48.2716 20.1357 48.3013 20.141H49.7275C50.189 20.141 50.6242 20.1516 51.0314 20.1817C51.3985 20.1976 51.755 20.2877 52.0871 20.4415C52.3895 20.5776 52.6464 20.8073 52.8107 21.0972C53.0048 21.4878 53.0887 21.9243 53.0642 22.3591C53.0747 22.8098 52.9646 23.2516 52.7478 23.6476V23.6511H52.7443ZM55.6423 19.4782C55.4045 19.0876 55.0917 18.7465 54.7264 18.4761C54.3593 18.2198 53.9538 18.0254 53.5274 17.8893C53.0624 17.7338 52.5853 17.6331 52.1011 17.5836C51.5313 17.5288 50.9615 17.4987 50.3865 17.504H45.4453C44.9699 17.4581 44.5539 17.8098 44.5085 18.2852C44.505 18.2958 44.505 18.3064 44.505 18.3153V18.3559V26.4772C45.1936 27.9653 46.328 29.1884 47.756 29.9749V28.3471C47.7105 27.8204 48.0933 27.3556 48.6177 27.3043H50.1033C52.1256 27.3043 53.6707 26.8784 54.7316 26.0212C55.7961 25.164 56.3361 23.8968 56.3571 22.2142C56.3571 21.7281 56.3029 21.2421 56.1893 20.772C56.074 20.3142 55.8904 19.8794 55.6423 19.4782Z" fill="#323232"/>
<path d="M112.13 25.7924C112.625 26.5983 112.625 27.6252 112.13 28.4329C111.635 29.1946 108.938 32.1003 108.052 33.037C107.28 33.8429 106.24 34.6648 105.203 34.6648H83.8044C80.9064 34.6648 80.7334 33.6626 80.7334 31.4375V22.3441C80.7334 20.0589 81.4028 19.3926 83.3849 19.3926H105.254C106.28 19.3926 107.191 19.9228 108.222 20.9903C109.117 21.9094 111.773 25.2515 112.13 25.7924Z" fill="#53BDBD"/>
<path d="M85.5921 22.9064V22.8516C85.5921 22.5617 85.5921 22.2754 85.0974 22.2754H83.3038C82.8825 22.2754 82.8633 22.5052 82.8633 22.8622V25.2605C83.5713 24.2637 84.5083 23.4578 85.5921 22.9064Z" fill="white"/>
<path d="M97.611 31.5845V31.459V25.6672C97.611 23.2476 96.5501 22.0352 94.4352 22.0352C93.8462 22.0405 93.2711 22.2154 92.7747 22.5353C92.2242 22.8817 91.74 23.3112 91.3275 23.8132C91.1388 23.2723 90.777 22.8057 90.2963 22.5C89.751 22.1942 89.1322 22.0493 88.5135 22.074C87.5976 22.0793 86.7097 22.3851 85.9861 22.9507C85.8271 23.1115 82.8557 25.4498 82.8557 27.8906V31.5933C82.8557 31.7082 82.7963 32.1589 83.2962 32.1589H85.1594C85.7397 32.1589 85.6837 31.7736 85.6837 31.6127V25.6177C85.9966 25.1917 86.6346 24.179 87.685 24.179C88.0276 24.149 88.3632 24.3045 88.5572 24.5944C88.7652 25.0203 88.8596 25.4957 88.8246 25.9729V30.6477V31.6039C88.8246 31.7188 88.7652 32.1695 89.2598 32.1695H91.1073C91.6823 32.1695 91.6282 31.7842 91.6282 31.6233V31.4926V25.5965C91.9655 25.1705 92.6192 24.1578 93.6294 24.1578C93.9755 24.1278 94.3129 24.2886 94.5156 24.5731C94.7288 24.9991 94.8232 25.4745 94.7883 25.9517V30.6265V31.5827C94.7883 31.6976 94.7288 32.1483 95.2287 32.1483H97.0919C97.681 32.12 97.611 31.7382 97.611 31.5845Z" fill="white"/>
<path d="M103.577 24.0035C102.443 24.0035 101.679 24.8006 101.511 26.1085H105.564C105.459 24.9596 104.846 24.0035 103.577 24.0035ZM107.887 29.2332C107.239 30.9971 105.529 32.1336 103.666 32.0346C100.817 32.0346 98.9189 30.0763 98.9189 27.1353C98.9189 24.1997 100.896 22.1406 103.567 22.1406C106.237 22.1406 108.017 24.0088 108.13 27.0257C108.13 27.4057 108.036 27.7468 107.555 27.7468H101.516C101.556 29.3605 102.319 30.246 103.687 30.246C104.425 30.2654 105.11 29.8448 105.437 29.1784C105.566 28.9876 105.779 28.878 106.007 28.8833H107.562C107.735 28.8727 107.878 29.0088 107.889 29.1837C107.889 29.2032 107.889 29.2297 107.884 29.2544L107.887 29.2332Z" fill="white"/>
</g>
</g>
</g>
</g>
<defs>
<clipPath id="clip0_2_4888">
<rect width="68" height="20" fill="white" transform="translate(44.5 17.5)"/>
</clipPath>
<clipPath id="clip1_2_4888">
<rect width="68" height="20" fill="white" transform="translate(44.5 17.5)"/>
</clipPath>
<clipPath id="clip2_2_4888">
<rect width="68" height="20" fill="white" transform="translate(44.5 17.5)"/>
</clipPath>
</defs>
</svg>
