<svg width="156" height="55" viewBox="0 0 156 55" fill="none" xmlns="http://www.w3.org/2000/svg">
<rect y="0.5" width="155.67" height="54" rx="8" fill="#F2F2F7"/>
<g clip-path="url(#clip0_2_4875)">
<g clip-path="url(#clip1_2_4875)">
<g clip-path="url(#clip2_2_4875)">
<mask id="mask0_2_4875" style="mask-type:luminance" maskUnits="userSpaceOnUse" x="43" y="17" width="69" height="21">
<path d="M111.509 17.6428H43.3301V37.3571H111.509V17.6428Z" fill="white"/>
</mask>
<g mask="url(#mask0_2_4875)">
<path fill-rule="evenodd" clip-rule="evenodd" d="M53.0967 17.6428C51.1647 17.6428 49.277 18.2208 47.6706 19.3037C46.0641 20.3865 44.8122 21.9261 44.0733 23.7272C43.3344 25.529 43.1409 27.5107 43.5176 29.4227C43.8943 31.3347 44.825 33.091 46.1902 34.4698C47.5564 35.8485 49.2966 36.7869 51.1911 37.1671C53.0856 37.5472 55.0492 37.352 56.8347 36.6063C58.6192 35.8605 60.1447 34.597 61.2176 32.9758C62.2906 31.3545 62.8633 29.4494 62.8633 27.4995C62.8633 24.8848 61.8347 22.3777 60.0024 20.5293C58.1718 18.681 55.6875 17.6428 53.0967 17.6428ZM51.9743 21.0669C52.3442 21.0342 52.7175 21.0178 53.0967 21.0178C53.4759 21.0178 53.8492 21.0178 54.2191 21.0669V26.3315H51.9684L51.9743 21.0669ZM59.3871 27.9348C59.3871 29.6189 58.724 31.2333 57.5445 32.4236C56.3651 33.614 54.7646 34.2832 53.0967 34.2832C51.4289 34.2832 49.8284 33.614 48.6489 32.4236C47.4694 31.2333 46.8064 29.618 46.8064 27.9348V24.134C47.6237 23.8596 48.458 23.6429 49.3051 23.4846V27.9115C49.3051 31.0956 50.6397 32.7607 53.0967 32.7607C55.5537 32.7607 56.8917 31.0956 56.8917 27.9115V23.4846C57.738 23.642 58.5715 23.8587 59.3871 24.134V27.9348Z" fill="#7000FF"/>
<path d="M78.2332 23.4897H85.7618V25.4146L81.2016 29.55V29.5827H85.9195V31.5076H78.0083V29.5827L82.5686 25.4473V25.4146H78.2332V23.4897Z" fill="#7000FF"/>
<path d="M74.0647 27.885V23.4839H76.3512V28.2419C76.3512 31.2729 73.9488 31.666 72.0483 31.666C70.1478 31.666 67.7419 31.4158 67.7419 28.2419V23.4839H70.0217V27.885C70.0217 29.281 70.9353 29.6147 72.0474 29.6147C73.1596 29.6147 74.0647 29.2998 74.0647 27.885Z" fill="#7000FF"/>
<path d="M94.0305 23.4839V27.885C94.0305 29.2998 93.1271 29.6147 92.0141 29.6147C90.9011 29.6147 89.9943 29.2904 89.9943 27.885V23.4839H87.7112V28.2419C87.7112 31.4165 90.117 31.666 92.0176 31.666C93.918 31.666 96.3171 31.2729 96.3171 28.2419V23.4839H94.0305Z" fill="#7000FF"/>
<path d="M104.84 24.1959C105.634 23.6196 106.59 23.3169 107.567 23.3324C110.433 23.3324 111.507 25.179 111.507 26.8536V31.5111H109.237V27.0772C109.237 26.3565 108.889 25.3828 107.629 25.3828C106.584 25.3828 106.037 26.1294 106.037 26.814V31.5102H103.731V26.814C103.731 26.1294 103.168 25.3828 102.122 25.3828C100.859 25.3828 100.514 26.3436 100.514 27.0772V31.5111H98.2278V26.8536C98.2278 25.179 99.2019 23.3324 102.068 23.3324C103.059 23.3203 104.028 23.6222 104.84 24.1959Z" fill="#7000FF"/>
</g>
</g>
</g>
</g>
<defs>
<clipPath id="clip0_2_4875">
<rect width="69" height="20" fill="white" transform="translate(43.3301 17.5)"/>
</clipPath>
<clipPath id="clip1_2_4875">
<rect width="69" height="20" fill="white" transform="translate(43.3301 17.5)"/>
</clipPath>
<clipPath id="clip2_2_4875">
<rect width="69" height="19.7143" fill="white" transform="translate(43.3301 17.6428)"/>
</clipPath>
</defs>
</svg>
