<svg width="81" height="25" viewBox="0 0 81 25" fill="none" xmlns="http://www.w3.org/2000/svg">
<g clip-path="url(#clip0_2_2795)">
<g clip-path="url(#clip1_2_2795)">
<g clip-path="url(#clip2_2_2795)">
<path d="M9.00771 23.5048C8.30971 23.5048 7.76771 23.3238 7.38371 22.9608C7.0057 22.5928 6.80571 22.0408 6.78371 21.3048C6.77769 21.0782 6.77502 20.8515 6.7757 20.6248C6.7757 20.3318 6.77871 20.1078 6.78371 19.9528C6.80571 19.2328 7.0137 18.6858 7.4077 18.3128C7.8027 17.9338 8.3357 17.7448 9.00771 17.7448C9.67471 17.7448 10.2057 17.9348 10.5997 18.3128C10.9947 18.6858 11.2027 19.2328 11.2237 19.9528C11.2347 20.2628 11.2397 20.4858 11.2397 20.6248C11.2397 20.7578 11.2347 20.9848 11.2237 21.3048C11.2037 22.0408 10.9997 22.5928 10.6157 22.9608C10.2377 23.3238 9.70171 23.5048 9.00771 23.5048ZM9.00771 22.8248C9.42971 22.8248 9.76571 22.6968 10.0157 22.4408C10.2667 22.1848 10.4027 21.7928 10.4237 21.2648C10.4347 20.9448 10.4397 20.7318 10.4397 20.6248C10.4397 20.5078 10.4347 20.2948 10.4237 19.9848C10.4037 19.4568 10.2637 19.0648 10.0077 18.8088C9.75771 18.5528 9.42371 18.4248 9.00771 18.4248C8.58771 18.4248 8.24771 18.5528 7.99171 18.8088C7.74171 19.0648 7.60571 19.4568 7.58371 19.9848C7.57871 20.1398 7.57571 20.3528 7.57571 20.6248C7.57571 20.8918 7.57871 21.1048 7.58371 21.2648C7.60571 21.7928 7.74171 22.1848 7.99171 22.4408C8.24771 22.6968 8.58671 22.8248 9.00771 22.8248ZM12.4867 23.4248C12.437 23.4261 12.3886 23.409 12.3507 23.3768C12.3182 23.3391 12.3007 23.2906 12.3017 23.2408V19.4568C12.3017 19.4038 12.3177 19.3578 12.3497 19.3208C12.3675 19.3025 12.3888 19.2881 12.4124 19.2785C12.4359 19.2689 12.4612 19.2642 12.4867 19.2648H12.8537C12.9077 19.2648 12.9537 19.2838 12.9897 19.3208C13.0078 19.3384 13.0222 19.3596 13.0318 19.383C13.0414 19.4064 13.0462 19.4315 13.0457 19.4568V19.8088C13.2657 19.4458 13.6377 19.2648 14.1657 19.2648H14.4787C14.5027 19.264 14.5266 19.2686 14.5486 19.2783C14.5706 19.288 14.5901 19.3025 14.6057 19.3208C14.6241 19.3365 14.6387 19.3562 14.6484 19.3784C14.6581 19.4005 14.6627 19.4246 14.6617 19.4488V19.7768C14.6627 19.801 14.6581 19.8251 14.6484 19.8472C14.6387 19.8694 14.6241 19.8891 14.6057 19.9048C14.5889 19.921 14.5689 19.9335 14.5471 19.9418C14.5253 19.95 14.502 19.9538 14.4787 19.9528H13.9987C13.7107 19.9528 13.4837 20.0378 13.3187 20.2088C13.1527 20.3738 13.0707 20.6008 13.0707 20.8888V23.2408C13.0712 23.2661 13.0664 23.2912 13.0568 23.3146C13.0472 23.338 13.0328 23.3592 13.0147 23.3768C12.9768 23.409 12.9284 23.4261 12.8787 23.4248H12.4867ZM18.2637 24.9448C18.2384 24.9453 18.2133 24.9405 18.1899 24.9309C18.1665 24.9213 18.1453 24.9069 18.1277 24.8888C18.1114 24.8718 18.0988 24.8518 18.0905 24.8297C18.0823 24.8077 18.0786 24.7843 18.0797 24.7608V22.9048C17.7697 23.3048 17.3377 23.5048 16.7837 23.5048C16.2287 23.5048 15.8097 23.3288 15.5277 22.9768C15.2447 22.6198 15.0957 22.1668 15.0797 21.6168L15.0717 21.3448L15.0797 21.0728C15.0957 20.5178 15.2417 20.0648 15.5197 19.7128C15.8017 19.3608 16.2237 19.1848 16.7837 19.1848C17.3597 19.1848 17.7967 19.3898 18.0957 19.8008V19.4488C18.0957 19.3958 18.1117 19.3528 18.1437 19.3208C18.1613 19.3027 18.1825 19.2883 18.2059 19.2787C18.2293 19.2691 18.2544 19.2643 18.2797 19.2648H18.6477C18.6719 19.2639 18.696 19.2684 18.7181 19.2781C18.7403 19.2878 18.76 19.3024 18.7757 19.3208C18.7941 19.3365 18.8087 19.3562 18.8184 19.3784C18.8281 19.4005 18.8327 19.4246 18.8317 19.4488V24.7608C18.8327 24.785 18.8281 24.8091 18.8184 24.8312C18.8087 24.8534 18.7941 24.8731 18.7757 24.8888C18.76 24.9072 18.7403 24.9218 18.7181 24.9315C18.696 24.9412 18.6719 24.9458 18.6477 24.9448H18.2637ZM16.9517 22.8568C17.3087 22.8568 17.5837 22.7398 17.7757 22.5048C17.9677 22.2698 18.0687 21.9948 18.0797 21.6808C18.0847 21.6218 18.0877 21.5178 18.0877 21.3688C18.0877 21.2188 18.0847 21.1188 18.0797 21.0648C18.0719 20.752 17.9655 20.4496 17.7757 20.2008C17.5937 19.9558 17.3197 19.8328 16.9517 19.8328C16.5727 19.8328 16.2957 19.9498 16.1197 20.1848C15.9487 20.4198 15.8557 20.7288 15.8397 21.1128L15.8317 21.3448C15.8317 22.3528 16.2047 22.8568 16.9517 22.8568ZM21.1817 23.5048C20.9297 23.5072 20.6805 23.4524 20.4527 23.3448C20.2407 23.2479 20.0564 23.0993 19.9167 22.9128C19.7906 22.7322 19.7235 22.517 19.7247 22.2968C19.7247 21.9448 19.8687 21.6568 20.1567 21.4328C20.4507 21.2028 20.8447 21.0538 21.3407 20.9848L22.5327 20.8168V20.5848C22.5327 20.0408 22.2207 19.7688 21.5967 19.7688C21.3627 19.7688 21.1707 19.8188 21.0207 19.9208C20.8819 20.0059 20.7665 20.1241 20.6847 20.2648C20.6737 20.3049 20.6515 20.3409 20.6207 20.3688C20.5997 20.3898 20.5677 20.4008 20.5247 20.4008H20.1807C20.1336 20.4011 20.088 20.384 20.0527 20.3528C20.0215 20.3175 20.0044 20.2719 20.0047 20.2248C20.0107 20.0968 20.0687 19.9528 20.1807 19.7928C20.2987 19.6278 20.4767 19.4858 20.7167 19.3688C20.9567 19.2458 21.2527 19.1848 21.6047 19.1848C22.2027 19.1848 22.6317 19.3258 22.8927 19.6088C23.1547 19.8858 23.2847 20.2328 23.2847 20.6488V23.2408C23.2852 23.2661 23.2804 23.2912 23.2708 23.3146C23.2612 23.338 23.2468 23.3592 23.2287 23.3768C23.2118 23.3931 23.1917 23.4057 23.1696 23.414C23.1476 23.4222 23.1242 23.4259 23.1007 23.4248H22.7327C22.683 23.4261 22.6346 23.409 22.5967 23.3768C22.5645 23.3389 22.5474 23.2905 22.5487 23.2408V22.8968C22.4317 23.0668 22.2607 23.2118 22.0367 23.3288C21.8127 23.4458 21.5277 23.5048 21.1817 23.5048ZM21.3487 22.9048C21.6957 22.9048 21.9787 22.7928 22.1967 22.5688C22.4207 22.3388 22.5327 22.0118 22.5327 21.5848V21.3608L21.6047 21.4968C21.2267 21.5498 20.9407 21.6408 20.7487 21.7688C20.5567 21.8918 20.4607 22.0488 20.4607 22.2408C20.4607 22.4538 20.5487 22.6198 20.7247 22.7368C20.9007 22.8488 21.1087 22.9048 21.3487 22.9048ZM24.6267 23.4248C24.577 23.4261 24.5286 23.409 24.4907 23.3768C24.4585 23.3389 24.4414 23.2905 24.4427 23.2408V17.9288C24.4427 17.8758 24.4587 17.8328 24.4907 17.8008C24.5083 17.7827 24.5295 17.7683 24.5529 17.7587C24.5763 17.7491 24.6014 17.7443 24.6267 17.7448H25.0027C25.0269 17.7439 25.051 17.7484 25.0731 17.7581C25.0953 17.7678 25.115 17.7824 25.1307 17.8008C25.1491 17.8165 25.1637 17.8362 25.1734 17.8584C25.1831 17.8805 25.1877 17.9046 25.1867 17.9288V23.2408C25.1872 23.2661 25.1824 23.2912 25.1728 23.3146C25.1632 23.338 25.1488 23.3592 25.1307 23.3768C25.1138 23.3931 25.0937 23.4057 25.0716 23.414C25.0496 23.4222 25.0262 23.4259 25.0027 23.4248H24.6267ZM26.5007 18.4888C26.451 18.4901 26.4026 18.473 26.3647 18.4408C26.3325 18.4029 26.3154 18.3545 26.3167 18.3048V17.8728C26.3167 17.8198 26.3327 17.7738 26.3647 17.7368C26.3823 17.7187 26.4035 17.7043 26.4269 17.6947C26.4503 17.6851 26.4754 17.6803 26.5007 17.6808H27.0047C27.0577 17.6808 27.1027 17.6998 27.1407 17.7368C27.1588 17.7544 27.1732 17.7756 27.1828 17.799C27.1924 17.8224 27.1972 17.8475 27.1967 17.8728V18.3048C27.1972 18.3301 27.1924 18.3552 27.1828 18.3786C27.1732 18.402 27.1588 18.4232 27.1407 18.4408C27.1028 18.473 27.0544 18.4901 27.0047 18.4888H26.5007ZM26.5647 23.4248C26.515 23.4261 26.4666 23.409 26.4287 23.3768C26.3965 23.3389 26.3794 23.2905 26.3807 23.2408V19.4488C26.3807 19.3958 26.3967 19.3528 26.4287 19.3208C26.4463 19.3027 26.4675 19.2883 26.4909 19.2787C26.5143 19.2691 26.5394 19.2643 26.5647 19.2648H26.9487C26.9729 19.2639 26.997 19.2684 27.0191 19.2781C27.0413 19.2878 27.061 19.3024 27.0767 19.3208C27.0951 19.3365 27.1097 19.3562 27.1194 19.3784C27.1291 19.4005 27.1337 19.4246 27.1327 19.4488V23.2408C27.1332 23.2661 27.1284 23.2912 27.1188 23.3146C27.1092 23.338 27.0948 23.3592 27.0767 23.3768C27.0597 23.3931 27.0397 23.4057 27.0176 23.414C26.9956 23.4222 26.9722 23.4259 26.9487 23.4248H26.5647ZM30.7877 24.9448C30.7667 24.9449 30.746 24.9407 30.7267 24.9324C30.7075 24.9242 30.6901 24.9121 30.6757 24.8968C30.6605 24.8824 30.6483 24.8651 30.6401 24.8458C30.6318 24.8265 30.6276 24.8058 30.6277 24.7848C30.6277 24.7478 30.6417 24.6998 30.6677 24.6408L31.2837 23.1768L29.7557 19.5688C29.7361 19.5255 29.7227 19.4798 29.7157 19.4328C29.715 19.4106 29.7189 19.3884 29.7271 19.3677C29.7353 19.347 29.7476 19.3282 29.7634 19.3125C29.7791 19.2967 29.7979 19.2844 29.8186 19.2762C29.8393 19.268 29.8615 19.2641 29.8837 19.2648H30.2757C30.3617 19.2648 30.4257 19.3098 30.4677 19.4008L31.6837 22.3128L32.9317 19.4008C32.9747 19.3108 33.0417 19.2648 33.1317 19.2648H33.5077C33.5557 19.2648 33.5957 19.2808 33.6277 19.3128C33.6597 19.3448 33.6757 19.3828 33.6757 19.4248C33.6671 19.474 33.6537 19.5222 33.6357 19.5688L31.3637 24.8088C31.3217 24.8988 31.2547 24.9448 31.1637 24.9448H30.7877ZM36.0257 23.5048C35.5197 23.5048 35.1277 23.3418 34.8497 23.0168C34.5727 22.6868 34.4337 22.2488 34.4337 21.7048V19.4488C34.4337 19.3958 34.4497 19.3528 34.4817 19.3208C34.4993 19.3027 34.5205 19.2883 34.5439 19.2787C34.5673 19.2691 34.5924 19.2643 34.6177 19.2648H35.0177C35.0419 19.2639 35.066 19.2684 35.0881 19.2781C35.1103 19.2878 35.13 19.3024 35.1457 19.3208C35.1641 19.3365 35.1787 19.3562 35.1884 19.3784C35.1981 19.4005 35.2027 19.4246 35.2017 19.4488V21.6648C35.2017 22.4598 35.5487 22.8568 36.2417 22.8568C36.5777 22.8568 36.8447 22.7528 37.0417 22.5448C37.2397 22.3318 37.3377 22.0378 37.3377 21.6648V19.4488C37.3377 19.3958 37.3537 19.3528 37.3857 19.3208C37.4033 19.3027 37.4245 19.2883 37.4479 19.2787C37.4713 19.2691 37.4964 19.2643 37.5217 19.2648H37.9217C37.9459 19.2639 37.97 19.2684 37.9921 19.2781C38.0143 19.2878 38.034 19.3024 38.0497 19.3208C38.066 19.3378 38.0786 19.3579 38.0869 19.3799C38.0951 19.4019 38.0988 19.4253 38.0977 19.4488V23.2408C38.099 23.2905 38.0819 23.3389 38.0497 23.3768C38.0327 23.3931 38.0127 23.4057 37.9906 23.414C37.9686 23.4222 37.9452 23.4259 37.9217 23.4248H37.5457C37.496 23.4261 37.4476 23.409 37.4097 23.3768C37.3775 23.3389 37.3604 23.2905 37.3617 23.2408V22.8888C37.2201 23.0848 37.0336 23.2439 36.8177 23.3528C36.6047 23.4538 36.3407 23.5048 36.0257 23.5048ZM39.4787 23.4248C39.429 23.4261 39.3806 23.409 39.3427 23.3768C39.3105 23.3389 39.2934 23.2905 39.2947 23.2408V17.9288C39.2947 17.8758 39.3107 17.8328 39.3427 17.8008C39.3603 17.7827 39.3815 17.7683 39.4049 17.7587C39.4283 17.7491 39.4534 17.7443 39.4787 17.7448H39.8547C39.8789 17.7439 39.903 17.7484 39.9251 17.7581C39.9473 17.7678 39.967 17.7824 39.9827 17.8008C40.0011 17.8165 40.0157 17.8362 40.0254 17.8584C40.0351 17.8805 40.0397 17.9046 40.0387 17.9288V20.7128L41.6147 19.4008C41.6424 19.3808 41.6691 19.3595 41.6947 19.3368C41.7264 19.3131 41.7615 19.2943 41.7987 19.2808C41.8431 19.2692 41.8889 19.2639 41.9347 19.2648H42.3587C42.381 19.2641 42.4031 19.268 42.4238 19.2762C42.4445 19.2844 42.4633 19.2967 42.479 19.3125C42.4948 19.3282 42.5071 19.347 42.5153 19.3677C42.5235 19.3884 42.5274 19.4106 42.5267 19.4328C42.5267 19.4918 42.4947 19.5428 42.4307 19.5848L40.5827 21.1208L42.6307 23.1128C42.6947 23.1658 42.7267 23.2138 42.7267 23.2568C42.7274 23.2791 42.7235 23.3012 42.7153 23.3219C42.7071 23.3426 42.6948 23.3614 42.679 23.3771C42.6633 23.3929 42.6445 23.4052 42.6238 23.4134C42.6031 23.4216 42.581 23.4255 42.5587 23.4248H42.1427C42.0831 23.4279 42.0234 23.4198 41.9667 23.4008C41.9144 23.3694 41.866 23.3318 41.8227 23.2888L40.0377 21.5848V23.2408C40.0382 23.2661 40.0334 23.2912 40.0238 23.3146C40.0142 23.338 39.9998 23.3592 39.9817 23.3768C39.9647 23.3931 39.9447 23.4057 39.9226 23.414C39.9006 23.4222 39.8772 23.4259 39.8537 23.4248H39.4787ZM43.6037 23.4248C43.554 23.4261 43.5056 23.409 43.4677 23.3768C43.4355 23.3389 43.4184 23.2905 43.4197 23.2408V17.9288C43.4197 17.8758 43.4357 17.8328 43.4677 17.8008C43.4853 17.7827 43.5065 17.7683 43.5299 17.7587C43.5533 17.7491 43.5784 17.7443 43.6037 17.7448H43.9797C44.0039 17.7439 44.028 17.7484 44.0501 17.7581C44.0723 17.7678 44.092 17.7824 44.1077 17.8008C44.1261 17.8165 44.1407 17.8362 44.1504 17.8584C44.1601 17.8805 44.1647 17.9046 44.1637 17.9288V23.2408C44.1642 23.2661 44.1594 23.2912 44.1498 23.3146C44.1402 23.338 44.1258 23.3592 44.1077 23.3768C44.0907 23.3931 44.0707 23.4057 44.0486 23.414C44.0266 23.4222 44.0032 23.4259 43.9797 23.4248H43.6037ZM46.5167 23.5048C46.2557 23.5048 46.0127 23.4518 45.7887 23.3448C45.5767 23.2479 45.3924 23.0993 45.2527 22.9128C45.1266 22.7322 45.0595 22.517 45.0607 22.2968C45.0607 21.9448 45.2047 21.6568 45.4927 21.4328C45.7857 21.2028 46.1807 21.0538 46.6767 20.9848L47.8687 20.8168V20.5848C47.8687 20.0408 47.5567 19.7688 46.9327 19.7688C46.6987 19.7688 46.5067 19.8188 46.3567 19.9208C46.218 20.0059 46.1025 20.1241 46.0207 20.2648C46.0098 20.3049 45.9876 20.341 45.9567 20.3688C45.9357 20.3898 45.9037 20.4008 45.8607 20.4008H45.5167C45.4696 20.4011 45.424 20.384 45.3887 20.3528C45.3575 20.3175 45.3404 20.2719 45.3407 20.2248C45.3457 20.0968 45.4047 19.9528 45.5167 19.7928C45.6347 19.6278 45.8127 19.4858 46.0527 19.3688C46.2927 19.2458 46.5887 19.1848 46.9407 19.1848C47.5377 19.1848 47.9677 19.3258 48.2287 19.6088C48.4897 19.8858 48.6207 20.2328 48.6207 20.6488V23.2408C48.6212 23.2661 48.6164 23.2912 48.6068 23.3146C48.5972 23.338 48.5828 23.3592 48.5647 23.3768C48.5478 23.3931 48.5277 23.4057 48.5056 23.414C48.4836 23.4222 48.4602 23.4259 48.4367 23.4248H48.0687C48.019 23.4261 47.9706 23.409 47.9327 23.3768C47.9005 23.3389 47.8834 23.2905 47.8847 23.2408V22.8968C47.7677 23.0668 47.5967 23.2118 47.3727 23.3288C47.1487 23.4458 46.8627 23.5048 46.5167 23.5048ZM46.6847 22.9048C47.0317 22.9048 47.3147 22.7928 47.5327 22.5688C47.7567 22.3388 47.8687 22.0118 47.8687 21.5848V21.3608L46.9407 21.4968C46.5617 21.5498 46.2767 21.6408 46.0847 21.7688C45.8927 21.8918 45.7967 22.0488 45.7967 22.2408C45.7967 22.4538 45.8847 22.6198 46.0607 22.7368C46.2367 22.8488 46.4447 22.9048 46.6847 22.9048ZM51.8267 23.5048C51.2507 23.5048 50.8137 23.3048 50.5147 22.9048V23.2408C50.5152 23.2661 50.5104 23.2912 50.5008 23.3146C50.4912 23.338 50.4768 23.3592 50.4587 23.3768C50.4417 23.3931 50.4217 23.4057 50.3997 23.414C50.3776 23.4222 50.3542 23.4259 50.3307 23.4248H49.9627C49.913 23.4261 49.8646 23.409 49.8267 23.3768C49.7945 23.3389 49.7774 23.2905 49.7787 23.2408V17.9288C49.7787 17.8758 49.7947 17.8328 49.8267 17.8008C49.8443 17.7827 49.8655 17.7683 49.8889 17.7587C49.9123 17.7491 49.9374 17.7443 49.9627 17.7448H50.3547C50.3789 17.7439 50.403 17.7484 50.4251 17.7581C50.4473 17.7678 50.467 17.7824 50.4827 17.8008C50.499 17.8178 50.5116 17.8379 50.5199 17.8599C50.5281 17.8819 50.5318 17.9053 50.5307 17.9288V19.7688C50.8457 19.3788 51.2777 19.1848 51.8267 19.1848C52.3817 19.1848 52.8007 19.3688 53.0827 19.7368C53.3657 20.0998 53.5177 20.5558 53.5387 21.1048C53.5447 21.1638 53.5467 21.2438 53.5467 21.3448C53.5467 21.4458 53.5447 21.5258 53.5387 21.5848C53.5177 22.1398 53.3657 22.5978 53.0827 22.9608C52.8007 23.3238 52.3817 23.5048 51.8267 23.5048ZM51.6587 22.8568C52.0377 22.8568 52.3127 22.7398 52.4827 22.5048C52.6587 22.2698 52.7547 21.9608 52.7707 21.5768C52.7773 21.4997 52.78 21.4222 52.7787 21.3448C52.7787 20.3368 52.4057 19.8328 51.6587 19.8328C51.3017 19.8328 51.0267 19.9498 50.8347 20.1848C50.6427 20.4198 50.5417 20.6948 50.5307 21.0088L50.5227 21.3208L50.5307 21.6248C50.5467 21.9608 50.6457 22.2518 50.8267 22.4968C51.0137 22.7368 51.2907 22.8568 51.6587 22.8568ZM58.1937 23.5048C57.6067 23.5048 57.1507 23.3398 56.8257 23.0088C56.5057 22.6788 56.3357 22.2388 56.3137 21.6888L56.3057 21.3448L56.3137 21.0008C56.3347 20.4568 56.5087 20.0198 56.8337 19.6888C57.1587 19.3528 57.6127 19.1848 58.1937 19.1848C58.7747 19.1848 59.2287 19.3528 59.5537 19.6888C59.8787 20.0188 60.0527 20.4568 60.0737 21.0008C60.0787 21.0598 60.0817 21.1738 60.0817 21.3448C60.0817 21.5148 60.0787 21.6298 60.0737 21.6888C60.0527 22.2388 59.8787 22.6788 59.5537 23.0088C59.2337 23.3388 58.7807 23.5048 58.1937 23.5048ZM58.1937 22.8888C58.5297 22.8888 58.7937 22.7818 58.9857 22.5688C59.1827 22.3558 59.2897 22.0488 59.3057 21.6488C59.3123 21.5476 59.315 21.4462 59.3137 21.3448C59.3137 21.1948 59.3107 21.0948 59.3057 21.0408C59.2897 20.6408 59.1827 20.3338 58.9857 20.1208C58.7937 19.9078 58.5297 19.8008 58.1937 19.8008C57.8577 19.8008 57.5907 19.9078 57.3937 20.1208C57.1967 20.3338 57.0927 20.6408 57.0817 21.0408L57.0737 21.3448L57.0817 21.6488C57.0917 22.0488 57.1967 22.3558 57.3937 22.5688C57.5907 22.7818 57.8577 22.8888 58.1937 22.8888ZM61.2757 23.4248C61.226 23.4261 61.1776 23.409 61.1397 23.3768C61.1075 23.3389 61.0904 23.2905 61.0917 23.2408V17.9288C61.0917 17.8758 61.1077 17.8328 61.1397 17.8008C61.1573 17.7827 61.1785 17.7683 61.2019 17.7587C61.2253 17.7491 61.2504 17.7443 61.2757 17.7448H61.6517C61.6759 17.7439 61.7 17.7484 61.7221 17.7581C61.7443 17.7678 61.764 17.7824 61.7797 17.8008C61.7981 17.8165 61.8127 17.8362 61.8224 17.8584C61.8321 17.8805 61.8367 17.9046 61.8357 17.9288V23.2408C61.8362 23.2661 61.8314 23.2912 61.8218 23.3146C61.8122 23.338 61.7978 23.3592 61.7797 23.3768C61.7628 23.3931 61.7427 23.4057 61.7206 23.414C61.6986 23.4222 61.6752 23.4259 61.6517 23.4248H61.2757ZM63.1477 18.4888C63.098 18.4901 63.0496 18.473 63.0117 18.4408C62.9795 18.4029 62.9624 18.3545 62.9637 18.3048V17.8728C62.9637 17.8198 62.9797 17.7738 63.0117 17.7368C63.0293 17.7187 63.0505 17.7043 63.0739 17.6947C63.0973 17.6851 63.1224 17.6803 63.1477 17.6808H63.6517C63.7047 17.6808 63.7507 17.6998 63.7877 17.7368C63.8058 17.7544 63.8202 17.7756 63.8298 17.799C63.8394 17.8224 63.8442 17.8475 63.8437 17.8728V18.3048C63.8442 18.3301 63.8394 18.3552 63.8298 18.3786C63.8202 18.402 63.8058 18.4232 63.7877 18.4408C63.7498 18.473 63.7014 18.4901 63.6517 18.4888H63.1477ZM63.2127 23.4248C63.163 23.4261 63.1146 23.409 63.0767 23.3768C63.0445 23.3389 63.0274 23.2905 63.0287 23.2408V19.4488C63.0287 19.3958 63.0447 19.3528 63.0767 19.3208C63.0943 19.3027 63.1155 19.2883 63.1389 19.2787C63.1623 19.2691 63.1874 19.2643 63.2127 19.2648H63.5967C63.6209 19.2639 63.645 19.2684 63.6671 19.2781C63.6893 19.2878 63.709 19.3024 63.7247 19.3208C63.7431 19.3365 63.7577 19.3562 63.7674 19.3784C63.7771 19.4005 63.7817 19.4246 63.7807 19.4488V23.2408C63.7812 23.2661 63.7764 23.2912 63.7668 23.3146C63.7572 23.338 63.7428 23.3592 63.7247 23.3768C63.7078 23.3931 63.6877 23.4057 63.6656 23.414C63.6436 23.4222 63.6202 23.4259 63.5967 23.4248H63.2127ZM65.1507 23.4248C65.101 23.4261 65.0526 23.409 65.0147 23.3768C64.9825 23.3389 64.9654 23.2905 64.9667 23.2408V19.4488C64.9667 19.3958 64.9827 19.3528 65.0147 19.3208C65.0323 19.3027 65.0535 19.2883 65.0769 19.2787C65.1003 19.2691 65.1254 19.2643 65.1507 19.2648H65.5267C65.5509 19.2639 65.575 19.2684 65.5971 19.2781C65.6193 19.2878 65.639 19.3024 65.6547 19.3208C65.6731 19.3365 65.6877 19.3562 65.6974 19.3784C65.7071 19.4005 65.7117 19.4246 65.7107 19.4488V19.8008C65.8647 19.6038 66.0467 19.4508 66.2547 19.3448C66.4677 19.2378 66.7317 19.1848 67.0467 19.1848C67.5587 19.1848 67.9557 19.3498 68.2387 19.6808C68.5267 20.0058 68.6707 20.4408 68.6707 20.9848V23.2408C68.6711 23.2661 68.6663 23.2912 68.6567 23.3146C68.6471 23.338 68.6328 23.3591 68.6147 23.3768C68.5977 23.393 68.5776 23.4057 68.5556 23.4139C68.5336 23.4222 68.5102 23.4259 68.4867 23.4248H68.0867C68.037 23.4263 67.9885 23.4092 67.9507 23.3768C67.9185 23.3389 67.9014 23.2905 67.9027 23.2408V21.0248C67.9027 20.6458 67.8087 20.3528 67.6227 20.1448C67.4407 19.9368 67.1767 19.8328 66.8307 19.8328C66.4947 19.8328 66.2277 19.9398 66.0307 20.1528C65.8327 20.3608 65.7347 20.6518 65.7347 21.0248V23.2408C65.7352 23.2661 65.7304 23.2912 65.7208 23.3146C65.7112 23.338 65.6968 23.3592 65.6787 23.3768C65.6618 23.3931 65.6417 23.4057 65.6196 23.414C65.5976 23.4222 65.5742 23.4259 65.5507 23.4248H65.1507ZM71.5217 25.1848C71.0847 25.1848 70.7327 25.1098 70.4657 24.9608C70.1987 24.8168 70.0097 24.6508 69.8977 24.4648C69.7983 24.3133 69.7353 24.1408 69.7137 23.9608C69.7107 23.936 69.7135 23.9108 69.7218 23.8872C69.7302 23.8636 69.7438 23.8423 69.7617 23.8248C69.7985 23.79 69.847 23.77 69.8977 23.7688H70.2817C70.3297 23.7688 70.3697 23.7788 70.4017 23.8008C70.4403 23.838 70.468 23.885 70.4817 23.9368C70.5457 24.1068 70.6497 24.2538 70.7937 24.3768C70.9427 24.5048 71.1727 24.5688 71.4817 24.5688C71.8767 24.5688 72.1667 24.4838 72.3537 24.3128C72.5407 24.1478 72.6337 23.8518 72.6337 23.4248V22.8808C72.4913 23.0595 72.311 23.2044 72.1057 23.3048C71.8668 23.4114 71.6072 23.4633 71.3457 23.4568C70.7807 23.4568 70.3567 23.2778 70.0737 22.9208C69.7967 22.5578 69.6497 22.0998 69.6337 21.5448L69.6257 21.3208L69.6337 21.1048C69.6497 20.5548 69.7987 20.0998 70.0817 19.7368C70.3647 19.3688 70.7857 19.1848 71.3457 19.1848C71.9057 19.1848 72.3427 19.3898 72.6577 19.8008V19.4568C72.6577 19.4038 72.6737 19.3578 72.7057 19.3208C72.7233 19.3027 72.7445 19.2883 72.7679 19.2787C72.7913 19.2691 72.8164 19.2643 72.8417 19.2648H73.2097C73.2627 19.2648 73.3087 19.2838 73.3457 19.3208C73.3638 19.3385 73.3781 19.3596 73.3877 19.383C73.3973 19.4064 73.4021 19.4315 73.4017 19.4568V23.3368C73.4017 24.5688 72.7747 25.1848 71.5217 25.1848ZM71.5057 22.8168C71.8687 22.8168 72.1427 22.6968 72.3297 22.4568C72.5189 22.2107 72.6253 21.9111 72.6337 21.6008C72.6404 21.5076 72.6431 21.4142 72.6417 21.3208C72.643 21.2301 72.6403 21.1393 72.6337 21.0488C72.6251 20.7386 72.5187 20.439 72.3297 20.1928C72.1487 19.9528 71.8737 19.8328 71.5057 19.8328C71.1267 19.8328 70.8527 19.9498 70.6817 20.1848C70.5107 20.4198 70.4177 20.7288 70.4017 21.1128L70.3937 21.3208L70.4017 21.5368C70.4177 21.9158 70.5107 22.2248 70.6817 22.4648C70.8527 22.6998 71.1267 22.8168 71.5057 22.8168ZM-17.7883 0.424805C-17.8203 0.524805 -17.8523 0.624804 -17.8523 0.758804V25.9228C-17.8523 26.1588 -17.7873 26.2918 -17.6573 26.4248L-5.54729 13.3248L-17.7883 0.424805ZM-4.7303 14.1918L-1.59929 17.4908L-6.06929 20.0908C-6.06929 20.0908 -11.7493 23.3878 -14.8833 25.2248L-4.7303 14.1918ZM-3.88029 13.2918L-0.521294 16.8578C0.00470734 16.5588 4.11571 14.1578 4.70271 13.8248C5.32271 13.4588 5.2597 12.9578 4.7327 12.6918C4.2467 12.4148 0.135706 10.0098 -0.486294 9.6198L-3.88429 13.2948L-3.88029 13.2918ZM-4.73229 12.4248L-1.5663 8.9918L-6.0843 6.3578C-6.0843 6.3578 -13.4503 2.0548 -15.9013 0.617805L-4.7303 12.4248H-4.73229Z" fill="white"/>
<path d="M-32.3523 -1.5752C-32.3523 -3.56432 -31.5621 -5.47197 -30.1556 -6.8785C-28.7491 -8.28502 -26.8414 -9.0752 -24.8523 -9.0752H106.148C108.137 -9.0752 110.044 -8.28502 111.451 -6.8785C112.858 -5.47197 113.648 -3.56432 113.648 -1.5752V26.4248C113.648 28.4139 112.858 30.3216 111.451 31.7281C110.044 33.1346 108.137 33.9248 106.148 33.9248H-24.8523C-26.8414 33.9248 -28.7491 33.1346 -30.1556 31.7281C-31.5621 30.3216 -32.3523 28.4139 -32.3523 26.4248V-1.5752Z" stroke="white"/>
<path d="M12.7437 13.6048C11.1717 13.6048 9.94772 13.1788 9.07172 12.3268C8.20772 11.4628 7.74472 10.2868 7.68572 8.79881C7.67372 8.43881 7.66772 7.87481 7.66772 7.10681C7.66772 6.32681 7.67272 5.76281 7.68472 5.41481C7.74472 3.93881 8.21373 2.77481 9.08873 1.92281C9.96573 1.07081 11.1827 0.644811 12.7427 0.644811C13.7987 0.644811 14.6927 0.83681 15.4257 1.22081C16.1697 1.59281 16.7277 2.04881 17.0997 2.58881C17.4717 3.12881 17.6697 3.63281 17.6927 4.10081V4.13681C17.694 4.1815 17.6849 4.22587 17.6661 4.26647C17.6474 4.30706 17.6195 4.34277 17.5847 4.37081C17.5085 4.43233 17.4126 4.46428 17.3147 4.46081H16.2527C16.1596 4.46668 16.0665 4.44806 15.9827 4.40681C15.9172 4.32734 15.8682 4.23553 15.8387 4.13681C15.6587 3.59681 15.3107 3.13481 14.7947 2.75081C14.2917 2.36681 13.6067 2.17481 12.7437 2.17481C11.7477 2.17481 10.9677 2.44481 10.4037 2.98481C9.83872 3.52481 9.53373 4.36481 9.48473 5.50481C9.47273 5.85281 9.46672 6.38681 9.46672 7.10681C9.46672 7.81481 9.47273 8.34881 9.48473 8.70881C9.53273 9.86081 9.83873 10.7128 10.4027 11.2648C10.9667 11.8048 11.7467 12.0748 12.7427 12.0748C13.7507 12.0748 14.5557 11.7988 15.1557 11.2468C15.7557 10.6948 16.0557 9.86681 16.0557 8.76281V8.00681H13.3557C13.2439 8.00974 13.1349 7.97128 13.0497 7.89881C12.9752 7.8077 12.9368 7.6924 12.9417 7.57481V6.99881C12.9417 6.87881 12.9777 6.77681 13.0497 6.69281C13.0894 6.65204 13.1371 6.61983 13.1897 6.59816C13.2423 6.57649 13.2988 6.56582 13.3557 6.56681H17.4237C17.478 6.56482 17.532 6.57512 17.5817 6.59694C17.6314 6.61875 17.6755 6.65153 17.7107 6.69281C17.7536 6.73096 17.7872 6.7783 17.8092 6.83128C17.8312 6.88427 17.841 6.94153 17.8377 6.99881V8.72681C17.8377 9.71081 17.6337 10.5688 17.2257 11.3008C16.8184 12.032 16.2045 12.6269 15.4607 13.0108C14.6927 13.4068 13.7877 13.6048 12.7437 13.6048ZM24.0047 13.6048C22.6847 13.6048 21.6587 13.2328 20.9267 12.4888C20.2067 11.7448 19.8227 10.7548 19.7747 9.51881L19.7567 8.74481L19.7747 7.97081C19.8227 6.74681 20.2127 5.76281 20.9447 5.01881C21.6767 4.26281 22.6967 3.88481 24.0047 3.88481C25.3127 3.88481 26.3327 4.26281 27.0647 5.01881C27.7967 5.76281 28.1867 6.74681 28.2347 7.97081C28.2467 8.10281 28.2527 8.36081 28.2527 8.74481C28.2527 9.12881 28.2467 9.38681 28.2347 9.51881C28.1867 10.7548 27.7967 11.7448 27.0647 12.4888C26.3447 13.2328 25.3247 13.6048 24.0047 13.6048ZM24.0047 12.2188C24.7607 12.2188 25.3547 11.9788 25.7867 11.4988C26.2307 11.0188 26.4707 10.3288 26.5067 9.42881C26.5187 9.30881 26.5247 9.08081 26.5247 8.74481C26.5247 8.40881 26.5187 8.18081 26.5067 8.06081C26.4707 7.16081 26.2307 6.47081 25.7867 5.99081C25.3547 5.51081 24.7607 5.27081 24.0047 5.27081C23.2487 5.27081 22.6487 5.51081 22.2047 5.99081C21.7607 6.47081 21.5267 7.16081 21.5027 8.06081L21.4847 8.74481L21.5027 9.42881C21.5267 10.3288 21.7607 11.0188 22.2047 11.4988C22.6487 11.9788 23.2487 12.2188 24.0047 12.2188ZM34.3407 13.6048C33.0207 13.6048 31.9947 13.2328 31.2627 12.4888C30.5427 11.7448 30.1587 10.7548 30.1107 9.51881L30.0927 8.74481L30.1107 7.97081C30.1587 6.74681 30.5487 5.76281 31.2807 5.01881C32.0127 4.26281 33.0327 3.88481 34.3407 3.88481C35.6487 3.88481 36.6687 4.26281 37.4007 5.01881C38.1327 5.76281 38.5227 6.74681 38.5707 7.97081C38.5827 8.10281 38.5887 8.36081 38.5887 8.74481C38.5887 9.12881 38.5827 9.38681 38.5707 9.51881C38.5227 10.7548 38.1327 11.7448 37.4007 12.4888C36.6807 13.2328 35.6607 13.6048 34.3407 13.6048ZM34.3407 12.2188C35.0967 12.2188 35.6907 11.9788 36.1227 11.4988C36.5667 11.0188 36.8067 10.3288 36.8427 9.42881C36.8547 9.30881 36.8607 9.08081 36.8607 8.74481C36.8607 8.40881 36.8547 8.18081 36.8427 8.06081C36.8067 7.16081 36.5667 6.47081 36.1227 5.99081C35.6907 5.51081 35.0967 5.27081 34.3407 5.27081C33.5847 5.27081 32.9847 5.51081 32.5407 5.99081C32.0967 6.47081 31.8627 7.16081 31.8387 8.06081L31.8207 8.74481L31.8387 9.42881C31.8627 10.3288 32.0967 11.0188 32.5407 11.4988C32.9847 11.9788 33.5847 12.2188 34.3407 12.2188ZM44.6777 17.3848C43.6937 17.3848 42.9017 17.2168 42.3017 16.8808C41.7017 16.5568 41.2757 16.1848 41.0237 15.7648C40.7717 15.3448 40.6337 14.9668 40.6097 14.6308C40.6027 14.5749 40.6088 14.5182 40.6275 14.465C40.6463 14.4119 40.6772 14.3639 40.7177 14.3248C40.8005 14.2461 40.9096 14.2012 41.0237 14.1988H41.8877C41.9957 14.1988 42.0857 14.2228 42.1577 14.2708C42.2297 14.3308 42.2897 14.4328 42.3377 14.5768C42.4817 14.9608 42.7157 15.2908 43.0397 15.5668C43.3757 15.8548 43.8917 15.9988 44.5877 15.9988C45.4757 15.9988 46.1297 15.8068 46.5497 15.4228C46.9697 15.0508 47.1797 14.3848 47.1797 13.4248V12.2008C46.8597 12.6033 46.4538 12.9292 45.9917 13.1548C45.5117 13.3828 44.9417 13.4968 44.2817 13.4968C43.0097 13.4968 42.0557 13.0948 41.4197 12.2908C40.7957 11.4748 40.4657 10.4428 40.4297 9.19481L40.4117 8.69081L40.4297 8.20481C40.4657 6.96881 40.8017 5.94281 41.4377 5.12681C42.0737 4.29881 43.0217 3.88481 44.2817 3.88481C45.5417 3.88481 46.5257 4.34681 47.2337 5.27081V4.49681C47.2337 4.37681 47.2697 4.27481 47.3417 4.19081C47.3814 4.15004 47.4291 4.11783 47.4817 4.09616C47.5343 4.07449 47.5908 4.06382 47.6477 4.06481H48.4757C48.5957 4.06481 48.6977 4.10681 48.7817 4.19081C48.8225 4.23052 48.8547 4.27815 48.8764 4.33078C48.898 4.3834 48.9087 4.43991 48.9077 4.49681V13.2268C48.9077 15.9988 47.4977 17.3848 44.6777 17.3848ZM44.6417 12.0568C45.4577 12.0568 46.0757 11.7868 46.4957 11.2468C46.9157 10.7068 47.1437 10.0648 47.1797 9.32081C47.1917 9.21281 47.1977 9.00281 47.1977 8.69081C47.1977 8.39081 47.1917 8.18681 47.1797 8.07881C47.1437 7.33481 46.9157 6.69281 46.4957 6.15281C46.0877 5.61281 45.4697 5.34281 44.6417 5.34281C43.7897 5.34281 43.1717 5.60681 42.7877 6.13481C42.4037 6.66281 42.1937 7.35881 42.1577 8.22281L42.1397 8.69081L42.1577 9.17681C42.1937 10.0288 42.4037 10.7248 42.7877 11.2648C43.1717 11.7928 43.7897 12.0568 44.6417 12.0568ZM52.0157 13.4248C51.9039 13.4277 51.7949 13.3893 51.7097 13.3168C51.6373 13.2316 51.5988 13.1226 51.6017 13.0108V1.05881C51.5993 1.00599 51.6076 0.953223 51.6261 0.903713C51.6447 0.854204 51.6731 0.808987 51.7097 0.77081C51.7494 0.730038 51.7971 0.697826 51.8497 0.676156C51.9023 0.654487 51.9588 0.64382 52.0157 0.644811H52.8617C52.916 0.642818 52.97 0.653117 53.0197 0.674936C53.0694 0.696756 53.1135 0.729531 53.1487 0.77081C53.1901 0.806161 53.223 0.850445 53.2448 0.900331C53.2666 0.950216 53.2769 1.0044 53.2747 1.05881V13.0108C53.2747 13.1308 53.2337 13.2328 53.1487 13.3168C53.1105 13.3534 53.0653 13.3818 53.0158 13.4004C52.9663 13.419 52.9135 13.4273 52.8607 13.4248H52.0157ZM59.7047 13.6048C58.4677 13.6048 57.4777 13.2268 56.7347 12.4708C56.0017 11.7028 55.5997 10.6588 55.5277 9.33881L55.5107 8.72681L55.5277 8.13281C55.6127 6.83681 56.0207 5.80481 56.7527 5.03681C57.4957 4.26881 58.4737 3.88481 59.6857 3.88481C61.0187 3.88481 62.0507 4.31081 62.7827 5.16281C63.5137 6.00281 63.8797 7.14281 63.8797 8.58281V8.88881C63.8797 9.00881 63.8387 9.11081 63.7537 9.19481C63.7157 9.23127 63.6706 9.25964 63.6213 9.2782C63.572 9.29676 63.5194 9.30514 63.4667 9.30281H57.2377V9.46481C57.2727 10.2448 57.5077 10.9108 57.9397 11.4628C58.3837 12.0028 58.9647 12.2728 59.6847 12.2728C60.2377 12.2728 60.6867 12.1648 61.0347 11.9488C61.3947 11.7208 61.6587 11.4868 61.8267 11.2468C61.9347 11.1028 62.0127 11.0188 62.0607 10.9948C62.1207 10.9588 62.2227 10.9408 62.3667 10.9408H63.2497C63.3577 10.9408 63.4477 10.9708 63.5197 11.0308C63.5558 11.0617 63.5844 11.1005 63.6031 11.1442C63.6218 11.1879 63.6303 11.2353 63.6277 11.2828C63.6277 11.5468 63.4597 11.8648 63.1237 12.2368C62.7987 12.6088 62.3367 12.9328 61.7377 13.2088C61.1497 13.4728 60.4727 13.6048 59.7047 13.6048ZM62.1697 8.06081V8.00681C62.1697 7.17881 61.9417 6.50681 61.4857 5.99081C61.0417 5.46281 60.4427 5.19881 59.6857 5.19881C58.9307 5.19881 58.3307 5.46281 57.8857 5.99081C57.4547 6.50681 57.2387 7.17881 57.2387 8.00681V8.06081H62.1697ZM71.0927 13.4248C70.9809 13.4277 70.8719 13.3893 70.7867 13.3168C70.7143 13.2316 70.6758 13.1226 70.6787 13.0108V1.25681C70.6787 1.12481 70.7147 1.02281 70.7867 0.950811C70.8264 0.910039 70.8741 0.877826 70.9267 0.856157C70.9793 0.834487 71.0358 0.823819 71.0927 0.82481H75.6647C77.0207 0.82481 78.0887 1.15481 78.8687 1.81481C79.6487 2.47481 80.0387 3.42881 80.0387 4.67681C80.0387 5.92481 79.6487 6.87881 78.8687 7.53881C78.1007 8.18681 77.0327 8.51081 75.6647 8.51081H72.4787V13.0108C72.4787 13.1308 72.4367 13.2328 72.3527 13.3168C72.2675 13.3893 72.1585 13.4277 72.0467 13.4248H71.0927ZM75.5747 6.99881C76.4507 6.99881 77.1107 6.80081 77.5547 6.40481C78.0107 6.00881 78.2387 5.43281 78.2387 4.67681C78.2387 3.92081 78.0167 3.34481 77.5727 2.94881C77.1287 2.54081 76.4627 2.33681 75.5747 2.33681H72.4607V6.99881H75.5747ZM82.4257 13.4248C82.3139 13.4277 82.2049 13.3893 82.1197 13.3168C82.0472 13.2316 82.0088 13.1226 82.0117 13.0108V1.05881C82.0093 1.00599 82.0176 0.953223 82.0361 0.903713C82.0547 0.854204 82.0831 0.808987 82.1197 0.77081C82.1594 0.730038 82.2071 0.697826 82.2597 0.676156C82.3123 0.654487 82.3688 0.64382 82.4257 0.644811H83.2717C83.3261 0.642665 83.3803 0.652889 83.4302 0.674714C83.4801 0.696539 83.5244 0.729395 83.5597 0.77081C83.6011 0.806161 83.634 0.850445 83.6558 0.900331C83.6777 0.950216 83.6879 1.0044 83.6857 1.05881V13.0108C83.6857 13.1308 83.6437 13.2328 83.5597 13.3168C83.5215 13.3534 83.4763 13.3818 83.4268 13.4004C83.3773 13.419 83.3245 13.4273 83.2717 13.4248H82.4257ZM88.9807 13.6048C88.4146 13.6097 87.8547 13.4866 87.3427 13.2448C86.8658 13.0267 86.4511 12.6926 86.1367 12.2728C85.853 11.8665 85.7021 11.3823 85.7047 10.8868C85.7047 10.0948 86.0287 9.44681 86.6767 8.94281C87.3367 8.42681 88.2247 8.09081 89.3407 7.93481L92.0227 7.55681V7.03481C92.0227 5.81081 91.3207 5.19881 89.9167 5.19881C89.3887 5.19881 88.9567 5.31281 88.6207 5.54081C88.3085 5.73225 88.0488 5.99821 87.8647 6.31481C87.84 6.40495 87.7901 6.48614 87.7207 6.54881C87.6727 6.59681 87.6007 6.62081 87.5047 6.62081H86.7307C86.6247 6.62155 86.5221 6.58309 86.4427 6.51281C86.3724 6.43341 86.334 6.33084 86.3347 6.22481C86.3467 5.93681 86.4787 5.61281 86.7307 5.25281C86.9947 4.88081 87.3967 4.56281 87.9367 4.29881C88.4767 4.02281 89.1427 3.88481 89.9347 3.88481C91.2787 3.88481 92.2447 4.20281 92.8327 4.83881C93.4207 5.46281 93.7147 6.24281 93.7147 7.17881V13.0108C93.7147 13.1308 93.6727 13.2328 93.5887 13.3168C93.5506 13.3534 93.5053 13.3818 93.4558 13.4004C93.4063 13.419 93.3535 13.4273 93.3007 13.4248H92.4727C92.3609 13.4277 92.2519 13.3893 92.1667 13.3168C92.0942 13.2316 92.0558 13.1226 92.0587 13.0108V12.2368C91.7947 12.6208 91.4107 12.9448 90.9067 13.2088C90.4027 13.4728 89.7607 13.6048 88.9807 13.6048ZM89.3587 12.2548C90.1387 12.2548 90.7747 12.0028 91.2667 11.4988C91.7707 10.9828 92.0227 10.2448 92.0227 9.28481V8.78081L89.9347 9.08681C89.0827 9.20681 88.4407 9.41081 88.0087 9.69881C87.5767 9.97481 87.3607 10.3288 87.3607 10.7608C87.3607 11.2408 87.5587 11.6128 87.9547 11.8768C88.3507 12.1288 88.8187 12.2548 89.3587 12.2548ZM97.7467 16.8448C97.6996 16.845 97.6529 16.8355 97.6095 16.8169C97.5662 16.7983 97.5271 16.7711 97.4947 16.7368C97.4604 16.7044 97.4332 16.6653 97.4146 16.622C97.396 16.5787 97.3865 16.532 97.3867 16.4848C97.3943 16.3718 97.4249 16.2615 97.4767 16.1608L98.8627 12.8668L95.4247 4.74881C95.3647 4.59281 95.3347 4.49081 95.3347 4.44281C95.333 4.39272 95.3417 4.34282 95.3601 4.2962C95.3785 4.24959 95.4063 4.20724 95.4417 4.17181C95.4771 4.13637 95.5195 4.10858 95.5661 4.09018C95.6127 4.07177 95.6626 4.06314 95.7127 4.06481H96.5947C96.7867 4.06481 96.9307 4.16681 97.0267 4.37081L99.7627 10.9228L102.571 4.37081C102.667 4.16681 102.817 4.06481 103.021 4.06481H103.867C103.975 4.06481 104.065 4.10081 104.137 4.17281C104.171 4.2052 104.198 4.24428 104.217 4.28762C104.235 4.33096 104.245 4.37766 104.245 4.42481C104.245 4.46081 104.215 4.56881 104.155 4.74881L99.0427 16.5388C98.9467 16.7428 98.7967 16.8448 98.5927 16.8448H97.7467Z" fill="white"/>
</g>
</g>
</g>
<defs>
<clipPath id="clip0_2_2795">
<rect width="80.17" height="23.98" fill="white" transform="translate(0.562683 0.43457)"/>
</clipPath>
<clipPath id="clip1_2_2795">
<rect width="80.17" height="23.98" fill="white" transform="translate(0.562683 0.43457)"/>
</clipPath>
<clipPath id="clip2_2_2795">
<rect width="147" height="44" fill="white" transform="translate(-32.8523 -9.5752)"/>
</clipPath>
</defs>
</svg>
