<svg width="25" height="20" viewBox="0 0 25 20" fill="none" xmlns="http://www.w3.org/2000/svg">
<g clip-path="url(#clip0_2002_40)">
<g clip-path="url(#clip1_2002_40)">
<g clip-path="url(#clip2_2002_40)">
<path fill-rule="evenodd" clip-rule="evenodd" d="M2.25706 6.62761L2.44102 6.99553C2.4673 7.04809 2.50166 7.09661 2.52996 7.14917C2.77154 7.59896 3.03939 8.04167 3.31229 8.47226C3.58823 8.9079 3.87731 9.34455 4.1856 9.75694C4.32407 9.94191 4.43222 10.1117 4.62932 10.2421C4.81025 10.3624 5.0407 10.4422 5.25903 10.4422C5.87054 10.4422 6.09089 10.2087 6.43354 9.74582C6.51136 9.6407 6.58212 9.53053 6.65793 9.42339C6.73272 9.31827 6.80246 9.21011 6.87827 9.106C7.1724 8.70271 7.4443 8.2509 7.70306 7.82334L8.09119 7.12996C8.35096 6.66602 8.55614 6.19601 8.72595 5.69063C9.05445 4.71221 8.71079 3.49424 8.05784 2.72303C7.7445 2.35208 7.39275 2.04784 6.96014 1.82244C6.38704 1.52426 5.86043 1.42015 5.21253 1.42015C4.91739 1.42015 4.63033 1.47372 4.34631 1.54852C3.44673 1.78403 2.57747 2.47943 2.16508 3.31432C1.54548 4.56666 1.66778 5.39852 2.25807 6.62963L2.25706 6.62761ZM4.33216 5.02757V4.86585C4.33216 4.39584 4.76274 3.96222 5.35101 3.96222C5.81596 3.96222 6.27788 4.40494 6.27788 4.86585C6.27788 5.1802 6.21824 5.45108 5.98274 5.6593C5.26408 6.29406 4.33216 5.68962 4.33216 5.02757ZM19.0307 18.2423C18.3596 18.2423 17.7288 17.6935 17.7288 17.0213C17.7288 16.6443 17.7511 16.7555 17.7693 16.5331H20.2103C20.4114 16.9526 20.2153 17.5924 19.9141 17.8643C19.7008 18.0573 19.3157 18.2413 19.0297 18.2413L19.0307 18.2423ZM8.16599 16.9809L8.24786 16.5331H10.6889C10.7313 17.0476 10.8273 17.7369 9.99042 18.1139C9.06152 18.5324 8.16599 17.7955 8.16599 16.9809ZM21.309 14.743H18.5829V11.3246H22.8959V13.0338C22.8959 13.5301 22.6836 13.9395 22.439 14.2043C22.2055 14.458 21.7759 14.743 21.309 14.743ZM5.56226 13.0338V11.8543C6.00093 11.8128 6.42848 11.6632 6.7964 11.4075C7.30886 11.0517 7.6131 10.5443 7.97798 10.0177C8.43586 9.35668 8.72393 8.87858 9.11712 8.21451C9.16664 8.13062 9.20809 8.06188 9.25054 7.97799L9.62856 7.24418C9.89439 6.67006 10.2845 5.76644 10.2845 4.95884C10.2845 4.19571 10.045 3.26884 9.69527 2.61791H14.1063C15.6841 2.61791 16.8323 3.76715 16.8323 5.34394V14.743H7.14815C6.33448 14.743 5.56125 13.9557 5.56125 13.0338H5.56226ZM3.81262 11.4065V13.1976C3.81262 13.5908 3.94908 14.1164 4.08351 14.3923C4.57272 15.4 5.32675 16.149 6.45779 16.4128C6.39614 17.1507 6.35065 17.5277 6.71453 18.312C7.1249 19.1955 8.15689 19.9374 9.18484 19.995C9.79029 20.0293 10.2815 19.9454 10.7434 19.7231C11.0446 19.5785 11.1801 19.4957 11.4116 19.2935C11.642 19.0924 11.7593 18.9984 11.9584 18.7012C12.2758 18.2261 12.5194 17.5752 12.5194 16.9425C12.5194 16.7696 12.4789 16.7514 12.4789 16.5351H15.9782C15.9782 17.086 15.869 17.1618 16.1258 17.934C16.6594 19.5422 18.4728 20.469 20.2345 19.7322C20.5438 19.6028 20.8774 19.3784 21.1169 19.15C21.5263 18.7598 22.0418 17.9219 22.0418 17.1446C22.0418 16.7898 22.0701 16.709 22.0013 16.4118C23.4629 16.0712 24.6465 14.641 24.6465 13.1976V8.51774C24.6465 7.74248 24.3615 7.02383 24.0754 6.52552C23.4427 5.4248 22.343 4.62326 21.032 4.4009C20.3346 4.28264 19.3289 4.3261 18.5021 4.3261L18.2757 3.61654C17.6379 2.02257 16.0863 0.867263 14.27 0.867263H8.1205C7.92441 0.735863 7.70609 0.611539 7.45946 0.487215C6.86614 0.190051 6.19095 0.0273175 5.50869 0.0010376H5.10236C4.42009 0.0283282 3.74389 0.190051 3.15158 0.487215C2.84027 0.643884 2.32175 0.942059 2.05693 1.19879C1.94473 1.30695 1.84062 1.38781 1.73247 1.5C1.67182 1.56368 1.65767 1.60007 1.59399 1.66273C1.38881 1.86792 1.23719 2.10949 1.07547 2.34904C0.637811 3.00099 0.325485 4.07846 0.325485 4.95783C0.325485 6.41333 1.62937 8.51269 2.3177 9.54468C2.55523 9.90148 2.9747 10.5271 3.23042 10.8556C3.4063 11.081 3.58621 11.2539 3.81363 11.4065H3.81262ZM18.5829 6.11717H20.4953C20.842 6.11717 21.216 6.25161 21.4596 6.37391C22.3066 6.79843 22.8959 7.66364 22.8959 8.64004V9.53558H18.5829V6.11717ZM5.32776 6.92781C5.84325 6.92781 6.36278 6.69129 6.70038 6.3547C7.26843 5.78969 7.44127 4.94469 7.13804 4.19066C7.04909 3.97031 6.91466 3.75199 6.75799 3.59734C6.28495 3.13037 5.90592 2.96662 5.21152 2.96662C4.79812 2.96662 4.43424 3.12935 4.13203 3.34667C4.01174 3.43359 3.96323 3.48615 3.86114 3.58622C3.69942 3.74592 3.566 3.95616 3.47604 4.17448C3.38911 4.38776 3.28905 4.77488 3.31331 5.00129C3.34868 5.32575 3.39518 5.52082 3.50535 5.78362C3.67415 6.18793 4.09665 6.58718 4.50197 6.75598C4.74556 6.85705 4.99118 6.92781 5.32675 6.92781H5.32776Z" fill="#212529"/>
</g>
</g>
</g>
<defs>
<clipPath id="clip0_2002_40">
<rect width="24.31" height="20" fill="white" transform="translate(0.329987)"/>
</clipPath>
<clipPath id="clip1_2002_40">
<rect width="24.31" height="20" fill="white" transform="translate(0.329987)"/>
</clipPath>
<clipPath id="clip2_2002_40">
<rect width="24.3221" height="20" fill="white" transform="translate(0.323944)"/>
</clipPath>
</defs>
</svg>
