<svg width="20" height="20" viewBox="0 0 20 20" fill="none" xmlns="http://www.w3.org/2000/svg">
<g clip-path="url(#clip0_2002_58)">
<g clip-path="url(#clip1_2002_58)">
<g clip-path="url(#clip2_2002_58)">
<path d="M19.1524 3.39756C18.6788 2.8286 17.9769 2.5 17.2366 2.5C17.2356 2.5 17.2345 2.5 17.2335 2.5H3.75991L3.72441 2.20791C3.57634 0.950303 2.50941 0.0010142 1.24267 0H1.05707C0.596629 0 0.223404 0.373225 0.223404 0.833671C0.223404 1.29412 0.596629 1.66734 1.05707 1.66734H1.24166C1.66458 1.66734 2.01955 1.98377 2.06924 2.40365L3.2163 12.1531C3.46275 14.2515 5.24165 15.8337 7.35423 15.8337H16.0571C16.5175 15.8337 16.8907 15.4604 16.8907 15C16.8907 14.5395 16.5175 14.1663 16.0571 14.1663H7.35423C6.29743 14.1633 5.35626 13.4959 5.00433 12.5H14.9374C16.9536 12.5 18.6808 11.0568 19.0378 9.07301L19.6919 5.44421C19.7183 5.29715 19.7325 5.14807 19.7325 4.99898C19.7325 4.41379 19.5266 3.84685 19.1504 3.39756H19.1524ZM18.0581 5.14807L17.4029 8.77687C17.1889 9.96754 16.1524 10.8337 14.9425 10.8337C14.9414 10.8337 14.9404 10.8337 14.9384 10.8337H4.73963L3.95565 4.16734H17.2325C17.2345 4.16734 17.2356 4.16734 17.2376 4.16734C17.698 4.16734 18.0713 4.54056 18.0713 5.00101C18.0713 5.0507 18.0662 5.1004 18.0581 5.14908V5.14807Z" fill="#212529"/>
<path d="M6.0591 19.999C6.97939 19.999 7.72543 19.2529 7.72543 18.3326C7.72543 17.4124 6.97939 16.6663 6.0591 16.6663C5.13882 16.6663 4.39278 17.4124 4.39278 18.3326C4.39278 19.2529 5.13882 19.999 6.0591 19.999Z" fill="#212529"/>
<path d="M14.3917 19.999C15.312 19.999 16.0581 19.2529 16.0581 18.3326C16.0581 17.4124 15.312 16.6663 14.3917 16.6663C13.4715 16.6663 12.7254 17.4124 12.7254 18.3326C12.7254 19.2529 13.4715 19.999 14.3917 19.999Z" fill="#212529"/>
</g>
</g>
</g>
<defs>
<clipPath id="clip0_2002_58">
<rect width="19.5" height="20" fill="white" transform="translate(0.22998)"/>
</clipPath>
<clipPath id="clip1_2002_58">
<rect width="19.5" height="20" fill="white" transform="translate(0.22998)"/>
</clipPath>
<clipPath id="clip2_2002_58">
<rect width="19.5091" height="20" fill="white" transform="translate(0.225433)"/>
</clipPath>
</defs>
</svg>
