<svg width="27" height="20" viewBox="0 0 27 20" fill="none" xmlns="http://www.w3.org/2000/svg">
<g clip-path="url(#clip0_2002_31)">
<g clip-path="url(#clip1_2002_31)">
<g clip-path="url(#clip2_2002_31)">
<path d="M6.26874 15.5548C7.18909 15.5548 7.93518 14.8087 7.93518 13.8884C7.93518 12.968 7.18909 12.2219 6.26874 12.2219C5.34839 12.2219 4.6023 12.968 4.6023 13.8884C4.6023 14.8087 5.34839 15.5548 6.26874 15.5548Z" fill="#212529"/>
<path d="M21.2681 0H5.71326C2.64652 0.00272963 0.161196 2.48942 0.158466 5.5548V14.4438C0.161196 17.5106 2.64652 19.9959 5.71326 20H21.2681C24.3348 19.9959 26.8201 17.5106 26.8229 14.4452V5.55616C26.8201 2.48942 24.3348 0.00409445 21.2681 0.00136482V0ZM5.71326 2.22192H21.2681C23.1092 2.22192 24.6009 3.71503 24.6009 5.5548H2.37902C2.37902 3.71366 3.87213 2.22192 5.7119 2.22192H5.71326ZM21.2681 17.7767H5.71326C3.87213 17.7767 2.38039 16.2836 2.38039 14.4438V7.77672H24.6023V14.4438C24.6023 16.285 23.1092 17.7767 21.2694 17.7767H21.2681Z" fill="#212529"/>
</g>
</g>
</g>
<defs>
<clipPath id="clip0_2002_31">
<rect width="26.66" height="20" fill="white" transform="translate(0.159981)"/>
</clipPath>
<clipPath id="clip1_2002_31">
<rect width="26.66" height="20" fill="white" transform="translate(0.159981)"/>
</clipPath>
<clipPath id="clip2_2002_31">
<rect width="26.6665" height="20" fill="white" transform="translate(0.156712)"/>
</clipPath>
</defs>
</svg>
