<svg width="25" height="20" viewBox="0 0 25 20" fill="none" xmlns="http://www.w3.org/2000/svg">
<g clip-path="url(#clip0_2002_25)">
<g clip-path="url(#clip1_2002_25)">
<g clip-path="url(#clip2_2002_25)">
<path fill-rule="evenodd" clip-rule="evenodd" d="M10.9544 1.45552C10.9544 2.10242 11.1618 2.53369 11.6456 2.89308L12.1294 3.10871C10.2633 3.10871 8.60454 3.39622 7.15313 4.18688C5.21791 5.12129 5.21791 4.25876 4.04295 4.25876C3.42091 4.25876 2.79887 5.48068 3.83561 6.0557C4.11206 6.19946 4.66498 6.41509 5.01056 6.41509C4.04295 8.3558 3.07534 10.3684 2.10773 12.3091C1.90038 12.3091 1.62392 12.2372 1.48569 12.381C1.071 12.7403 1.83126 13.7467 2.03861 14.0341L2.79887 14.6091C4.52675 15.6873 7.70604 15.7592 9.22657 14.2498C9.64126 13.8903 10.1942 13.2434 10.1942 12.5247C10.1942 12.2372 9.64126 12.3091 9.50304 12.3091C9.43392 12.1653 9.22657 11.734 9.15746 11.5903C8.32808 10.009 7.29135 8.21204 6.66932 6.63072C6.53108 6.34321 6.60021 6.48697 7.15313 6.34321C8.39719 6.0557 9.77949 5.26505 10.9544 5.26505V16.9092C10.1251 16.9092 9.50304 17.628 9.50304 18.4906H7.77516C7.22224 18.4906 6.53108 19.1374 6.53108 20H12.475H18.4189C18.4189 19.1374 17.7278 18.4906 17.1748 18.4906H15.447C15.447 17.628 14.8249 16.9092 13.9955 16.9092V5.26505C15.1704 5.26505 16.5528 6.0557 17.7969 6.34321C18.3498 6.48697 18.4189 6.34321 18.2806 6.63072C17.5895 8.21204 16.6219 10.009 15.7925 11.5903C15.7234 11.734 15.5161 12.1653 15.447 12.3091C15.3086 12.3091 14.6867 12.2372 14.6867 12.5247C14.6867 13.2434 15.3087 13.8903 15.7234 14.2498C17.1748 15.7592 20.4232 15.6873 22.1511 14.6091L22.9113 14.0341C23.1186 13.7467 23.879 12.7403 23.4643 12.381C23.3261 12.2372 23.0495 12.3091 22.8422 12.3091C21.8746 10.3684 20.907 8.3558 19.9394 6.41509C20.285 6.41509 20.8379 6.19946 21.0452 6.0557C22.1511 5.48068 21.46 4.25876 20.8379 4.25876C19.7321 4.25876 19.7321 5.12129 17.7969 4.18688C16.3454 3.39622 14.6866 3.10871 12.8205 3.10871L13.2352 2.89308C13.7882 2.53369 13.9955 2.10242 13.9955 1.45552C13.9955 -0.485174 10.9544 -0.485174 10.9544 1.45552ZM19.1791 6.7026L17.7969 9.50585L16.4145 12.3091H19.1791H21.8746L20.5614 9.50585L19.1791 6.7026ZM5.77083 6.7026L7.15313 9.50585L8.53543 12.3091H5.77083H3.00622L4.38852 9.50585L5.77083 6.7026Z" fill="#1E293B"/>
</g>
</g>
</g>
<defs>
<clipPath id="clip0_2002_25">
<rect width="23.33" height="20" fill="white" transform="translate(0.809982)"/>
</clipPath>
<clipPath id="clip1_2002_25">
<rect width="23.33" height="20" fill="white" transform="translate(0.809982)"/>
</clipPath>
<clipPath id="clip2_2002_25">
<rect width="23.3333" height="20" fill="white" transform="translate(0.808315)"/>
</clipPath>
</defs>
</svg>
