<svg width="16" height="20" viewBox="0 0 16 20" fill="none" xmlns="http://www.w3.org/2000/svg">
<g clip-path="url(#clip0_2002_47)">
<g clip-path="url(#clip1_2002_47)">
<g clip-path="url(#clip2_2002_47)">
<path d="M8.48059 10C11.2417 10 13.4806 7.7611 13.4806 5C13.4806 2.2389 11.2417 0 8.48059 0C5.71949 0 3.48059 2.2389 3.48059 5C3.48307 7.75986 5.72073 9.99752 8.48059 10ZM8.48059 1.66708C10.3213 1.66708 11.8135 3.15927 11.8135 5C11.8135 6.84073 10.3213 8.33292 8.48059 8.33292C6.63986 8.33292 5.14767 6.84073 5.14767 5C5.14767 3.15927 6.63986 1.66708 8.48059 1.66708Z" fill="#212529"/>
<path d="M8.4806 11.6671C4.34143 11.6708 0.983702 15.0273 0.97998 19.1677C0.97998 19.6279 1.35334 20.0012 1.81352 20.0012C2.2737 20.0012 2.64706 19.6279 2.64706 19.1677C2.64706 15.9464 5.25932 13.3341 8.4806 13.3341C11.7019 13.3341 14.3141 15.9464 14.3141 19.1677C14.3141 19.6279 14.6875 20.0012 15.1477 20.0012C15.6079 20.0012 15.9812 19.6279 15.9812 19.1677C15.9775 15.0285 12.621 11.6708 8.4806 11.6671Z" fill="#212529"/>
</g>
</g>
</g>
<defs>
<clipPath id="clip0_2002_47">
<rect width="15" height="20" fill="white" transform="translate(0.97998)"/>
</clipPath>
<clipPath id="clip1_2002_47">
<rect width="15" height="20" fill="white" transform="translate(0.97998)"/>
</clipPath>
<clipPath id="clip2_2002_47">
<rect width="15.0001" height="20" fill="white" transform="translate(0.97995)"/>
</clipPath>
</defs>
</svg>
