<svg width="23" height="20" viewBox="0 0 23 20" fill="none" xmlns="http://www.w3.org/2000/svg">
<g clip-path="url(#clip0_2002_70)">
<g clip-path="url(#clip1_2002_70)">
<g clip-path="url(#clip2_2002_70)">
<path fill-rule="evenodd" clip-rule="evenodd" d="M16.718 1.91243C17.9913 1.91243 19.4376 2.81218 20.1308 3.83086C20.7722 4.77386 20.938 5.53307 20.938 6.71152C20.938 8.71644 19.231 11.3677 17.9709 12.8092C17.7583 13.053 17.5769 13.2933 17.3498 13.5203L16.4405 14.521C15.8446 15.1108 14.8944 16.067 14.2674 16.5692C14.1893 16.6316 14.1592 16.6737 14.086 16.7421C13.3436 17.4365 12.5796 18.0864 11.4311 18.0864C10.4809 18.0864 9.92715 17.6407 9.41901 17.2106C9.33733 17.141 9.32772 17.1482 9.24363 17.0749C9.17516 17.0136 9.15353 16.9824 9.08266 16.9247L8.53127 16.455C8.38592 16.3145 8.34027 16.2652 8.1817 16.1391C7.94265 15.9481 7.77688 15.7259 7.515 15.5169C7.02728 15.1276 6.09749 14.0525 5.60017 13.5215C4.89622 12.7683 3.88475 11.4517 3.35859 10.564C2.53572 9.17533 2.01196 8.13983 2.01196 6.26825C2.01196 5.16308 2.55854 4.00745 3.28892 3.28068C4.85898 1.71903 6.89634 1.44754 8.71507 2.80858C9.64966 3.50892 10.3644 4.67296 10.493 5.87423C10.5458 6.37516 10.4137 6.73194 10.6227 7.12235C11.1116 8.03652 12.4534 7.67133 12.4534 6.62382C12.4534 5.4646 12.612 4.67656 13.3664 3.67109L13.901 3.09448C14.3094 2.77975 14.2698 2.71488 14.9269 2.38693C15.3929 2.15509 16.0476 1.91363 16.7192 1.91363L16.718 1.91243ZM0.100739 6.04481V6.93375C0.100739 8.54346 1.0053 10.409 1.62996 11.4481C1.82577 11.7749 2.01797 12.0536 2.22459 12.3635L3.68894 14.2759C4.4974 15.1829 4.83976 15.5625 5.73231 16.4538C6.39781 17.1193 8.25618 18.8336 8.95052 19.278C10.6167 20.346 12.8667 20.2186 14.4139 18.9813L17.1961 16.4755C18.9763 14.6952 20.7086 12.7767 21.8438 10.5039L22.3003 9.45042C22.824 7.97886 22.8505 7.67133 22.8505 6.13491C22.8505 4.58406 22.0684 2.97556 20.9957 1.90282C18.497 -0.595828 14.9545 -0.667905 12.3537 1.90282C12.1591 2.09502 11.5813 2.80858 11.5212 3.06926H11.4323C11.2954 2.48063 10.0905 1.37666 9.51271 0.989852C7.76606 -0.178987 5.6326 -0.320737 3.7454 0.625867C2.36754 1.3166 1.43175 2.24398 0.724199 3.64707C0.444303 4.20086 0.10194 5.22074 0.10194 6.04601L0.100739 6.04481Z" fill="#212529"/>
</g>
</g>
</g>
<defs>
<clipPath id="clip0_2002_70">
<rect width="22.73" height="20" fill="white" transform="translate(0.109985)"/>
</clipPath>
<clipPath id="clip1_2002_70">
<rect width="22.73" height="20" fill="white" transform="translate(0.109985)"/>
</clipPath>
<clipPath id="clip2_2002_70">
<rect width="22.7488" height="20" fill="white" transform="translate(0.100586)"/>
</clipPath>
</defs>
</svg>
