<svg width="1362" height="351" viewBox="0 0 1362 351" fill="none" xmlns="http://www.w3.org/2000/svg">
<g clip-path="url(#clip0_2_4719)">
<g clip-path="url(#clip1_2_4719)">
<g clip-path="url(#clip2_2_4719)">
<path d="M636.02 126.913C635.293 105.997 654.85 88.3444 679.691 87.4733C704.532 86.6022 725.263 102.883 725.98 123.769C726.657 143.034 710.106 159.525 688.071 162.689C686.329 174.123 691.704 179.44 691.704 179.44C688.009 177.952 684.653 175.723 681.84 172.89C679.028 170.057 676.817 166.678 675.342 162.959C653.705 160.957 636.676 145.847 636.02 126.913Z" fill="white" stroke="#CBD5E1" stroke-width="1.14453" stroke-linecap="round" stroke-linejoin="round"/>
<path d="M669.599 111.543C675.8 109.761 679.462 113.646 681.094 116.139C682.826 113.716 686.648 109.971 692.769 111.994C699.417 114.197 701.577 122.808 695.754 130.527C691.594 136.074 684.996 139.799 681.622 141.441C681.224 141.641 680.855 141.802 680.557 141.942L679.502 141.401C676.198 139.629 669.749 135.654 665.817 129.947C660.373 122.016 662.871 113.486 669.599 111.543Z" fill="#008DFF"/>
</g>
</g>
</g>
<path d="M571.992 223.44H568.972V217.28H563.312V223.44H560.292V209.16H563.312V214.76H568.972V209.16H571.992V223.44ZM579.845 212.32C580.858 212.32 581.725 212.513 582.445 212.9C583.178 213.287 583.745 213.847 584.145 214.58C584.545 215.313 584.745 216.213 584.745 217.28V218.72H577.705C577.732 219.56 577.978 220.22 578.445 220.7C578.925 221.18 579.585 221.42 580.425 221.42C581.132 221.42 581.772 221.353 582.345 221.22C582.918 221.073 583.512 220.853 584.125 220.56V222.86C583.592 223.127 583.025 223.32 582.425 223.44C581.838 223.573 581.125 223.64 580.285 223.64C579.192 223.64 578.225 223.44 577.385 223.04C576.545 222.627 575.885 222.007 575.405 221.18C574.925 220.353 574.685 219.313 574.685 218.06C574.685 216.78 574.898 215.72 575.325 214.88C575.765 214.027 576.372 213.387 577.145 212.96C577.918 212.533 578.818 212.32 579.845 212.32ZM579.865 214.44C579.292 214.44 578.812 214.627 578.425 215C578.052 215.373 577.832 215.953 577.765 216.74H581.945C581.945 216.3 581.865 215.907 581.705 215.56C581.558 215.213 581.332 214.94 581.025 214.74C580.718 214.54 580.332 214.44 579.865 214.44ZM596.202 214.76H592.622V223.44H589.642V214.76H586.062V212.52H596.202V214.76ZM612.235 223.44H609.255V214.76H606.515C606.381 216.36 606.215 217.727 606.015 218.86C605.828 219.98 605.588 220.893 605.295 221.6C605.015 222.307 604.655 222.827 604.215 223.16C603.775 223.48 603.235 223.64 602.595 223.64C602.248 223.64 601.935 223.613 601.655 223.56C601.375 223.507 601.121 223.427 600.895 223.32V220.94C601.041 220.993 601.195 221.04 601.355 221.08C601.515 221.12 601.681 221.14 601.855 221.14C602.041 221.14 602.215 221.067 602.375 220.92C602.548 220.773 602.708 220.513 602.855 220.14C603.015 219.767 603.161 219.253 603.295 218.6C603.428 217.947 603.548 217.127 603.655 216.14C603.775 215.14 603.881 213.933 603.975 212.52H612.235V223.44ZM630.425 217.96C630.425 219.173 630.218 220.207 629.805 221.06C629.392 221.9 628.798 222.54 628.025 222.98C627.265 223.42 626.358 223.64 625.305 223.64C624.412 223.64 623.605 223.473 622.885 223.14C622.178 222.793 621.598 222.273 621.145 221.58C620.705 220.887 620.418 220.007 620.285 218.94H618.325V223.44H615.345V212.52H618.325V216.72H620.325C620.458 215.773 620.745 214.973 621.185 214.32C621.638 213.667 622.218 213.173 622.925 212.84C623.645 212.493 624.458 212.32 625.365 212.32C626.352 212.32 627.225 212.54 627.985 212.98C628.745 213.42 629.338 214.06 629.765 214.9C630.205 215.727 630.425 216.747 630.425 217.96ZM623.285 217.96C623.285 218.68 623.352 219.287 623.485 219.78C623.632 220.26 623.858 220.627 624.165 220.88C624.472 221.12 624.865 221.24 625.345 221.24C625.825 221.24 626.212 221.12 626.505 220.88C626.812 220.627 627.032 220.26 627.165 219.78C627.312 219.287 627.385 218.68 627.385 217.96C627.385 217.24 627.312 216.64 627.165 216.16C627.032 215.68 626.812 215.32 626.505 215.08C626.212 214.84 625.818 214.72 625.325 214.72C624.845 214.72 624.452 214.84 624.145 215.08C623.852 215.32 623.632 215.68 623.485 216.16C623.352 216.64 623.285 217.24 623.285 217.96ZM632.224 216.9C632.224 215.287 632.424 213.92 632.824 212.8C633.224 211.667 633.858 210.767 634.724 210.1C635.591 209.42 636.724 208.96 638.124 208.72C638.831 208.6 639.544 208.5 640.264 208.42C640.998 208.327 641.751 208.233 642.524 208.14L642.864 210.74C642.531 210.78 642.164 210.827 641.764 210.88C641.364 210.92 640.958 210.967 640.544 211.02C640.144 211.06 639.758 211.107 639.384 211.16C639.011 211.213 638.671 211.26 638.364 211.3C637.871 211.38 637.438 211.493 637.064 211.64C636.691 211.773 636.378 211.967 636.124 212.22C635.871 212.473 635.671 212.82 635.524 213.26C635.391 213.687 635.304 214.24 635.264 214.92H635.404C635.564 214.667 635.784 214.413 636.064 214.16C636.358 213.907 636.718 213.693 637.144 213.52C637.571 213.347 638.058 213.26 638.604 213.26C639.471 213.26 640.224 213.44 640.864 213.8C641.504 214.16 641.998 214.693 642.344 215.4C642.691 216.107 642.864 216.987 642.864 218.04C642.864 219.28 642.638 220.313 642.184 221.14C641.731 221.967 641.104 222.593 640.304 223.02C639.504 223.433 638.578 223.64 637.524 223.64C636.724 223.64 635.998 223.493 635.344 223.2C634.691 222.907 634.131 222.473 633.664 221.9C633.198 221.327 632.838 220.62 632.584 219.78C632.344 218.94 632.224 217.98 632.224 216.9ZM637.704 221.22C638.131 221.22 638.498 221.127 638.804 220.94C639.124 220.753 639.371 220.447 639.544 220.02C639.731 219.593 639.824 219.02 639.824 218.3C639.824 217.433 639.678 216.747 639.384 216.24C639.104 215.72 638.611 215.46 637.904 215.46C637.478 215.46 637.078 215.567 636.704 215.78C636.344 215.98 636.038 216.213 635.784 216.48C635.531 216.733 635.358 216.953 635.264 217.14C635.264 217.66 635.304 218.167 635.384 218.66C635.464 219.14 635.598 219.573 635.784 219.96C635.971 220.347 636.218 220.653 636.524 220.88C636.844 221.107 637.238 221.22 637.704 221.22ZM648.206 216.84C648.206 217.067 648.192 217.347 648.166 217.68C648.152 218.013 648.132 218.353 648.106 218.7C648.092 219.047 648.072 219.353 648.046 219.62C648.019 219.887 647.999 220.073 647.986 220.18L653.026 212.52H656.606V223.44H653.726V219.08C653.726 218.72 653.739 218.327 653.766 217.9C653.792 217.46 653.819 217.053 653.846 216.68C653.886 216.293 653.912 216 653.926 215.8L648.906 223.44H645.326V212.52H648.206V216.84ZM673.48 212.52V223.44H670.7V218.08C670.7 217.547 670.707 217.027 670.72 216.52C670.747 216.013 670.78 215.547 670.82 215.12H670.76L667.74 223.44H665.5L662.44 215.1H662.36C662.413 215.54 662.447 216.013 662.46 216.52C662.487 217.013 662.5 217.56 662.5 218.16V223.44H659.72V212.52H663.94L666.66 219.92L669.42 212.52H673.48ZM676.595 223.44V212.52H679.575V216.74H681.015C682.135 216.74 683.055 216.86 683.775 217.1C684.495 217.327 685.028 217.68 685.375 218.16C685.735 218.64 685.915 219.24 685.915 219.96C685.915 220.667 685.748 221.28 685.415 221.8C685.095 222.32 684.582 222.727 683.875 223.02C683.182 223.3 682.262 223.44 681.115 223.44H676.595ZM680.955 221.38C681.542 221.38 682.015 221.273 682.375 221.06C682.748 220.847 682.935 220.493 682.935 220C682.935 219.573 682.762 219.267 682.415 219.08C682.082 218.893 681.582 218.8 680.915 218.8H679.575V221.38H680.955ZM687.495 223.44V212.52H690.475V223.44H687.495ZM695.827 217.86L692.307 212.52H695.687L697.807 216L699.947 212.52H703.327L699.767 217.86L703.487 223.44H700.107L697.807 219.7L695.507 223.44H692.127L695.827 217.86ZM719.308 212.52V223.44H716.328V214.76H712.368V223.44H709.388V212.52H719.308ZM728.515 212.32C729.742 212.32 730.735 212.8 731.495 213.76C732.255 214.707 732.635 216.107 732.635 217.96C732.635 219.2 732.455 220.247 732.095 221.1C731.735 221.94 731.242 222.573 730.615 223C729.988 223.427 729.262 223.64 728.435 223.64C727.915 223.64 727.462 223.573 727.075 223.44C726.702 223.307 726.382 223.133 726.115 222.92C725.848 222.707 725.615 222.48 725.415 222.24H725.255C725.308 222.493 725.348 222.76 725.375 223.04C725.402 223.307 725.415 223.573 725.415 223.84V228.24H722.435V212.52H724.855L725.275 213.94H725.415C725.615 213.647 725.855 213.38 726.135 213.14C726.415 212.887 726.748 212.687 727.135 212.54C727.535 212.393 727.995 212.32 728.515 212.32ZM727.555 214.7C727.035 214.7 726.622 214.807 726.315 215.02C726.008 215.233 725.782 215.56 725.635 216C725.502 216.427 725.428 216.967 725.415 217.62V217.94C725.415 218.647 725.482 219.247 725.615 219.74C725.748 220.22 725.975 220.587 726.295 220.84C726.615 221.093 727.048 221.22 727.595 221.22C728.048 221.22 728.422 221.093 728.715 220.84C729.008 220.587 729.228 220.213 729.375 219.72C729.522 219.227 729.595 218.627 729.595 217.92C729.595 216.853 729.428 216.053 729.095 215.52C728.775 214.973 728.262 214.7 727.555 214.7ZM745.011 217.96C745.011 218.867 744.885 219.673 744.631 220.38C744.391 221.087 744.038 221.687 743.571 222.18C743.118 222.66 742.565 223.027 741.911 223.28C741.258 223.52 740.518 223.64 739.691 223.64C738.931 223.64 738.225 223.52 737.571 223.28C736.931 223.027 736.378 222.66 735.911 222.18C735.445 221.687 735.078 221.087 734.811 220.38C734.558 219.673 734.431 218.867 734.431 217.96C734.431 216.747 734.645 215.727 735.071 214.9C735.498 214.06 736.111 213.42 736.911 212.98C737.711 212.54 738.658 212.32 739.751 212.32C740.778 212.32 741.685 212.54 742.471 212.98C743.258 213.42 743.878 214.06 744.331 214.9C744.785 215.727 745.011 216.747 745.011 217.96ZM737.471 217.96C737.471 218.68 737.545 219.287 737.691 219.78C737.851 220.26 738.098 220.627 738.431 220.88C738.765 221.12 739.198 221.24 739.731 221.24C740.265 221.24 740.691 221.12 741.011 220.88C741.345 220.627 741.585 220.26 741.731 219.78C741.891 219.287 741.971 218.68 741.971 217.96C741.971 217.24 741.891 216.64 741.731 216.16C741.585 215.68 741.345 215.32 741.011 215.08C740.678 214.84 740.245 214.72 739.711 214.72C738.925 214.72 738.351 214.993 737.991 215.54C737.645 216.073 737.471 216.88 737.471 217.96ZM757.294 212.52V221.26H758.894V227.36H756.214V223.44H748.874V227.36H746.194V221.26H747.114C747.594 220.527 748.001 219.693 748.334 218.76C748.667 217.813 748.934 216.807 749.134 215.74C749.334 214.673 749.481 213.6 749.574 212.52H757.294ZM752.074 214.76C751.967 215.56 751.834 216.34 751.674 217.1C751.514 217.847 751.314 218.567 751.074 219.26C750.847 219.953 750.567 220.62 750.234 221.26H754.314V214.76H752.074ZM759.195 212.52H762.455L764.515 218.66C764.582 218.86 764.635 219.06 764.675 219.26C764.729 219.46 764.769 219.667 764.795 219.88C764.835 220.093 764.862 220.32 764.875 220.56H764.935C764.975 220.213 765.029 219.887 765.095 219.58C765.175 219.26 765.262 218.953 765.355 218.66L767.375 212.52H770.575L765.955 224.84C765.675 225.587 765.309 226.213 764.855 226.72C764.415 227.227 763.902 227.607 763.315 227.86C762.729 228.113 762.089 228.24 761.395 228.24C761.062 228.24 760.769 228.22 760.515 228.18C760.275 228.153 760.062 228.12 759.875 228.08V225.72C760.022 225.747 760.195 225.773 760.395 225.8C760.609 225.827 760.829 225.84 761.055 225.84C761.469 225.84 761.822 225.753 762.115 225.58C762.422 225.407 762.675 225.167 762.875 224.86C763.075 224.567 763.235 224.247 763.355 223.9L763.535 223.36L759.195 212.52ZM779.302 212.52H782.582L778.262 217.76L782.962 223.44H779.582L775.122 217.9V223.44H772.142V212.52H775.122V217.82L779.302 212.52ZM793.565 214.76H789.985V223.44H787.005V214.76H783.425V212.52H793.565V214.76ZM805.304 217.96C805.304 218.867 805.178 219.673 804.924 220.38C804.684 221.087 804.331 221.687 803.864 222.18C803.411 222.66 802.858 223.027 802.204 223.28C801.551 223.52 800.811 223.64 799.984 223.64C799.224 223.64 798.518 223.52 797.864 223.28C797.224 223.027 796.671 222.66 796.204 222.18C795.738 221.687 795.371 221.087 795.104 220.38C794.851 219.673 794.724 218.867 794.724 217.96C794.724 216.747 794.938 215.727 795.364 214.9C795.791 214.06 796.404 213.42 797.204 212.98C798.004 212.54 798.951 212.32 800.044 212.32C801.071 212.32 801.978 212.54 802.764 212.98C803.551 213.42 804.171 214.06 804.624 214.9C805.078 215.727 805.304 216.747 805.304 217.96ZM797.764 217.96C797.764 218.68 797.838 219.287 797.984 219.78C798.144 220.26 798.391 220.627 798.724 220.88C799.058 221.12 799.491 221.24 800.024 221.24C800.558 221.24 800.984 221.12 801.304 220.88C801.638 220.627 801.878 220.26 802.024 219.78C802.184 219.287 802.264 218.68 802.264 217.96C802.264 217.24 802.184 216.64 802.024 216.16C801.878 215.68 801.638 215.32 801.304 215.08C800.971 214.84 800.538 214.72 800.004 214.72C799.218 214.72 798.644 214.993 798.284 215.54C797.938 216.073 797.764 216.88 797.764 217.96ZM817.447 215.38C817.447 215.967 817.26 216.467 816.887 216.88C816.527 217.293 815.987 217.56 815.267 217.68V217.76C816.027 217.853 816.634 218.113 817.087 218.54C817.554 218.967 817.787 219.513 817.787 220.18C817.787 220.647 817.694 221.08 817.507 221.48C817.334 221.88 817.054 222.227 816.667 222.52C816.28 222.813 815.78 223.04 815.167 223.2C814.567 223.36 813.834 223.44 812.967 223.44H807.767V212.52H812.967C813.82 212.52 814.58 212.613 815.247 212.8C815.927 212.973 816.46 213.267 816.847 213.68C817.247 214.093 817.447 214.66 817.447 215.38ZM814.707 220.02C814.707 219.593 814.54 219.287 814.207 219.1C813.874 218.9 813.374 218.8 812.707 218.8H810.747V221.38H812.767C813.327 221.38 813.787 221.28 814.147 221.08C814.52 220.867 814.707 220.513 814.707 220.02ZM814.427 215.62C814.427 215.273 814.294 215.02 814.027 214.86C813.76 214.7 813.367 214.62 812.847 214.62H810.747V216.78H812.507C813.134 216.78 813.607 216.693 813.927 216.52C814.26 216.333 814.427 216.033 814.427 215.62Z" fill="#212529"/>
<path d="M551.398 240.016V250.16H552.854V254.448H551.478V251.44H543.622V254.448H542.246V250.16H543.126C543.51 249.499 543.873 248.757 544.214 247.936C544.566 247.115 544.875 246.256 545.142 245.36C545.409 244.453 545.627 243.547 545.798 242.64C545.969 241.733 546.075 240.859 546.118 240.016H551.398ZM547.382 241.312C547.339 241.931 547.233 242.629 547.062 243.408C546.902 244.187 546.694 244.987 546.438 245.808C546.193 246.619 545.915 247.403 545.606 248.16C545.307 248.917 544.987 249.584 544.646 250.16H549.974V241.312H547.382ZM562.028 247.136C562.028 247.851 561.932 248.485 561.74 249.04C561.559 249.584 561.292 250.048 560.94 250.432C560.599 250.816 560.178 251.109 559.676 251.312C559.186 251.504 558.636 251.6 558.028 251.6C557.463 251.6 556.94 251.504 556.46 251.312C555.98 251.109 555.564 250.816 555.212 250.432C554.86 250.048 554.583 249.584 554.38 249.04C554.188 248.485 554.092 247.851 554.092 247.136C554.092 246.187 554.252 245.387 554.572 244.736C554.892 244.075 555.351 243.573 555.948 243.232C556.546 242.88 557.255 242.704 558.076 242.704C558.855 242.704 559.538 242.88 560.124 243.232C560.722 243.573 561.186 244.075 561.516 244.736C561.858 245.387 562.028 246.187 562.028 247.136ZM555.548 247.136C555.548 247.808 555.634 248.395 555.804 248.896C555.986 249.387 556.263 249.765 556.636 250.032C557.01 250.299 557.484 250.432 558.06 250.432C558.636 250.432 559.111 250.299 559.484 250.032C559.858 249.765 560.13 249.387 560.3 248.896C560.482 248.395 560.572 247.808 560.572 247.136C560.572 246.453 560.482 245.872 560.3 245.392C560.119 244.912 559.842 244.544 559.468 244.288C559.106 244.021 558.631 243.888 558.044 243.888C557.17 243.888 556.535 244.176 556.14 244.752C555.746 245.328 555.548 246.123 555.548 247.136ZM563.812 246.288C563.812 245.04 563.935 243.979 564.18 243.104C564.436 242.219 564.825 241.515 565.348 240.992C565.881 240.459 566.564 240.101 567.396 239.92C568.089 239.771 568.767 239.637 569.428 239.52C570.089 239.403 570.708 239.296 571.284 239.2L571.524 240.432C571.247 240.475 570.937 240.528 570.596 240.592C570.255 240.645 569.908 240.704 569.556 240.768C569.204 240.821 568.863 240.88 568.532 240.944C568.212 240.997 567.929 241.051 567.684 241.104C567.332 241.179 567.017 241.307 566.74 241.488C566.463 241.659 566.223 241.893 566.02 242.192C565.828 242.491 565.673 242.859 565.556 243.296C565.439 243.733 565.369 244.251 565.348 244.848H565.444C565.593 244.645 565.796 244.437 566.052 244.224C566.319 244.011 566.633 243.829 566.996 243.68C567.369 243.531 567.791 243.456 568.26 243.456C569.007 243.456 569.625 243.621 570.116 243.952C570.617 244.272 570.991 244.72 571.236 245.296C571.492 245.872 571.62 246.544 571.62 247.312C571.62 248.261 571.455 249.056 571.124 249.696C570.793 250.336 570.335 250.816 569.748 251.136C569.161 251.445 568.479 251.6 567.7 251.6C567.113 251.6 566.58 251.488 566.1 251.264C565.62 251.029 565.209 250.688 564.868 250.24C564.527 249.792 564.265 249.237 564.084 248.576C563.903 247.915 563.812 247.152 563.812 246.288ZM567.812 250.432C568.281 250.432 568.687 250.336 569.028 250.144C569.38 249.952 569.652 249.637 569.844 249.2C570.036 248.763 570.132 248.181 570.132 247.456C570.132 246.581 569.967 245.893 569.636 245.392C569.316 244.88 568.783 244.624 568.036 244.624C567.567 244.624 567.14 244.731 566.756 244.944C566.372 245.147 566.052 245.381 565.796 245.648C565.54 245.915 565.359 246.139 565.252 246.32C565.252 246.843 565.289 247.349 565.364 247.84C565.439 248.331 565.567 248.773 565.748 249.168C565.94 249.552 566.201 249.861 566.532 250.096C566.873 250.32 567.3 250.432 567.812 250.432ZM577.086 242.72C578.131 242.72 578.905 242.949 579.406 243.408C579.907 243.867 580.158 244.597 580.158 245.6V251.44H579.134L578.862 250.224H578.798C578.553 250.533 578.297 250.795 578.03 251.008C577.774 251.211 577.475 251.36 577.134 251.456C576.803 251.552 576.398 251.6 575.918 251.6C575.406 251.6 574.942 251.509 574.526 251.328C574.121 251.147 573.801 250.869 573.566 250.496C573.331 250.112 573.214 249.632 573.214 249.056C573.214 248.203 573.55 247.547 574.222 247.088C574.894 246.619 575.929 246.363 577.326 246.32L578.782 246.272V245.76C578.782 245.045 578.627 244.549 578.318 244.272C578.009 243.995 577.571 243.856 577.006 243.856C576.558 243.856 576.131 243.925 575.726 244.064C575.321 244.192 574.942 244.341 574.59 244.512L574.158 243.456C574.531 243.253 574.974 243.083 575.486 242.944C575.998 242.795 576.531 242.72 577.086 242.72ZM577.502 247.296C576.435 247.339 575.694 247.509 575.278 247.808C574.873 248.107 574.67 248.528 574.67 249.072C574.67 249.552 574.814 249.904 575.102 250.128C575.401 250.352 575.779 250.464 576.238 250.464C576.963 250.464 577.566 250.267 578.046 249.872C578.526 249.467 578.766 248.848 578.766 248.016V247.248L577.502 247.296ZM589.703 245.024C589.703 245.557 589.543 245.973 589.223 246.272C588.903 246.571 588.492 246.773 587.991 246.88V246.944C588.524 247.019 588.988 247.211 589.383 247.52C589.777 247.819 589.975 248.288 589.975 248.928C589.975 249.291 589.905 249.627 589.767 249.936C589.639 250.245 589.436 250.512 589.159 250.736C588.881 250.96 588.524 251.136 588.087 251.264C587.649 251.381 587.121 251.44 586.503 251.44H582.807V242.864H586.487C587.095 242.864 587.639 242.933 588.119 243.072C588.609 243.2 588.993 243.424 589.271 243.744C589.559 244.053 589.703 244.48 589.703 245.024ZM588.519 248.928C588.519 248.437 588.332 248.085 587.959 247.872C587.585 247.659 587.036 247.552 586.311 247.552H584.215V250.304H586.343C587.047 250.304 587.585 250.203 587.959 250C588.332 249.787 588.519 249.429 588.519 248.928ZM588.279 245.2C588.279 244.795 588.129 244.501 587.831 244.32C587.543 244.128 587.068 244.032 586.407 244.032H584.215V246.384H586.151C586.844 246.384 587.372 246.288 587.735 246.096C588.097 245.904 588.279 245.605 588.279 245.2ZM593.354 248.096C593.354 248.192 593.348 248.331 593.338 248.512C593.338 248.683 593.332 248.869 593.322 249.072C593.311 249.264 593.3 249.451 593.29 249.632C593.279 249.803 593.268 249.941 593.258 250.048L597.85 242.864H599.578V251.44H598.266V246.384C598.266 246.213 598.266 245.989 598.266 245.712C598.276 245.435 598.287 245.163 598.298 244.896C598.308 244.619 598.319 244.411 598.33 244.272L593.77 251.44H592.026V242.864H593.354V248.096ZM608.227 244.048H605.427V251.44H604.035V244.048H601.267V242.864H608.227V244.048ZM613.868 246.384C614.615 246.384 615.233 246.475 615.724 246.656C616.215 246.837 616.583 247.109 616.828 247.472C617.084 247.824 617.212 248.272 617.212 248.816C617.212 249.349 617.089 249.813 616.844 250.208C616.609 250.603 616.241 250.907 615.74 251.12C615.239 251.333 614.593 251.44 613.804 251.44H609.916V242.864H611.324V246.384H613.868ZM615.804 248.896C615.804 248.373 615.617 248.021 615.244 247.84C614.881 247.648 614.369 247.552 613.708 247.552H611.324V250.304H613.74C614.337 250.304 614.828 250.197 615.212 249.984C615.607 249.771 615.804 249.408 615.804 248.896ZM627.012 251.6C626.255 251.6 625.578 251.445 624.98 251.136C624.394 250.827 623.93 250.347 623.588 249.696C623.258 249.045 623.092 248.213 623.092 247.2C623.092 246.144 623.268 245.285 623.62 244.624C623.972 243.963 624.447 243.477 625.044 243.168C625.652 242.859 626.34 242.704 627.108 242.704C627.546 242.704 627.967 242.752 628.372 242.848C628.778 242.933 629.108 243.04 629.364 243.168L628.932 244.336C628.676 244.24 628.378 244.149 628.036 244.064C627.695 243.979 627.375 243.936 627.076 243.936C626.5 243.936 626.026 244.059 625.652 244.304C625.279 244.549 625.002 244.912 624.82 245.392C624.639 245.872 624.548 246.469 624.548 247.184C624.548 247.867 624.639 248.448 624.82 248.928C625.002 249.408 625.274 249.771 625.636 250.016C625.999 250.261 626.452 250.384 626.996 250.384C627.466 250.384 627.876 250.336 628.228 250.24C628.591 250.144 628.922 250.027 629.22 249.888V251.136C628.932 251.285 628.612 251.397 628.26 251.472C627.919 251.557 627.503 251.6 627.012 251.6ZM638.856 251.6C638.099 251.6 637.421 251.445 636.824 251.136C636.237 250.827 635.773 250.347 635.432 249.696C635.101 249.045 634.936 248.213 634.936 247.2C634.936 246.144 635.112 245.285 635.464 244.624C635.816 243.963 636.291 243.477 636.888 243.168C637.496 242.859 638.184 242.704 638.952 242.704C639.389 242.704 639.811 242.752 640.216 242.848C640.621 242.933 640.952 243.04 641.208 243.168L640.776 244.336C640.52 244.24 640.221 244.149 639.88 244.064C639.539 243.979 639.219 243.936 638.92 243.936C638.344 243.936 637.869 244.059 637.496 244.304C637.123 244.549 636.845 244.912 636.664 245.392C636.483 245.872 636.392 246.469 636.392 247.184C636.392 247.867 636.483 248.448 636.664 248.928C636.845 249.408 637.117 249.771 637.48 250.016C637.843 250.261 638.296 250.384 638.84 250.384C639.309 250.384 639.72 250.336 640.072 250.24C640.435 250.144 640.765 250.027 641.064 249.888V251.136C640.776 251.285 640.456 251.397 640.104 251.472C639.763 251.557 639.347 251.6 638.856 251.6ZM644.432 248.096C644.432 248.192 644.426 248.331 644.416 248.512C644.416 248.683 644.41 248.869 644.4 249.072C644.389 249.264 644.378 249.451 644.368 249.632C644.357 249.803 644.346 249.941 644.336 250.048L648.928 242.864H650.656V251.44H649.344V246.384C649.344 246.213 649.344 245.989 649.344 245.712C649.354 245.435 649.365 245.163 649.376 244.896C649.386 244.619 649.397 244.411 649.408 244.272L644.848 251.44H643.104V242.864H644.432V248.096ZM662.585 242.864V251.44H661.321V245.968C661.321 245.744 661.326 245.509 661.337 245.264C661.358 245.019 661.38 244.779 661.401 244.544H661.353L658.553 251.44H657.369L654.649 244.544H654.601C654.622 244.779 654.633 245.019 654.633 245.264C654.644 245.509 654.649 245.76 654.649 246.016V251.44H653.385V242.864H655.257L657.961 249.76L660.713 242.864H662.585ZM672.218 245.024C672.218 245.557 672.058 245.973 671.738 246.272C671.418 246.571 671.008 246.773 670.506 246.88V246.944C671.04 247.019 671.504 247.211 671.898 247.52C672.293 247.819 672.49 248.288 672.49 248.928C672.49 249.291 672.421 249.627 672.282 249.936C672.154 250.245 671.952 250.512 671.674 250.736C671.397 250.96 671.04 251.136 670.602 251.264C670.165 251.381 669.637 251.44 669.018 251.44H665.322V242.864H669.002C669.61 242.864 670.154 242.933 670.634 243.072C671.125 243.2 671.509 243.424 671.786 243.744C672.074 244.053 672.218 244.48 672.218 245.024ZM671.034 248.928C671.034 248.437 670.848 248.085 670.474 247.872C670.101 247.659 669.552 247.552 668.826 247.552H666.73V250.304H668.858C669.562 250.304 670.101 250.203 670.474 250C670.848 249.787 671.034 249.429 671.034 248.928ZM670.794 245.2C670.794 244.795 670.645 244.501 670.346 244.32C670.058 244.128 669.584 244.032 668.922 244.032H666.73V246.384H668.666C669.36 246.384 669.888 246.288 670.25 246.096C670.613 245.904 670.794 245.605 670.794 245.2ZM681.997 247.136C681.997 247.851 681.901 248.485 681.709 249.04C681.528 249.584 681.261 250.048 680.909 250.432C680.568 250.816 680.146 251.109 679.645 251.312C679.154 251.504 678.605 251.6 677.997 251.6C677.432 251.6 676.909 251.504 676.429 251.312C675.949 251.109 675.533 250.816 675.181 250.432C674.829 250.048 674.552 249.584 674.349 249.04C674.157 248.485 674.061 247.851 674.061 247.136C674.061 246.187 674.221 245.387 674.541 244.736C674.861 244.075 675.32 243.573 675.917 243.232C676.514 242.88 677.224 242.704 678.045 242.704C678.824 242.704 679.506 242.88 680.093 243.232C680.69 243.573 681.154 244.075 681.485 244.736C681.826 245.387 681.997 246.187 681.997 247.136ZM675.517 247.136C675.517 247.808 675.602 248.395 675.773 248.896C675.954 249.387 676.232 249.765 676.605 250.032C676.978 250.299 677.453 250.432 678.029 250.432C678.605 250.432 679.08 250.299 679.453 250.032C679.826 249.765 680.098 249.387 680.269 248.896C680.45 248.395 680.541 247.808 680.541 247.136C680.541 246.453 680.45 245.872 680.269 245.392C680.088 244.912 679.81 244.544 679.437 244.288C679.074 244.021 678.6 243.888 678.013 243.888C677.138 243.888 676.504 244.176 676.109 244.752C675.714 245.328 675.517 246.123 675.517 247.136ZM690.757 251.44H689.333V244.032H686.805C686.698 245.387 686.565 246.544 686.405 247.504C686.245 248.453 686.042 249.227 685.797 249.824C685.551 250.421 685.258 250.859 684.917 251.136C684.575 251.413 684.175 251.552 683.717 251.552C683.578 251.552 683.439 251.541 683.301 251.52C683.173 251.509 683.066 251.483 682.981 251.44V250.384C683.045 250.405 683.114 250.421 683.189 250.432C683.263 250.443 683.338 250.448 683.413 250.448C683.647 250.448 683.861 250.352 684.053 250.16C684.245 249.968 684.415 249.675 684.565 249.28C684.725 248.885 684.869 248.389 684.997 247.792C685.125 247.184 685.237 246.469 685.333 245.648C685.429 244.827 685.514 243.899 685.589 242.864H690.757V251.44ZM700.935 247.136C700.935 247.851 700.839 248.485 700.647 249.04C700.465 249.584 700.199 250.048 699.847 250.432C699.505 250.816 699.084 251.109 698.583 251.312C698.092 251.504 697.543 251.6 696.935 251.6C696.369 251.6 695.847 251.504 695.367 251.312C694.887 251.109 694.471 250.816 694.119 250.432C693.767 250.048 693.489 249.584 693.287 249.04C693.095 248.485 692.999 247.851 692.999 247.136C692.999 246.187 693.159 245.387 693.479 244.736C693.799 244.075 694.257 243.573 694.855 243.232C695.452 242.88 696.161 242.704 696.983 242.704C697.761 242.704 698.444 242.88 699.031 243.232C699.628 243.573 700.092 244.075 700.423 244.736C700.764 245.387 700.935 246.187 700.935 247.136ZM694.455 247.136C694.455 247.808 694.54 248.395 694.711 248.896C694.892 249.387 695.169 249.765 695.543 250.032C695.916 250.299 696.391 250.432 696.967 250.432C697.543 250.432 698.017 250.299 698.391 250.032C698.764 249.765 699.036 249.387 699.207 248.896C699.388 248.395 699.479 247.808 699.479 247.136C699.479 246.453 699.388 245.872 699.207 245.392C699.025 244.912 698.748 244.544 698.375 244.288C698.012 244.021 697.537 243.888 696.951 243.888C696.076 243.888 695.441 244.176 695.047 244.752C694.652 245.328 694.455 246.123 694.455 247.136ZM712.366 242.864V251.44H711.102V245.968C711.102 245.744 711.107 245.509 711.118 245.264C711.139 245.019 711.161 244.779 711.182 244.544H711.134L708.334 251.44H707.15L704.43 244.544H704.382C704.403 244.779 704.414 245.019 704.414 245.264C704.425 245.509 704.43 245.76 704.43 246.016V251.44H703.166V242.864H705.038L707.742 249.76L710.494 242.864H712.366Z" fill="#212529"/>
<g clip-path="url(#clip3_2_4719)">
<g clip-path="url(#clip4_2_4719)">
<g clip-path="url(#clip5_2_4719)">
<mask id="mask0_2_4719" style="mask-type:luminance" maskUnits="userSpaceOnUse" x="707" y="237" width="20" height="20">
<path d="M726.89 237.55H707.89V256.55H726.89V237.55Z" fill="white"/>
</mask>
<g mask="url(#mask0_2_4719)">
<path d="M725.046 239.873C723.012 238.14 719.988 238.452 718.121 240.378L717.39 241.131L716.659 240.378C714.796 238.452 711.768 238.14 709.734 239.873C707.404 241.862 707.282 245.432 709.367 247.588L716.548 255.002C717.012 255.481 717.765 255.481 718.229 255.002L725.409 247.588C727.499 245.432 727.376 241.862 725.046 239.873Z" fill="#FF0000"/>
</g>
</g>
</g>
</g>
<path d="M733.855 242.864V246.432H738.511V242.864H739.919V251.44H738.511V247.616H733.855V251.44H732.447V242.864H733.855ZM745.882 242.72C746.928 242.72 747.701 242.949 748.202 243.408C748.704 243.867 748.954 244.597 748.954 245.6V251.44H747.93L747.658 250.224H747.594C747.349 250.533 747.093 250.795 746.826 251.008C746.57 251.211 746.272 251.36 745.93 251.456C745.6 251.552 745.194 251.6 744.714 251.6C744.202 251.6 743.738 251.509 743.322 251.328C742.917 251.147 742.597 250.869 742.362 250.496C742.128 250.112 742.01 249.632 742.01 249.056C742.01 248.203 742.346 247.547 743.018 247.088C743.69 246.619 744.725 246.363 746.122 246.32L747.578 246.272V245.76C747.578 245.045 747.424 244.549 747.114 244.272C746.805 243.995 746.368 243.856 745.802 243.856C745.354 243.856 744.928 243.925 744.522 244.064C744.117 244.192 743.738 244.341 743.386 244.512L742.954 243.456C743.328 243.253 743.77 243.083 744.282 242.944C744.794 242.795 745.328 242.72 745.882 242.72ZM746.298 247.296C745.232 247.339 744.49 247.509 744.074 247.808C743.669 248.107 743.466 248.528 743.466 249.072C743.466 249.552 743.61 249.904 743.898 250.128C744.197 250.352 744.576 250.464 745.034 250.464C745.76 250.464 746.362 250.267 746.842 249.872C747.322 249.467 747.562 248.848 747.562 248.016V247.248L746.298 247.296ZM763.007 242.864V251.44H761.599V244.064H757.167V251.44H755.759V242.864H763.007ZM769.824 242.704C770.88 242.704 771.728 243.072 772.368 243.808C773.018 244.544 773.344 245.653 773.344 247.136C773.344 248.107 773.194 248.928 772.896 249.6C772.608 250.261 772.197 250.763 771.664 251.104C771.141 251.435 770.522 251.6 769.808 251.6C769.37 251.6 768.981 251.541 768.64 251.424C768.298 251.307 768.005 251.157 767.76 250.976C767.525 250.784 767.322 250.576 767.152 250.352H767.056C767.077 250.533 767.098 250.763 767.12 251.04C767.141 251.317 767.152 251.557 767.152 251.76V255.28H765.744V242.864H766.896L767.088 244.032H767.152C767.322 243.787 767.525 243.563 767.76 243.36C768.005 243.157 768.293 242.997 768.624 242.88C768.965 242.763 769.365 242.704 769.824 242.704ZM769.568 243.888C768.992 243.888 768.528 244 768.176 244.224C767.824 244.437 767.568 244.763 767.408 245.2C767.248 245.637 767.162 246.192 767.152 246.864V247.136C767.152 247.84 767.226 248.437 767.376 248.928C767.525 249.419 767.776 249.792 768.128 250.048C768.49 250.304 768.981 250.432 769.6 250.432C770.122 250.432 770.549 250.288 770.88 250C771.221 249.712 771.472 249.323 771.632 248.832C771.802 248.331 771.888 247.76 771.888 247.12C771.888 246.139 771.696 245.355 771.312 244.768C770.938 244.181 770.357 243.888 769.568 243.888ZM783.043 247.136C783.043 247.851 782.947 248.485 782.755 249.04C782.574 249.584 782.307 250.048 781.955 250.432C781.614 250.816 781.193 251.109 780.691 251.312C780.201 251.504 779.651 251.6 779.043 251.6C778.478 251.6 777.955 251.504 777.475 251.312C776.995 251.109 776.579 250.816 776.227 250.432C775.875 250.048 775.598 249.584 775.395 249.04C775.203 248.485 775.107 247.851 775.107 247.136C775.107 246.187 775.267 245.387 775.587 244.736C775.907 244.075 776.366 243.573 776.963 243.232C777.561 242.88 778.27 242.704 779.091 242.704C779.87 242.704 780.553 242.88 781.139 243.232C781.737 243.573 782.201 244.075 782.531 244.736C782.873 245.387 783.043 246.187 783.043 247.136ZM776.563 247.136C776.563 247.808 776.649 248.395 776.819 248.896C777.001 249.387 777.278 249.765 777.651 250.032C778.025 250.299 778.499 250.432 779.075 250.432C779.651 250.432 780.126 250.299 780.499 250.032C780.873 249.765 781.145 249.387 781.315 248.896C781.497 248.395 781.587 247.808 781.587 247.136C781.587 246.453 781.497 245.872 781.315 245.392C781.134 244.912 780.857 244.544 780.483 244.288C780.121 244.021 779.646 243.888 779.059 243.888C778.185 243.888 777.55 244.176 777.155 244.752C776.761 245.328 776.563 246.123 776.563 247.136ZM791.643 242.864V250.256H792.891V254.416H791.531V251.44H785.563V254.416H784.219V250.256H784.907C785.398 249.573 785.803 248.832 786.123 248.032C786.454 247.221 786.699 246.379 786.859 245.504C787.03 244.619 787.12 243.739 787.131 242.864H791.643ZM788.379 243.968C788.336 244.693 788.224 245.445 788.043 246.224C787.862 246.992 787.627 247.728 787.339 248.432C787.062 249.136 786.736 249.744 786.363 250.256H790.283V243.968H788.379ZM793.228 242.864H794.732L796.588 247.744C796.695 248.032 796.791 248.309 796.876 248.576C796.972 248.843 797.057 249.104 797.132 249.36C797.207 249.605 797.265 249.845 797.308 250.08H797.372C797.436 249.813 797.537 249.467 797.676 249.04C797.815 248.603 797.959 248.165 798.108 247.728L799.852 242.864H801.372L797.676 252.624C797.473 253.157 797.233 253.621 796.956 254.016C796.689 254.421 796.359 254.731 795.964 254.944C795.58 255.168 795.111 255.28 794.556 255.28C794.3 255.28 794.076 255.264 793.884 255.232C793.692 255.211 793.527 255.184 793.388 255.152V254.032C793.505 254.053 793.644 254.075 793.804 254.096C793.975 254.117 794.151 254.128 794.332 254.128C794.663 254.128 794.945 254.064 795.18 253.936C795.425 253.819 795.633 253.643 795.804 253.408C795.975 253.184 796.119 252.917 796.236 252.608L796.684 251.472L793.228 242.864ZM807.8 242.864H809.336L805.672 246.992L809.64 251.44H808.008L804.136 247.088V251.44H802.728V242.864H804.136V247.024L807.8 242.864ZM817.117 244.048H814.317V251.44H812.925V244.048H810.157V242.864H817.117V244.048ZM821.962 242.704C822.698 242.704 823.327 242.864 823.85 243.184C824.383 243.504 824.789 243.957 825.066 244.544C825.354 245.12 825.498 245.797 825.498 246.576V247.424H819.626C819.647 248.395 819.893 249.136 820.362 249.648C820.842 250.149 821.509 250.4 822.362 250.4C822.906 250.4 823.386 250.352 823.802 250.256C824.229 250.149 824.666 250 825.114 249.808V251.04C824.677 251.232 824.245 251.371 823.818 251.456C823.391 251.552 822.885 251.6 822.298 251.6C821.487 251.6 820.767 251.435 820.138 251.104C819.519 250.773 819.034 250.283 818.682 249.632C818.341 248.971 818.17 248.165 818.17 247.216C818.17 246.277 818.325 245.472 818.634 244.8C818.954 244.128 819.397 243.611 819.962 243.248C820.538 242.885 821.205 242.704 821.962 242.704ZM821.946 243.856C821.274 243.856 820.741 244.075 820.346 244.512C819.962 244.939 819.733 245.536 819.658 246.304H824.026C824.026 245.813 823.951 245.387 823.802 245.024C823.653 244.661 823.423 244.379 823.114 244.176C822.815 243.963 822.426 243.856 821.946 243.856Z" fill="#212529"/>
<defs>
<clipPath id="clip0_2_4719">
<rect width="93" height="94" fill="white" transform="translate(634.5 86.4399)"/>
</clipPath>
<clipPath id="clip1_2_4719">
<rect width="93" height="94" fill="white" transform="translate(634.5 86.4399)"/>
</clipPath>
<clipPath id="clip2_2_4719">
<rect width="93" height="94" fill="white" transform="translate(634.5 86.4399)"/>
</clipPath>
<clipPath id="clip3_2_4719">
<rect width="19" height="19" fill="white" transform="translate(707.89 237.55)"/>
</clipPath>
<clipPath id="clip4_2_4719">
<rect width="19" height="19" fill="white" transform="translate(707.89 237.55)"/>
</clipPath>
<clipPath id="clip5_2_4719">
<rect width="19" height="19" fill="white" transform="translate(707.89 237.55)"/>
</clipPath>
</defs>
</svg>
