<svg width="55" height="40" viewBox="0 0 55 40" fill="none" xmlns="http://www.w3.org/2000/svg">
<g clip-path="url(#clip0_2_50)">
<g clip-path="url(#clip1_2_50)">
<g clip-path="url(#clip2_2_50)">
<path d="M35.469 12.7432H12.824C12.5941 12.7442 12.3667 12.7905 12.1547 12.8795C11.9427 12.9685 11.7503 13.0984 11.5886 13.2617C11.4268 13.4251 11.2988 13.6187 11.2119 13.8315C11.125 14.0444 11.0808 14.2723 11.082 14.5022V37.3622C11.082 38.3332 11.862 39.1212 12.824 39.1212H35.469C35.6989 39.1201 35.9263 39.0738 36.1383 38.9848C36.3503 38.8958 36.5427 38.7659 36.7045 38.6026C36.8662 38.4392 36.9942 38.2456 37.0812 38.0328C37.1681 37.8199 37.2122 37.5921 37.211 37.3622V14.5022C37.2122 14.2723 37.1681 14.0444 37.0812 13.8315C36.9942 13.6187 36.8662 13.4251 36.7045 13.2617C36.5427 13.0984 36.3503 12.9685 36.1383 12.8795C35.9263 12.7905 35.6989 12.7442 35.469 12.7432Z" fill="#DFF1FF"/>
<path d="M28.501 26.8112L24.146 23.2942L19.791 26.8112V12.7432H28.501V26.8112Z" fill="#006BFF"/>
<path d="M13.695 33.8452H17.178V36.4832H13.695V33.8452Z" fill="#DFF1FF"/>
<path d="M38.082 26.811H43.307C44.3378 26.809 45.3581 26.603 46.3089 26.2048C47.2598 25.8067 48.1224 25.2242 48.847 24.491C50.3196 23.0018 51.146 20.9923 51.147 18.898V9.227C51.146 7.13269 50.3196 5.12317 48.847 3.634C48.1224 2.90082 47.2598 2.31834 46.3089 1.92015C45.3581 1.52197 44.3378 1.31596 43.307 1.314H31.39V0L27.63 2.193L31.39 4.385V3.072H43.307C44.109 3.07348 44.9027 3.23374 45.6425 3.54354C46.3822 3.85334 47.0533 4.30654 47.617 4.877C48.7616 6.03551 49.4037 7.5984 49.404 9.227V18.898C49.4034 20.5267 48.761 22.0896 47.616 23.248C47.0525 23.8184 46.3815 24.2715 45.642 24.5813C44.9024 24.8911 44.1088 25.0514 43.307 25.053H38.082V14.502C38.0816 13.8039 37.806 13.1342 37.315 12.638C37.0736 12.3936 36.7862 12.1994 36.4693 12.0665C36.1525 11.9337 35.8125 11.8649 35.469 11.864H12.824C12.4803 11.8649 12.1402 11.9337 11.8232 12.0666C11.5062 12.1994 11.2186 12.3936 10.977 12.638C10.4865 13.1345 10.2113 13.8041 10.211 14.502V37.362C10.211 37.662 10.261 37.959 10.361 38.242H1.5C1.38544 38.242 1.27201 38.2647 1.16628 38.3088C1.06055 38.353 0.964607 38.4176 0.884002 38.499C0.720401 38.6645 0.628647 38.8878 0.628647 39.1205C0.628647 39.3532 0.720401 39.5765 0.884002 39.742C0.964525 39.8236 1.06043 39.8884 1.16616 39.9327C1.2719 39.977 1.38537 39.9999 1.5 40H50.274C50.3886 39.9999 50.5021 39.977 50.6078 39.9327C50.7136 39.8884 50.8095 39.8236 50.89 39.742C51.0538 39.5766 51.1458 39.3533 51.1458 39.1205C51.1458 38.8877 51.0538 38.6644 50.89 38.499C50.8095 38.4174 50.7136 38.3526 50.6078 38.3083C50.5021 38.264 50.3886 38.2411 50.274 38.241H37.931C38.031 37.959 38.081 37.661 38.081 37.362V26.812L38.082 26.811ZM20.662 13.623H27.63V24.982L24.69 22.608C24.5358 22.484 24.3439 22.4164 24.146 22.4164C23.9481 22.4164 23.7562 22.484 23.602 22.608L20.662 24.981V13.623ZM36.34 25.053H32.856C32.7414 25.053 32.628 25.0757 32.5223 25.1198C32.4165 25.164 32.3206 25.2286 32.24 25.31C32.0761 25.4755 31.9842 25.6991 31.9842 25.932C31.9842 26.1649 32.0761 26.3885 32.24 26.554C32.3206 26.6354 32.4165 26.7 32.5223 26.7442C32.628 26.7883 32.7414 26.811 32.856 26.811H36.34V37.362C36.34 37.595 36.248 37.8185 36.084 37.984C36.0036 38.0655 35.9079 38.1302 35.8023 38.1745C35.6967 38.2188 35.5835 38.2417 35.469 38.242H12.824C12.7094 38.2418 12.5959 38.2189 12.4902 38.1746C12.3845 38.1303 12.2886 38.0655 12.208 37.984C12.0445 37.8183 11.9529 37.5948 11.953 37.362V14.502C11.953 14.269 12.045 14.045 12.208 13.881C12.2886 13.7995 12.3845 13.7347 12.4902 13.6904C12.5959 13.6461 12.7094 13.6232 12.824 13.623H18.92V26.81C18.9203 26.9751 18.9667 27.1368 19.054 27.2769C19.1413 27.417 19.266 27.53 19.414 27.603C19.5618 27.675 19.7271 27.7033 19.8905 27.6845C20.0538 27.6657 20.2084 27.6007 20.336 27.497L24.146 24.42L27.956 27.497C28.0517 27.5743 28.1627 27.6303 28.2817 27.6614C28.4007 27.6925 28.5249 27.6979 28.6462 27.6773C28.7675 27.6567 28.8829 27.6105 28.985 27.5418C29.087 27.4732 29.1733 27.3836 29.238 27.279C29.3257 27.1383 29.3722 26.9758 29.372 26.81V13.623H35.469C35.699 13.623 35.921 13.716 36.084 13.881C36.2476 14.0463 36.3396 14.2694 36.34 14.502V25.053Z" fill="#006BFF"/>
<path d="M17.178 32.9658H13.695C13.5804 32.966 13.4669 32.9888 13.3612 33.0331C13.2554 33.0774 13.1595 33.1422 13.079 33.2238C12.9157 33.3892 12.824 33.6123 12.824 33.8448V36.4828C12.824 36.7158 12.915 36.9398 13.079 37.1048C13.1596 37.1862 13.2556 37.2509 13.3613 37.295C13.467 37.3391 13.5804 37.3618 13.695 37.3618H17.178C17.2926 37.3618 17.406 37.3391 17.5117 37.295C17.6175 37.2509 17.7134 37.1862 17.794 37.1048C17.9577 36.9392 18.0493 36.7157 18.049 36.4828V33.8448C18.0491 33.6123 17.9574 33.3892 17.794 33.2238C17.7135 33.1422 17.6176 33.0774 17.5118 33.0331C17.4061 32.9888 17.2926 32.966 17.178 32.9658ZM16.308 35.6038H14.565V34.7238H16.307V35.6038H16.308ZM23.275 32.9658H19.791C19.6764 32.966 19.5629 32.9888 19.4572 33.0331C19.3514 33.0774 19.2555 33.1422 19.175 33.2238C19.0112 33.3892 18.9192 33.6125 18.9192 33.8453C18.9192 34.0781 19.0112 34.3015 19.175 34.4668C19.2555 34.5484 19.3514 34.6132 19.4572 34.6575C19.5629 34.7018 19.6764 34.7247 19.791 34.7248H23.275C23.3896 34.7247 23.5031 34.7018 23.6088 34.6575C23.7146 34.6132 23.8105 34.5484 23.891 34.4668C24.0546 34.3013 24.1464 34.078 24.1464 33.8453C24.1464 33.6126 24.0546 33.3893 23.891 33.2238C23.8105 33.1422 23.7146 33.0774 23.6088 33.0331C23.5031 32.9888 23.3896 32.966 23.275 32.9658ZM20.662 35.6038H19.792C19.6773 35.6037 19.5637 35.6264 19.4577 35.6705C19.3518 35.7146 19.2557 35.7793 19.175 35.8608C19.0109 36.0262 18.9187 36.2498 18.9187 36.4828C18.9187 36.7158 19.0109 36.9394 19.175 37.1048C19.2556 37.1862 19.3516 37.2509 19.4573 37.295C19.563 37.3391 19.6764 37.3618 19.791 37.3618H20.662C20.7766 37.3618 20.89 37.3391 20.9957 37.295C21.1015 37.2509 21.1974 37.1862 21.278 37.1048C21.4419 36.9393 21.5339 36.7158 21.5339 36.4828C21.5339 36.2499 21.4419 36.0263 21.278 35.8608C21.1974 35.7794 21.1015 35.7148 20.9957 35.6707C20.89 35.6266 20.7766 35.6038 20.662 35.6038ZM53.759 38.2418H52.889C52.7743 38.2417 52.6607 38.2644 52.5547 38.3085C52.4488 38.3526 52.3527 38.4173 52.272 38.4988C52.1082 38.6642 52.0162 38.8875 52.0162 39.1203C52.0162 39.3531 52.1082 39.5765 52.272 39.7418C52.3525 39.8234 52.4484 39.8882 52.5542 39.9325C52.6599 39.9768 52.7734 39.9997 52.888 39.9998H53.759C53.8736 39.9997 53.9871 39.9768 54.0928 39.9325C54.1986 39.8882 54.2945 39.8234 54.375 39.7418C54.5386 39.5763 54.6304 39.353 54.6304 39.1203C54.6304 38.8876 54.5386 38.6643 54.375 38.4988C54.2945 38.4172 54.1986 38.3524 54.0928 38.3081C53.9871 38.2638 53.8736 38.242 53.759 38.2418Z" fill="#006BFF"/>
</g>
</g>
</g>
<defs>
<clipPath id="clip0_2_50">
<rect width="54" height="40" fill="white" transform="translate(0.630005)"/>
</clipPath>
<clipPath id="clip1_2_50">
<rect width="54" height="40" fill="white" transform="translate(0.630005)"/>
</clipPath>
<clipPath id="clip2_2_50">
<rect width="54" height="40" fill="white" transform="translate(0.630005)"/>
</clipPath>
</defs>
</svg>
