<svg width="45" height="40" viewBox="0 0 45 40" fill="none" xmlns="http://www.w3.org/2000/svg">
<g clip-path="url(#clip0_2_26)">
<g clip-path="url(#clip1_2_26)">
<g clip-path="url(#clip2_2_26)">
<path d="M44.275 16.062C44.275 24.932 37.085 32.124 28.214 32.124C19.343 32.124 12.152 24.933 12.152 16.062C12.152 7.192 19.343 0 28.213 0C37.084 0 44.275 7.191 44.275 16.062Z" fill="#DFF1FF"/>
<path d="M31.007 36.314H8.66V19.033C8.65987 18.6429 8.7366 18.2566 8.88579 17.8961C9.03499 17.5357 9.25374 17.2082 9.52954 16.9323C9.80535 16.6564 10.1328 16.4375 10.4932 16.2882C10.8536 16.1389 11.2399 16.062 11.63 16.062H28.036C28.8237 16.062 29.5791 16.3749 30.1361 16.9319C30.6931 17.4889 31.006 18.2443 31.006 19.032L31.007 36.314Z" fill="#006BFF"/>
<path d="M31.007 37.0118H8.66001C8.47488 37.0118 8.29735 36.9383 8.16644 36.8074C8.03554 36.6765 7.96201 36.4989 7.96201 36.3138V19.0328C7.9628 18.0597 8.34971 17.1267 9.0378 16.4386C9.72589 15.7505 10.6589 15.3636 11.632 15.3628H28.036C29.0091 15.3636 29.9421 15.7505 30.6302 16.4386C31.3183 17.1267 31.7052 18.0597 31.706 19.0328V36.3128C31.7061 36.4046 31.6881 36.4956 31.6531 36.5804C31.618 36.6653 31.5665 36.7424 31.5016 36.8074C31.4366 36.8723 31.3595 36.9238 31.2747 36.9589C31.1898 36.9939 31.0988 37.0119 31.007 37.0118ZM9.35801 35.6148H30.308V19.0328C30.3072 18.4304 30.0676 17.8528 29.6417 17.4268C29.2159 17.0007 28.6384 16.7609 28.036 16.7598H11.631C11.0284 16.7606 10.4507 17.0003 10.0246 17.4264C9.59853 17.8525 9.3588 18.4302 9.35801 19.0328V35.6148Z" fill="#006BFF"/>
<path d="M43.577 36.3139H31.007V23.0449H37.464C38.2344 23.0431 38.9931 23.2331 39.6717 23.5978C40.3503 23.9625 40.9274 24.4904 41.351 25.1339L43.577 28.5409V36.3139Z" fill="white"/>
<path d="M43.577 37.0122H31.007C30.8219 37.0122 30.6443 36.9386 30.5134 36.8077C30.3825 36.6768 30.309 36.4993 30.309 36.3142V23.0452C30.309 22.6592 30.621 22.3472 31.007 22.3472H37.464C39.281 22.3472 40.951 23.2452 41.934 24.7512L44.161 28.1582C44.2356 28.272 44.2752 28.4051 44.275 28.5412V36.3142C44.2751 36.4059 44.2572 36.4967 44.2221 36.5814C44.1871 36.6662 44.1357 36.7432 44.0708 36.808C44.006 36.8729 43.929 36.9243 43.8443 36.9593C43.7595 36.9943 43.6687 37.0123 43.577 37.0122ZM31.705 35.6152H42.88V28.7502L40.767 25.5162C40.408 24.9692 39.9179 24.5207 39.3414 24.2114C38.7649 23.9021 38.1202 23.7419 37.466 23.7452H31.706V35.6162L31.705 35.6152Z" fill="#006BFF"/>
<path d="M31.007 36.3138H6.565V35.6238C6.565 35.2557 6.63751 34.8913 6.77839 34.5513C6.91926 34.2113 7.12575 33.9023 7.38604 33.6421C7.64634 33.3819 7.95535 33.1755 8.29542 33.0348C8.63549 32.894 8.99995 32.8216 9.368 32.8218H31.008V36.3138H31.007Z" fill="#9DC1E4"/>
<path d="M31.007 37.012H6.565C6.47334 37.012 6.38258 36.994 6.29789 36.9589C6.21321 36.9238 6.13626 36.8724 6.07144 36.8076C6.00663 36.7428 5.95521 36.6658 5.92014 36.5811C5.88506 36.4964 5.867 36.4057 5.867 36.314V35.624C5.867 33.694 7.437 32.124 9.367 32.124H31.007C31.393 32.124 31.705 32.436 31.705 32.822V36.314C31.705 36.4991 31.6315 36.6767 31.5006 36.8076C31.3697 36.9385 31.1921 37.012 31.007 37.012ZM7.263 35.615H30.31V33.52H9.367C8.21 33.52 7.268 34.46 7.263 35.615Z" fill="#006BFF"/>
<path d="M40.629 36.14C40.629 36.9788 40.2958 37.7832 39.7027 38.3763C39.1096 38.9693 38.3052 39.3025 37.4665 39.3025C36.6277 39.3025 35.8233 38.9693 35.2303 38.3763C34.6372 37.7832 34.304 36.9788 34.304 36.14C34.304 35.3013 34.6372 34.4969 35.2303 33.9038C35.8233 33.3107 36.6277 32.9775 37.4665 32.9775C38.3052 32.9775 39.1096 33.3107 39.7027 33.9038C40.2958 34.4969 40.629 35.3013 40.629 36.14Z" fill="#DFF1FF"/>
<path d="M37.467 40.0002C36.4435 39.9991 35.4622 39.5921 34.7384 38.8685C34.0146 38.1449 33.6073 37.1637 33.606 36.1402C33.6071 35.1167 34.0141 34.1354 34.7377 33.4116C35.4613 32.6877 36.4425 32.2805 37.466 32.2792C38.4893 32.2805 39.4704 32.6876 40.194 33.4112C40.9176 34.1348 41.3247 35.1158 41.326 36.1392C41.3247 37.1624 40.9178 38.1434 40.1944 38.8671C39.471 39.5909 38.4903 39.9983 37.467 40.0002ZM37.467 33.6752C36.8138 33.676 36.1875 33.9358 35.7256 34.3977C35.2637 34.8596 35.0038 35.4859 35.003 36.1392C35.0038 36.7924 35.2637 37.4187 35.7256 37.8806C36.1875 38.3425 36.8138 38.6024 37.467 38.6032C38.1201 38.6021 38.7461 38.3421 39.2078 37.8802C39.6695 37.4184 39.9292 36.7922 39.93 36.1392C39.9292 35.4861 39.6695 34.86 39.2078 34.3981C38.7461 33.9362 38.1201 33.6762 37.467 33.6752ZM18.437 23.7442H0.978011C0.886282 23.7442 0.795452 23.7261 0.710706 23.691C0.62596 23.6559 0.548958 23.6044 0.484096 23.5396C0.419235 23.4747 0.367784 23.3977 0.332681 23.313C0.297578 23.2282 0.27951 23.1374 0.27951 23.0457C0.27951 22.9539 0.297578 22.8631 0.332681 22.7784C0.367784 22.6936 0.419235 22.6166 0.484096 22.5518C0.548958 22.4869 0.62596 22.4354 0.710706 22.4003C0.795452 22.3652 0.886282 22.3472 0.978011 22.3472H18.437C18.5287 22.3472 18.6196 22.3652 18.7043 22.4003C18.7891 22.4354 18.8661 22.4869 18.9309 22.5518C18.9958 22.6166 19.0472 22.6936 19.0823 22.7784C19.1174 22.8631 19.1355 22.9539 19.1355 23.0457C19.1355 23.1374 19.1174 23.2282 19.0823 23.313C19.0472 23.3977 18.9958 23.4747 18.9309 23.5396C18.8661 23.6044 18.7891 23.6559 18.7043 23.691C18.6196 23.7261 18.5287 23.7442 18.437 23.7442Z" fill="#006BFF"/>
<path d="M38.609 36.1401C38.609 36.4431 38.4886 36.7337 38.2744 36.9479C38.0601 37.1622 37.7695 37.2826 37.4665 37.2826C37.1635 37.2826 36.8729 37.1622 36.6586 36.9479C36.4444 36.7337 36.324 36.4431 36.324 36.1401C36.324 35.837 36.4444 35.5464 36.6586 35.3322C36.8729 35.1179 37.1635 34.9976 37.4665 34.9976C37.7695 34.9976 38.0601 35.1179 38.2744 35.3322C38.4886 35.5464 38.609 35.837 38.609 36.1401Z" fill="#006BFF"/>
<path d="M19.679 36.14C19.679 36.9788 19.3458 37.7832 18.7527 38.3763C18.1596 38.9693 17.3553 39.3025 16.5165 39.3025C15.6778 39.3025 14.8734 38.9693 14.2803 38.3763C13.6872 37.7832 13.354 36.9788 13.354 36.14C13.354 35.3013 13.6872 34.4969 14.2803 33.9038C14.8734 33.3107 15.6778 32.9775 16.5165 32.9775C17.3553 32.9775 18.1596 33.3107 18.7527 33.9038C19.3458 34.4969 19.679 35.3013 19.679 36.14Z" fill="#DFF1FF"/>
<path d="M16.516 39.9998C15.4927 39.9985 14.5116 39.5914 13.788 38.8678C13.0644 38.1442 12.6573 37.1631 12.656 36.1398C12.6571 35.1163 13.064 34.135 13.7877 33.4112C14.5113 32.6874 15.4925 32.2801 16.516 32.2788C17.5395 32.2799 18.5208 32.6869 19.2446 33.4105C19.9684 34.1341 20.3757 35.1153 20.377 36.1388C20.3759 37.1623 19.969 38.1436 19.2453 38.8674C18.5217 39.5912 17.5395 39.9985 16.516 39.9998ZM16.516 33.6748C15.8628 33.6756 15.2365 33.9355 14.7746 34.3974C14.3127 34.8593 14.0528 35.4856 14.052 36.1388C14.0528 36.7921 14.3127 37.4183 14.7746 37.8802C15.2365 38.3422 15.8628 38.602 16.516 38.6028C17.1693 38.602 17.7955 38.3422 18.2574 37.8802C18.7194 37.4183 18.9792 36.7921 18.98 36.1388C18.9792 35.4856 18.7194 34.8593 18.2574 34.3974C17.7955 33.9355 17.1693 33.6756 16.516 33.6748Z" fill="#006BFF"/>
<path d="M17.659 36.1401C17.659 36.4431 17.5386 36.7337 17.3244 36.9479C17.1101 37.1622 16.8195 37.2826 16.5165 37.2826C16.2135 37.2826 15.9229 37.1622 15.7086 36.9479C15.4944 36.7337 15.374 36.4431 15.374 36.1401C15.374 35.837 15.4944 35.5464 15.7086 35.3322C15.9229 35.1179 16.2135 34.9976 16.5165 34.9976C16.8195 34.9976 17.1101 35.1179 17.3244 35.3322C17.5386 35.5464 17.659 35.837 17.659 36.1401Z" fill="#006BFF"/>
<path d="M16.682 16.6519C16.682 18.2822 16.0344 19.8457 14.8816 20.9985C13.7288 22.1513 12.1653 22.7989 10.535 22.7989C8.90472 22.7989 7.3412 22.1513 6.18842 20.9985C5.03563 19.8457 4.388 18.2822 4.388 16.6519C4.388 15.0216 5.03563 13.4581 6.18842 12.3053C7.3412 11.1525 8.90472 10.5049 10.535 10.5049C12.1653 10.5049 13.7288 11.1525 14.8816 12.3053C16.0344 13.4581 16.682 15.0216 16.682 16.6519Z" fill="white"/>
<path d="M10.535 23.4971C8.72025 23.495 6.98042 22.7732 5.69719 21.4899C4.41397 20.2067 3.69212 18.4669 3.69 16.6521C3.69212 14.8374 4.41397 13.0975 5.69719 11.8143C6.98042 10.5311 8.72025 9.80925 10.535 9.80713C12.3498 9.80925 14.0896 10.5311 15.3728 11.8143C16.656 13.0975 17.3779 14.8374 17.38 16.6521C17.3779 18.4669 16.656 20.2067 15.3728 21.4899C14.0896 22.7732 12.3498 23.495 10.535 23.4971ZM10.535 11.2031C9.0905 11.205 7.7057 11.7797 6.68438 12.8012C5.66305 13.8227 5.08859 15.2076 5.087 16.6521C5.08885 18.0965 5.66343 19.4811 6.68473 20.5024C7.70603 21.5237 9.09067 22.0983 10.535 22.1001C11.9795 22.0985 13.3644 21.5241 14.3859 20.5028C15.4074 19.4814 15.9822 18.0966 15.984 16.6521C15.9824 15.2075 15.4078 13.8224 14.3863 12.8009C13.3647 11.7793 11.9797 11.2047 10.535 11.2031Z" fill="#006BFF"/>
<path d="M9.19499 19.4889C9.06604 19.489 8.93957 19.4534 8.82963 19.386C8.71969 19.3186 8.63057 19.2221 8.57215 19.1071C8.51374 18.9921 8.48831 18.8632 8.4987 18.7347C8.50908 18.6062 8.55488 18.483 8.63099 18.3789L10.057 16.4239V13.5969C10.057 13.4118 10.1305 13.2343 10.2614 13.1034C10.3923 12.9725 10.5699 12.8989 10.755 12.8989C10.9401 12.8989 11.1177 12.9725 11.2486 13.1034C11.3795 13.2343 11.453 13.4118 11.453 13.5969V16.6519C11.4531 16.7997 11.4062 16.9436 11.319 17.0629L9.75999 19.2019C9.6952 19.291 9.61021 19.3635 9.512 19.4134C9.41379 19.4632 9.30515 19.4891 9.19499 19.4889Z" fill="#006BFF"/>
<path d="M35.895 25.1401V30.0291H40.595C40.6852 30.0294 40.7739 30.0058 40.8522 29.9609C40.9304 29.916 40.9955 29.8512 41.0408 29.7732C41.0861 29.6952 41.1101 29.6066 41.1103 29.5163C41.1105 29.4261 41.0869 29.3374 41.042 29.2591L39.412 26.4051C39.1924 26.0209 38.875 25.7015 38.4922 25.4793C38.1094 25.2572 37.6746 25.1401 37.232 25.1401H35.895Z" fill="#DFF1FF"/>
<path d="M40.595 30.7269H35.895C35.7099 30.7269 35.5323 30.6534 35.4014 30.5225C35.2705 30.3916 35.197 30.214 35.197 30.0289V25.1399C35.197 24.7539 35.509 24.4419 35.895 24.4419H37.231C38.381 24.4419 39.448 25.0619 40.018 26.0589L41.648 28.9129C41.865 29.2909 41.864 29.7429 41.645 30.1229C41.425 30.5009 41.033 30.7269 40.595 30.7269ZM36.594 29.3309H40.278L38.805 26.7509C38.6461 26.4738 38.4169 26.2435 38.1405 26.0832C37.8642 25.9229 37.5505 25.8383 37.231 25.8379H36.594V29.3309ZM14.247 26.5369H5.168C4.98275 26.5369 4.80508 26.4633 4.67408 26.3323C4.54309 26.2013 4.4695 26.0236 4.4695 25.8384C4.4695 25.6531 4.54309 25.4755 4.67408 25.3445C4.80508 25.2135 4.98275 25.1399 5.168 25.1399H14.247C14.4323 25.1399 14.6099 25.2135 14.7409 25.3445C14.8719 25.4755 14.9455 25.6531 14.9455 25.8384C14.9455 26.0236 14.8719 26.2013 14.7409 26.3323C14.6099 26.4633 14.4323 26.5369 14.247 26.5369ZM10.755 29.3299H0.977999C0.792878 29.3299 0.615339 29.2564 0.484438 29.1255C0.353538 28.9946 0.279999 28.817 0.279999 28.6319C0.279999 28.4468 0.353538 28.2692 0.484438 28.1383C0.615339 28.0074 0.792878 27.9339 0.977999 27.9339H10.755C10.9401 27.9339 11.1177 28.0074 11.2486 28.1383C11.3795 28.2692 11.453 28.4468 11.453 28.6319C11.453 28.817 11.3795 28.9946 11.2486 29.1255C11.1177 29.2564 10.9401 29.3299 10.755 29.3299Z" fill="#006BFF"/>
</g>
</g>
</g>
<defs>
<clipPath id="clip0_2_26">
<rect width="44" height="40" fill="white" transform="translate(0.279999)"/>
</clipPath>
<clipPath id="clip1_2_26">
<rect width="44" height="40" fill="white" transform="translate(0.279999)"/>
</clipPath>
<clipPath id="clip2_2_26">
<rect width="44" height="40" fill="white" transform="translate(0.279999)"/>
</clipPath>
</defs>
</svg>
