<svg width="101" height="101" viewBox="0 0 101 101" fill="none" xmlns="http://www.w3.org/2000/svg">
<g clip-path="url(#clip0_2_2849)">
<g clip-path="url(#clip1_2_2849)">
<g clip-path="url(#clip2_2_2849)">
<path d="M0.642698 0.434563V100.435H100.643V0.434563H0.642698Z" fill="#FFFFFE"/>
<path d="M4.99052 4.78239V8.43457H30.5557V4.78239H4.99052Z" fill="#181817"/>
<path d="M34.2079 4.78239V8.43457H48.8166V4.78239H34.2079Z" fill="#181817"/>
<path d="M56.121 4.78239V8.43457H59.7731V4.78239H56.121Z" fill="#181817"/>
<path d="M63.4253 4.78239V8.43457H67.0775V4.78239H63.4253Z" fill="#181817"/>
<path d="M70.7297 4.78239V8.43457H96.2949V4.78239H70.7297Z" fill="#181817"/>
<path d="M4.99052 8.43475V12.0869H8.6427V8.43475H4.99052Z" fill="#181817"/>
<path d="M26.9036 8.43475V12.0869H30.5557V8.43475H26.9036Z" fill="#181817"/>
<path d="M45.1644 8.43475V12.0869H52.4688V8.43475H45.1644Z" fill="#181817"/>
<path d="M70.7297 8.43475V12.0869H74.3818V8.43475H70.7297Z" fill="#181817"/>
<path d="M92.6427 8.43475V12.0869H96.2949V8.43475H92.6427Z" fill="#181817"/>
<path d="M4.99052 12.0866V15.7388H8.6427V12.0866H4.99052Z" fill="#181817"/>
<path d="M12.2949 12.0866V15.7388H23.2514V12.0866H12.2949Z" fill="#181817"/>
<path d="M26.9036 12.0866V15.7388H30.5557V12.0866H26.9036Z" fill="#181817"/>
<path d="M37.8601 12.0866V15.7388H41.5123V12.0866H37.8601Z" fill="#181817"/>
<path d="M45.1644 12.0866V15.7388H48.8166V12.0866H45.1644Z" fill="#181817"/>
<path d="M52.4688 12.0866V15.7388H59.7731V12.0866H52.4688Z" fill="#181817"/>
<path d="M63.4253 12.0866V15.7388H67.0775V12.0866H63.4253Z" fill="#181817"/>
<path d="M70.7297 12.0866V15.7388H74.3818V12.0866H70.7297Z" fill="#181817"/>
<path d="M78.034 12.0866V15.7388H88.9905V12.0866H78.034Z" fill="#181817"/>
<path d="M92.6427 12.0866V15.7388H96.2949V12.0866H92.6427Z" fill="#181817"/>
<path d="M4.99052 15.7389V19.3911H8.6427V15.7389H4.99052Z" fill="#181817"/>
<path d="M12.2949 15.7389V19.3911H23.2514V15.7389H12.2949Z" fill="#181817"/>
<path d="M26.9036 15.7389V19.3911H30.5557V15.7389H26.9036Z" fill="#181817"/>
<path d="M41.5123 15.7389V19.3911H56.121V15.7389H41.5123Z" fill="#181817"/>
<path d="M59.7731 15.7389V19.3911H63.4253V15.7389H59.7731Z" fill="#181817"/>
<path d="M70.7297 15.7389V19.3911H74.3818V15.7389H70.7297Z" fill="#181817"/>
<path d="M78.034 15.7389V19.3911H88.9905V15.7389H78.034Z" fill="#181817"/>
<path d="M92.6427 15.7389V19.3911H96.2949V15.7389H92.6427Z" fill="#181817"/>
<path d="M4.99052 19.3913V23.0435H8.6427V19.3913H4.99052Z" fill="#181817"/>
<path d="M12.2949 19.3913V23.0435H23.2514V19.3913H12.2949Z" fill="#181817"/>
<path d="M26.9036 19.3913V23.0435H30.5557V19.3913H26.9036Z" fill="#181817"/>
<path d="M41.5123 19.3913V23.0435H52.4688V19.3913H41.5123Z" fill="#181817"/>
<path d="M56.121 19.3913V23.0435H59.7731V19.3913H56.121Z" fill="#181817"/>
<path d="M63.4253 19.3913V23.0435H67.0775V19.3913H63.4253Z" fill="#181817"/>
<path d="M70.7297 19.3913V23.0435H74.3818V19.3913H70.7297Z" fill="#181817"/>
<path d="M78.034 19.3913V23.0435H88.9905V19.3913H78.034Z" fill="#181817"/>
<path d="M92.6427 19.3913V23.0435H96.2949V19.3913H92.6427Z" fill="#181817"/>
<path d="M4.99052 23.0431V26.6953H8.6427V23.0431H4.99052Z" fill="#181817"/>
<path d="M26.9036 23.0431V26.6953H30.5557V23.0431H26.9036Z" fill="#181817"/>
<path d="M37.8601 23.0431V26.6953H41.5123V23.0431H37.8601Z" fill="#181817"/>
<path d="M45.1644 23.0431V26.6953H48.8166V23.0431H45.1644Z" fill="#181817"/>
<path d="M70.7297 23.0431V26.6953H74.3818V23.0431H70.7297Z" fill="#181817"/>
<path d="M92.6427 23.0431V26.6953H96.2949V23.0431H92.6427Z" fill="#181817"/>
<path d="M4.99052 26.6955V30.3477H30.5557V26.6955H4.99052Z" fill="#181817"/>
<path d="M34.2079 26.6955V30.3477H37.8601V26.6955H34.2079Z" fill="#181817"/>
<path d="M41.5123 26.6955V30.3477H45.1644V26.6955H41.5123Z" fill="#181817"/>
<path d="M48.8166 26.6955V30.3477H52.4688V26.6955H48.8166Z" fill="#181817"/>
<path d="M56.121 26.6955V30.3477H59.7731V26.6955H56.121Z" fill="#181817"/>
<path d="M63.4253 26.6955V30.3477H67.0775V26.6955H63.4253Z" fill="#181817"/>
<path d="M70.7297 26.6955V30.3477H96.2949V26.6955H70.7297Z" fill="#181817"/>
<path d="M34.2079 30.3478V34H41.5123V30.3478H34.2079Z" fill="#181817"/>
<path d="M45.1644 30.3478V34H56.121V30.3478H45.1644Z" fill="#181817"/>
<path d="M63.4253 30.3478V34H67.0775V30.3478H63.4253Z" fill="#181817"/>
<path d="M4.99052 33.9997V37.6519H12.2949V33.9997H4.99052Z" fill="#181817"/>
<path d="M15.947 33.9997V37.6519H23.2514V33.9997H15.947Z" fill="#181817"/>
<path d="M26.9036 33.9997V37.6519H30.5557V33.9997H26.9036Z" fill="#181817"/>
<path d="M37.8601 33.9997V37.6519H41.5123V33.9997H37.8601Z" fill="#181817"/>
<path d="M56.121 33.9997V37.6519H63.4253V33.9997H56.121Z" fill="#181817"/>
<path d="M70.7297 33.9997V37.6519H74.3818V33.9997H70.7297Z" fill="#181817"/>
<path d="M92.6427 33.9997V37.6519H96.2949V33.9997H92.6427Z" fill="#181817"/>
<path d="M23.2514 37.652V41.3042H26.9036V37.652H23.2514Z" fill="#181817"/>
<path d="M30.5557 37.652V41.3042H37.8601V37.652H30.5557Z" fill="#181817"/>
<path d="M41.5123 37.652V41.3042H48.8166V37.652H41.5123Z" fill="#181817"/>
<path d="M59.7731 37.652V41.3042H63.4253V37.652H59.7731Z" fill="#181817"/>
<path d="M67.0775 37.652V41.3042H70.7297V37.652H67.0775Z" fill="#181817"/>
<path d="M74.3818 37.652V41.3042H92.6427V37.652H74.3818Z" fill="#181817"/>
<path d="M4.99052 41.3044V44.9565H8.6427V41.3044H4.99052Z" fill="#181817"/>
<path d="M12.2949 41.3044V44.9565H19.5992V41.3044H12.2949Z" fill="#181817"/>
<path d="M23.2514 41.3044V44.9565H30.5557V41.3044H23.2514Z" fill="#181817"/>
<path d="M37.8601 41.3044V44.9565H41.5123V41.3044H37.8601Z" fill="#181817"/>
<path d="M45.1644 41.3044V44.9565H48.8166V41.3044H45.1644Z" fill="#181817"/>
<path d="M56.121 41.3044V44.9565H63.4253V41.3044H56.121Z" fill="#181817"/>
<path d="M67.0775 41.3044V44.9565H85.3384V41.3044H67.0775Z" fill="#181817"/>
<path d="M92.6427 41.3044V44.9565H96.2949V41.3044H92.6427Z" fill="#181817"/>
<path d="M4.99052 44.9562V48.6084H8.6427V44.9562H4.99052Z" fill="#181817"/>
<path d="M12.2949 44.9562V48.6084H23.2514V44.9562H12.2949Z" fill="#181817"/>
<path d="M34.2079 44.9562V48.6084H37.8601V44.9562H34.2079Z" fill="#181817"/>
<path d="M48.8166 44.9562V48.6084H52.4688V44.9562H48.8166Z" fill="#181817"/>
<path d="M59.7731 44.9562V48.6084H63.4253V44.9562H59.7731Z" fill="#181817"/>
<path d="M81.6862 44.9562V48.6084H96.2949V44.9562H81.6862Z" fill="#181817"/>
<path d="M19.5992 48.6086V52.2607H30.5557V48.6086H19.5992Z" fill="#181817"/>
<path d="M37.8601 48.6086V52.2607H45.1644V48.6086H37.8601Z" fill="#181817"/>
<path d="M48.8166 48.6086V52.2607H52.4688V48.6086H48.8166Z" fill="#181817"/>
<path d="M63.4253 48.6086V52.2607H67.0775V48.6086H63.4253Z" fill="#181817"/>
<path d="M70.7297 48.6086V52.2607H78.034V48.6086H70.7297Z" fill="#181817"/>
<path d="M92.6427 48.6086V52.2607H96.2949V48.6086H92.6427Z" fill="#181817"/>
<path d="M4.99052 52.2604V55.9126H8.6427V52.2604H4.99052Z" fill="#181817"/>
<path d="M19.5992 52.2604V55.9126H26.9036V52.2604H19.5992Z" fill="#181817"/>
<path d="M30.5557 52.2604V55.9126H48.8166V52.2604H30.5557Z" fill="#181817"/>
<path d="M52.4688 52.2604V55.9126H56.121V52.2604H52.4688Z" fill="#181817"/>
<path d="M59.7731 52.2604V55.9126H63.4253V52.2604H59.7731Z" fill="#181817"/>
<path d="M78.034 52.2604V55.9126H81.6862V52.2604H78.034Z" fill="#181817"/>
<path d="M88.9905 52.2604V55.9126H92.6427V52.2604H88.9905Z" fill="#181817"/>
<path d="M4.99052 55.9128V59.5649H12.2949V55.9128H4.99052Z" fill="#181817"/>
<path d="M15.947 55.9128V59.5649H19.5992V55.9128H15.947Z" fill="#181817"/>
<path d="M23.2514 55.9128V59.5649H30.5557V55.9128H23.2514Z" fill="#181817"/>
<path d="M37.8601 55.9128V59.5649H45.1644V55.9128H37.8601Z" fill="#181817"/>
<path d="M52.4688 55.9128V59.5649H56.121V55.9128H52.4688Z" fill="#181817"/>
<path d="M59.7731 55.9128V59.5649H63.4253V55.9128H59.7731Z" fill="#181817"/>
<path d="M70.7297 55.9128V59.5649H74.3818V55.9128H70.7297Z" fill="#181817"/>
<path d="M78.034 55.9128V59.5649H96.2949V55.9128H78.034Z" fill="#181817"/>
<path d="M4.99052 59.5651V63.2173H8.6427V59.5651H4.99052Z" fill="#181817"/>
<path d="M12.2949 59.5651V63.2173H23.2514V59.5651H12.2949Z" fill="#181817"/>
<path d="M30.5557 59.5651V63.2173H34.2079V59.5651H30.5557Z" fill="#181817"/>
<path d="M37.8601 59.5651V63.2173H48.8166V59.5651H37.8601Z" fill="#181817"/>
<path d="M56.121 59.5651V63.2173H59.7731V59.5651H56.121Z" fill="#181817"/>
<path d="M63.4253 59.5651V63.2173H78.034V59.5651H63.4253Z" fill="#181817"/>
<path d="M81.6862 59.5651V63.2173H88.9905V59.5651H81.6862Z" fill="#181817"/>
<path d="M92.6427 59.5651V63.2173H96.2949V59.5651H92.6427Z" fill="#181817"/>
<path d="M4.99052 63.217V66.8691H8.6427V63.217H4.99052Z" fill="#181817"/>
<path d="M15.947 63.217V66.8691H23.2514V63.217H15.947Z" fill="#181817"/>
<path d="M26.9036 63.217V66.8691H30.5557V63.217H26.9036Z" fill="#181817"/>
<path d="M34.2079 63.217V66.8691H37.8601V63.217H34.2079Z" fill="#181817"/>
<path d="M41.5123 63.217V66.8691H45.1644V63.217H41.5123Z" fill="#181817"/>
<path d="M48.8166 63.217V66.8691H56.121V63.217H48.8166Z" fill="#181817"/>
<path d="M63.4253 63.217V66.8691H81.6862V63.217H63.4253Z" fill="#181817"/>
<path d="M85.3384 63.217V66.8691H92.6427V63.217H85.3384Z" fill="#181817"/>
<path d="M34.2079 66.8693V70.5215H41.5123V66.8693H34.2079Z" fill="#181817"/>
<path d="M56.121 66.8693V70.5215H67.0775V66.8693H56.121Z" fill="#181817"/>
<path d="M78.034 66.8693V70.5215H81.6862V66.8693H78.034Z" fill="#181817"/>
<path d="M85.3384 66.8693V70.5215H92.6427V66.8693H85.3384Z" fill="#181817"/>
<path d="M4.99052 70.5217V74.1738H30.5557V70.5217H4.99052Z" fill="#181817"/>
<path d="M41.5123 70.5217V74.1738H48.8166V70.5217H41.5123Z" fill="#181817"/>
<path d="M56.121 70.5217V74.1738H59.7731V70.5217H56.121Z" fill="#181817"/>
<path d="M63.4253 70.5217V74.1738H67.0775V70.5217H63.4253Z" fill="#181817"/>
<path d="M70.7297 70.5217V74.1738H74.3818V70.5217H70.7297Z" fill="#181817"/>
<path d="M78.034 70.5217V74.1738H81.6862V70.5217H78.034Z" fill="#181817"/>
<path d="M92.6427 70.5217V74.1738H96.2949V70.5217H92.6427Z" fill="#181817"/>
<path d="M4.99052 74.1735V77.8257H8.6427V74.1735H4.99052Z" fill="#181817"/>
<path d="M26.9036 74.1735V77.8257H30.5557V74.1735H26.9036Z" fill="#181817"/>
<path d="M37.8601 74.1735V77.8257H41.5123V74.1735H37.8601Z" fill="#181817"/>
<path d="M45.1644 74.1735V77.8257H48.8166V74.1735H45.1644Z" fill="#181817"/>
<path d="M52.4688 74.1735V77.8257H56.121V74.1735H52.4688Z" fill="#181817"/>
<path d="M59.7731 74.1735V77.8257H67.0775V74.1735H59.7731Z" fill="#181817"/>
<path d="M78.034 74.1735V77.8257H81.6862V74.1735H78.034Z" fill="#181817"/>
<path d="M92.6427 74.1735V77.8257H96.2949V74.1735H92.6427Z" fill="#181817"/>
<path d="M4.99052 77.8259V81.478H8.6427V77.8259H4.99052Z" fill="#181817"/>
<path d="M12.2949 77.8259V81.478H23.2514V77.8259H12.2949Z" fill="#181817"/>
<path d="M26.9036 77.8259V81.478H30.5557V77.8259H26.9036Z" fill="#181817"/>
<path d="M34.2079 77.8259V81.478H41.5123V77.8259H34.2079Z" fill="#181817"/>
<path d="M45.1644 77.8259V81.478H52.4688V77.8259H45.1644Z" fill="#181817"/>
<path d="M59.7731 77.8259V81.478H81.6862V77.8259H59.7731Z" fill="#181817"/>
<path d="M88.9905 77.8259V81.478H92.6427V77.8259H88.9905Z" fill="#181817"/>
<path d="M4.99052 81.4782V85.1304H8.6427V81.4782H4.99052Z" fill="#181817"/>
<path d="M12.2949 81.4782V85.1304H23.2514V81.4782H12.2949Z" fill="#181817"/>
<path d="M26.9036 81.4782V85.1304H30.5557V81.4782H26.9036Z" fill="#181817"/>
<path d="M34.2079 81.4782V85.1304H41.5123V81.4782H34.2079Z" fill="#181817"/>
<path d="M45.1644 81.4782V85.1304H48.8166V81.4782H45.1644Z" fill="#181817"/>
<path d="M52.4688 81.4782V85.1304H74.3818V81.4782H52.4688Z" fill="#181817"/>
<path d="M88.9905 81.4782V85.1304H96.2949V81.4782H88.9905Z" fill="#181817"/>
<path d="M4.99052 85.1301V88.7822H8.6427V85.1301H4.99052Z" fill="#181817"/>
<path d="M12.2949 85.1301V88.7822H23.2514V85.1301H12.2949Z" fill="#181817"/>
<path d="M26.9036 85.1301V88.7822H30.5557V85.1301H26.9036Z" fill="#181817"/>
<path d="M41.5123 85.1301V88.7822H56.121V85.1301H41.5123Z" fill="#181817"/>
<path d="M59.7731 85.1301V88.7822H67.0775V85.1301H59.7731Z" fill="#181817"/>
<path d="M78.034 85.1301V88.7822H96.2949V85.1301H78.034Z" fill="#181817"/>
<path d="M4.99052 88.7824V92.4346H8.6427V88.7824H4.99052Z" fill="#181817"/>
<path d="M26.9036 88.7824V92.4346H30.5557V88.7824H26.9036Z" fill="#181817"/>
<path d="M34.2079 88.7824V92.4346H41.5123V88.7824H34.2079Z" fill="#181817"/>
<path d="M48.8166 88.7824V92.4346H52.4688V88.7824H48.8166Z" fill="#181817"/>
<path d="M56.121 88.7824V92.4346H59.7731V88.7824H56.121Z" fill="#181817"/>
<path d="M67.0775 88.7824V92.4346H70.7297V88.7824H67.0775Z" fill="#181817"/>
<path d="M74.3818 88.7824V92.4346H81.6862V88.7824H74.3818Z" fill="#181817"/>
<path d="M85.3384 88.7824V92.4346H96.2949V88.7824H85.3384Z" fill="#181817"/>
<path d="M4.99052 92.4347V96.0869H30.5557V92.4347H4.99052Z" fill="#181817"/>
<path d="M34.2079 92.4347V96.0869H52.4688V92.4347H34.2079Z" fill="#181817"/>
<path d="M63.4253 92.4347V96.0869H74.3818V92.4347H63.4253Z" fill="#181817"/>
<path d="M81.6862 92.4347V96.0869H85.3384V92.4347H81.6862Z" fill="#181817"/>
<path d="M92.6427 92.4347V96.0869H96.2949V92.4347H92.6427Z" fill="#181817"/>
</g>
</g>
</g>
<defs>
<clipPath id="clip0_2_2849">
<rect width="100" height="100" fill="white" transform="translate(0.6427 0.43457)"/>
</clipPath>
<clipPath id="clip1_2_2849">
<rect width="100" height="100" fill="white" transform="translate(0.6427 0.43457)"/>
</clipPath>
<clipPath id="clip2_2_2849">
<rect width="100" height="100" fill="white" transform="translate(0.6427 0.43457)"/>
</clipPath>
</defs>
</svg>
